<svg xmlns="http://www.w3.org/2000/svg" fill="none" viewBox="2.64 13.68 216.79 42.38"><path fill="#D631B9" d="M2.64 48V13.68H9.6v13.44h13.49V13.68h6.96V48h-6.96V32.88H9.6V48H2.64Zm32.67 8.06v-5.13h2.3c2.44 0 3.65-1.12 3.65-3.36 0-1.09-.62-3.31-1.87-6.67l-6.62-17.52h6.86l3.65 11.08 1.58 5.38h.1c.45-2.08.93-3.87 1.44-5.38l3.46-11.08h6.57l-8.59 25.24c-.96 2.82-2.05 4.76-3.26 5.81-1.19 1.09-3 1.63-5.43 1.63h-3.84Zm23.33 0V23.38h6.3v3.07h.14a8.55 8.55 0 0 1 7.24-3.75c3.24 0 5.83 1.2 7.78 3.6 1.95 2.4 2.93 5.54 2.93 9.41 0 3.97-.98 7.14-2.93 9.5a9.57 9.57 0 0 1-7.73 3.51c-3.2 0-5.57-1.17-7.1-3.5h-.1v10.84h-6.53ZM70.98 43.3c1.66 0 2.98-.66 3.94-1.97.99-1.31 1.48-3.12 1.48-5.43 0-2.46-.46-4.4-1.39-5.8-.93-1.41-2.35-2.12-4.27-2.12-1.95 0-3.4.74-4.32 2.21-.93 1.44-1.4 3.35-1.4 5.71 0 2.28.52 4.08 1.54 5.43a5.27 5.27 0 0 0 4.42 1.97Zm26.65 5.42c-3.96 0-7.08-1.22-9.36-3.65-2.27-2.46-3.4-5.6-3.4-9.4 0-3.69 1.13-6.76 3.4-9.22a11.28 11.28 0 0 1 8.74-3.75c3.87 0 6.86 1.35 8.97 4.04 2.12 2.68 3.17 6.28 3.17 10.8H91.3a7.8 7.8 0 0 0 1.97 4.56 5.84 5.84 0 0 0 4.32 1.58c2.4 0 3.98-1 4.75-3.02h6.43a9.67 9.67 0 0 1-3.65 5.76c-1.95 1.53-4.45 2.3-7.49 2.3Zm-.52-20.98c-3.17 0-5.08 1.76-5.72 5.28h10.95a5.64 5.64 0 0 0-1.59-3.79 4.86 4.86 0 0 0-3.64-1.49Zm21.35-4.36v3.93h.15a9.12 9.12 0 0 1 2.54-3.17c.93-.7 2.1-1.05 3.5-1.05.68 0 1.19.06 1.54.19v5.71h-.14c-2.21-.22-3.99.26-5.33 1.44-1.34 1.19-2.02 3.04-2.02 5.57v12h-6.53V23.38h6.3ZM129.1 48V13.68h6.53V48h-6.53Zm26.33 0c-.32-.42-.58-1.33-.77-2.74h-.1a7.3 7.3 0 0 1-2.68 2.45c-1.1.58-2.61.87-4.56.87-2.6 0-4.67-.66-6.24-1.97-1.57-1.31-2.36-3.17-2.36-5.57 0-2.5.87-4.32 2.6-5.47 1.72-1.19 4.16-2 7.3-2.45 2.3-.32 3.87-.64 4.7-.96.83-.35 1.25-.96 1.25-1.82 0-.9-.36-1.6-1.06-2.12a4.95 4.95 0 0 0-3.07-.81c-2.98 0-4.56 1.15-4.75 3.45h-5.81a7.77 7.77 0 0 1 2.83-5.8c1.8-1.54 4.38-2.3 7.77-2.3 6.92 0 10.37 3.02 10.37 9.06v12.53c0 1.86.3 3 .87 3.41V48h-6.3Zm-6.53-3.98c1.8 0 3.2-.47 4.22-1.4a4.27 4.27 0 0 0 1.59-3.3v-3.7c-.7.41-2.22.9-4.56 1.44-1.86.41-3.17.9-3.94 1.44-.77.5-1.15 1.3-1.15 2.4 0 2.08 1.28 3.12 3.84 3.12Zm22.49-20.64v3.36h.14a8.13 8.13 0 0 1 7.3-4.04 7.9 7.9 0 0 1 6.14 2.6c1.57 1.7 2.35 3.9 2.35 6.62V48h-6.53V32.88a4.6 4.6 0 0 0-1.15-3.26 3.95 3.95 0 0 0-3.12-1.25c-1.44 0-2.64.53-3.6 1.58a5.95 5.95 0 0 0-1.39 4.08V48H165V23.38h6.39Zm31.52 25.34c-3.96 0-7.08-1.22-9.36-3.65-2.27-2.46-3.4-5.6-3.4-9.4 0-3.69 1.13-6.76 3.4-9.22a11.28 11.28 0 0 1 8.74-3.75c3.87 0 6.86 1.35 8.98 4.04 2.1 2.68 3.16 6.28 3.16 10.8h-17.85a7.8 7.8 0 0 0 1.97 4.56 5.84 5.84 0 0 0 4.32 1.58c2.4 0 3.98-1 4.75-3.02h6.43a9.67 9.67 0 0 1-3.65 5.76c-1.95 1.53-4.45 2.3-7.49 2.3Zm-.52-20.98c-3.17 0-5.08 1.76-5.72 5.28h10.95a5.64 5.64 0 0 0-1.59-3.79 4.86 4.86 0 0 0-3.64-1.49Z"/><path fill="#fff" d="M7.64 48V13.68h6.96v13.44h13.49V13.68h6.96V48h-6.96V32.88H14.6V48H7.64Zm32.67 8.06v-5.13h2.3c2.44 0 3.65-1.12 3.65-3.36 0-1.09-.62-3.31-1.87-6.67l-6.62-17.52h6.86l3.65 11.08 1.58 5.38h.1c.45-2.08.93-3.87 1.44-5.38l3.46-11.08h6.57l-8.59 25.24c-.96 2.82-2.05 4.76-3.26 5.81-1.19 1.09-3 1.63-5.43 1.63h-3.84Zm23.33 0V23.38h6.3v3.07h.14a8.55 8.55 0 0 1 7.24-3.75c3.24 0 5.83 1.2 7.78 3.6 1.95 2.4 2.93 5.54 2.93 9.41 0 3.97-.98 7.14-2.93 9.5a9.57 9.57 0 0 1-7.73 3.51c-3.2 0-5.57-1.17-7.1-3.5h-.1v10.84h-6.53ZM75.98 43.3c1.66 0 2.98-.66 3.94-1.97.99-1.31 1.48-3.12 1.48-5.43 0-2.46-.46-4.4-1.39-5.8-.93-1.41-2.35-2.12-4.27-2.12-1.95 0-3.4.74-4.32 2.21-.93 1.44-1.4 3.35-1.4 5.71 0 2.28.52 4.08 1.54 5.43a5.27 5.27 0 0 0 4.42 1.97Zm26.65 5.42c-3.96 0-7.08-1.22-9.36-3.65-2.27-2.46-3.4-5.6-3.4-9.4 0-3.69 1.13-6.76 3.4-9.22a11.28 11.28 0 0 1 8.74-3.75c3.87 0 6.86 1.35 8.97 4.04 2.12 2.68 3.17 6.28 3.17 10.8H96.3a7.8 7.8 0 0 0 1.97 4.56 5.84 5.84 0 0 0 4.31 1.58c2.4 0 3.99-1 4.76-3.02h6.43a9.67 9.67 0 0 1-3.65 5.76c-1.95 1.53-4.45 2.3-7.49 2.3Zm-.52-20.98c-3.17 0-5.08 1.76-5.72 5.28h10.95a5.64 5.64 0 0 0-1.59-3.79 4.86 4.86 0 0 0-3.64-1.49Zm21.35-4.36v3.93h.15a9.12 9.12 0 0 1 2.54-3.17c.93-.7 2.1-1.05 3.5-1.05.68 0 1.19.06 1.54.19v5.71h-.14c-2.21-.22-3.99.26-5.33 1.44-1.34 1.19-2.02 3.04-2.02 5.57v12h-6.53V23.38h6.3ZM134.1 48V13.68h6.53V48h-6.53Zm26.33 0c-.32-.42-.58-1.33-.77-2.74h-.1a7.3 7.3 0 0 1-2.68 2.45c-1.1.58-2.61.87-4.56.87-2.6 0-4.67-.66-6.24-1.97-1.57-1.31-2.36-3.17-2.36-5.57 0-2.5.87-4.32 2.6-5.47 1.72-1.19 4.16-2 7.3-2.45 2.3-.32 3.87-.64 4.7-.96.83-.35 1.25-.96 1.25-1.82 0-.9-.36-1.6-1.06-2.12a4.95 4.95 0 0 0-3.07-.81c-2.98 0-4.56 1.15-4.75 3.45h-5.81a7.77 7.77 0 0 1 2.83-5.8c1.8-1.54 4.38-2.3 7.77-2.3 6.92 0 10.37 3.02 10.37 9.06v12.53c0 1.86.3 3 .87 3.41V48h-6.3Zm-6.53-3.98c1.8 0 3.2-.47 4.22-1.4a4.27 4.27 0 0 0 1.59-3.3v-3.7c-.7.41-2.22.9-4.56 1.44-1.86.41-3.17.9-3.94 1.44-.77.5-1.15 1.3-1.15 2.4 0 2.08 1.28 3.12 3.84 3.12Zm22.49-20.64v3.36h.14a8.13 8.13 0 0 1 7.3-4.04 7.9 7.9 0 0 1 6.14 2.6c1.57 1.7 2.35 3.9 2.35 6.62V48h-6.53V32.88a4.6 4.6 0 0 0-1.15-3.26 3.95 3.95 0 0 0-3.12-1.25c-1.44 0-2.64.53-3.6 1.58a5.95 5.95 0 0 0-1.39 4.08V48H170V23.38h6.39Zm31.52 25.34c-3.96 0-7.08-1.22-9.36-3.65-2.27-2.46-3.4-5.6-3.4-9.4 0-3.69 1.13-6.76 3.4-9.22a11.28 11.28 0 0 1 8.74-3.75c3.87 0 6.86 1.35 8.98 4.04 2.1 2.68 3.16 6.28 3.16 10.8h-17.85a7.8 7.8 0 0 0 1.97 4.56 5.84 5.84 0 0 0 4.32 1.58c2.4 0 3.98-1 4.75-3.02h6.43a9.67 9.67 0 0 1-3.65 5.76c-1.95 1.53-4.45 2.3-7.49 2.3Zm-.52-20.98c-3.17 0-5.08 1.76-5.72 5.28h10.95a5.64 5.64 0 0 0-1.59-3.79 4.86 4.86 0 0 0-3.64-1.49Z"/></svg>