<svg xmlns="http://www.w3.org/2000/svg" width="550" height="494" fill="none"><path fill="#D631B9" d="M270.65 0h100.47c13.7 0 25.97 7.96 30.75 19.96l88.19 221.19a7.2 7.2 0 0 1 .02 5.3l-.5 1.26v.02l-87.81 225.8c-4.72 12.12-17.04 20.19-30.85 20.19H270.47c-5.65 0-9.6-5.21-7.75-10.2l90.55-242.37L262.95 10.3c-1.96-5 2-10.3 7.7-10.3Z"/><path fill="#D631B9" d="M8.4 0h100.46c13.7 0 25.97 7.96 30.75 19.96l88.19 221.19a7.2 7.2 0 0 1 .02 5.3l-.5 1.26v.02l-87.81 225.8c-4.72 12.12-17.04 20.19-30.85 20.19H8.21c-5.65 0-9.6-5.21-7.74-10.2L91 241.15.7 10.3c-1.96-5 2-10.3 7.7-10.3Z"/><path fill="#D631B9" d="M338.83 194H197v107h141.83L362 245.97 338.83 194Z"/><path fill="#fff" d="M328.65 0h100.47c13.7 0 25.97 7.96 30.75 19.96l88.19 221.19a7.2 7.2 0 0 1 .02 5.3l-.5 1.26v.02l-87.81 225.8c-4.72 12.12-17.04 20.19-30.85 20.19H328.47c-5.65 0-9.6-5.21-7.75-10.2l90.55-242.37L320.95 10.3c-1.96-5 2-10.3 7.7-10.3Z"/><path fill="#fff" d="M66.4 0h100.46c13.7 0 25.97 7.96 30.75 19.96l88.19 221.19a7.2 7.2 0 0 1 .02 5.3l-.5 1.26v.02l-87.81 225.8c-4.72 12.12-17.04 20.19-30.85 20.19H66.21c-5.65 0-9.6-5.21-7.74-10.2L149 241.15 58.7 10.3c-1.96-5 2-10.3 7.7-10.3Z"/><path fill="#fff" d="M396.83 194H255v107h141.83L420 245.97 396.83 194Z"/></svg>