<svg fill="none" xmlns="http://www.w3.org/2000/svg" viewBox="0 0 211 27"><path d="M1.6 22 .6 2.84h3.38L4.2 18.9h.63l5.9-16.07h2.91l.23 16.07h.63l5.9-16.07h3.64L16.24 22H11.2l-.21-11.6L6.57 22H1.6Zm22.33 0-2.37-2.89.58-3.3 2.96-2.55h6.94l.21-1.14-.94-1.14H24.8l.44-2.58h7.46l2.76 3.36L33.65 22h-3.14l.34-1.98L28.5 22h-4.58Zm1.82-2.42 2.44-.02 3.23-2.73.18-1.12h-5.15l-1.35 1.14-.29 1.56.94 1.17ZM37.68 22l2.4-13.6h3.14l-.42 2.37 2.58-2.37h3.35l-.54 3.15h-3.05l-2.9 2.47L40.82 22h-3.15Zm10.27 4.86L51.2 8.4h3.15L54 10.3l2.05-1.9h5.15l2.4 2.91-1.38 7.8-3.4 2.89h-4.58l-1.92-2.05-1.22 6.91h-3.15Zm7.2-7.3h2.7l1.36-1.15L60.33 12l-.94-1.14h-2.7l-3.25 2.75-.57 3.23 2.28 2.73Zm20.29 7.3-3.51-4.26" fill="#FFFFFF"/></svg>