<svg xmlns="http://www.w3.org/2000/svg" viewBox="0 0 432.5 485.6"><g fill="#010101"><path d="m284.5 418.4-67-105.1 41-69.4 87.9 138.6-61.9 35.9Z"/><path d="m217.6 313.3 66.9 105.1 61.9-35.9-88-138.6z"/><path d="M402.7 340.4v-28.8L306.6 162l-35.7 60.5 92.8 150 33.5-19.4c3.3-2.7 5.3-6.6 5.5-10.9v-1.8Z"/><path d="m0 367.5 47.4 27.2L205 142l-26.7-.7c-22.8-.3-47.4 5.6-58.7 24L30.1 304 0 350.3v17.2Z"/><path d="m296 141.9-70.5.3L66 405.4l55.7 32.1 15.2-25.7z"/><path d="M432.4 141.6a45 45 0 0 0-21-36.1L236 4.7a45.6 45.6 0 0 0-40.3 0L25.4 103.4a45 45 0 0 0-25.4 38v208.9L30.1 304 30 142.9c0-.6 0-1.2.2-1.7.6-3.8 2.8-7.2 6-9.5.7-.6 172.6-100 173.2-100.3 4-2 9.2-2 13.2 0l173 99.4c4.1 2.6 6.7 7 7 11.9v199.5a15 15 0 0 1-5.3 10.9l-33.5 19.4-17.3 10-61.9 35.9-62.7 36.3a15.2 15.2 0 0 1-10.7-.2L137 411.8l-15.2 25.7 66.7 38.5a1156 1156 0 0 0 10.6 5.9 44.6 44.6 0 0 0 34 .6l182.3-105.6a44.6 44.6 0 0 0 17.1-33.6V141.6Z"/></g></svg>