<svg viewBox="451.97 346.93 767.35 681.07" fill="none" xmlns="http://www.w3.org/2000/svg"><path d="M644.6 1028h-129c-27.2 0-40.5 0-48.7-5.2A32.8 32.8 0 0 1 452 997c-.5-9.6 6.2-21.4 19.6-44.9l318.6-561.5c13.5-23.8 20.4-35.7 29-40.1a32.9 32.9 0 0 1 29.8 0c8.6 4.4 15.5 16.3 29 40.1L943.5 505c14.9 26 22.4 39 25.7 52.8a97 97 0 0 1 0 45.4c-3.3 13.7-10.7 26.8-25.5 52.7L776.4 951.7c-15 26.3-22.6 39.6-33 49.5a97.3 97.3 0 0 1-39.7 23c-13.6 3.8-28.8 3.8-59.1 3.8Z" fill="#010101"/><path d="M1155.2 1028H970.4c-27.3 0-41 0-49-5.2a33.1 33.1 0 0 1-14.9-25.8c-.5-9.7 6.4-21.4 20.1-45.1l92.3-158.4c13.5-23.4 20.4-35 28.9-39.4a32.5 32.5 0 0 1 29.5 0c8.7 4.4 15.4 16 29.1 39.2l92.6 158.4c13.7 23.7 20.8 35.5 20.3 45.1-.5 10.5-6 20.1-14.9 25.8-8.2 5.4-21.9 5.4-49.2 5.4Z" fill="#010101"/></svg>