<svg xmlns="http://www.w3.org/2000/svg" viewBox="72 72.5 144 144"><path d="m187.6 79.8-30.1 44.7a3.2 3.2 0 0 0 4.7 4.2L192 103a1.2 1.2 0 0 1 2 1v80.4a1.2 1.2 0 0 1-2.2.7L102.2 78a15.3 15.3 0 0 0-11.7-5.4h-3.2A15.3 15.3 0 0 0 72 87.8v113.4a15.3 15.3 0 0 0 15.3 15.3 15.3 15.3 0 0 0 13.1-7.3l30.1-44.7a3.2 3.2 0 0 0-4.7-4.2L96 186a1.2 1.2 0 0 1-2-1v-80.4a1.2 1.2 0 0 1 2.2-.8l89.5 107.3a15.3 15.3 0 0 0 11.7 5.4h3.2a15.3 15.3 0 0 0 15.3-15.3V87.8a15.3 15.3 0 0 0-15.3-15.3 15.3 15.3 0 0 0-13.1 7.3Z" /></svg>