<svg xmlns="http://www.w3.org/2000/svg" viewBox="30.8 44.2 62.6 33"><path data-name="Path 139" d="M43.2 77.2a14.7 14.7 0 0 1-9-2.6 8.8 8.8 0 0 1-3.4-7.4 16.4 16.4 0 0 1 .3-2.5q.6-3.3 1.7-7.9 3-12.6 16-12.6a16 16 0 0 1 6.3 1.2 9.6 9.6 0 0 1 4.4 3.5 9.3 9.3 0 0 1 1.6 5.5 16.3 16.3 0 0 1-.2 2.4l-1.6 8Q57.7 71 53.7 74q-4 3-10.5 3Zm.6-6.6a6.5 6.5 0 0 0 4.4-1.5 8.4 8.4 0 0 0 2.6-4.6l1.6-7.6a10.5 10.5 0 0 0 .2-2q0-4-4.4-4a6.7 6.7 0 0 0-4.4 1.4 8.6 8.6 0 0 0-2.5 4.6q-.8 3.1-1.7 7.6a9.8 9.8 0 0 0-.2 1.9q0 4.2 4.4 4.2Z" fill="#010101"/><path data-name="Path 140" d="M63.2 76.7a1 1 0 0 1-.7-.3 1.1 1.1 0 0 1-.2-.8l6.3-29.8a1.3 1.3 0 0 1 .5-.8 1.4 1.4 0 0 1 1-.3h12a14.1 14.1 0 0 1 8.2 2 6.9 6.9 0 0 1 3.1 6.2 11 11 0 0 1-.2 2.4 12.4 12.4 0 0 1-4.7 7.7q-3.4 2.6-9.4 2.6H73l-2 10a1.3 1.3 0 0 1-.6.8 1.4 1.4 0 0 1-.8.3Zm16.2-17.5a5.5 5.5 0 0 0 3.4-1 5 5 0 0 0 2-3 8 8 0 0 0 0-1.4 2.5 2.5 0 0 0-.7-2 3.8 3.8 0 0 0-2.7-.8H76l-1.7 8.2Z" fill="#010101"/></svg>