<svg
    version="1.0"
    xmlns="http://www.w3.org/2000/svg"
    width="256.000000pt"
    height="256.000000pt"
    viewBox="0 0 256.000000 256.000000"
    preserveAspectRatio="xMidYMid meet"
  >
    <g
      transform="translate(0.000000,256.000000) scale(0.100000,-0.100000)"
      fill="#000000"
      stroke="none"
    >
      <path
        d="M1162 2534 c-75 -26 -883 -499 -929 -543 -23 -23 -54 -67 -70 -99
l-28 -57 0 -555 0 -555 27 -56 c16 -30 48 -75 72 -99 48 -48 835 -510 921
-541 62 -23 178 -24 239 -4 25 9 236 126 469 261 452 260 486 285 535 384 l27
55 0 555 0 555 -27 55 c-50 101 -87 128 -545 392 -235 135 -446 251 -468 257
-56 15 -172 13 -223 -5z m203 -182 c17 -8 209 -118 428 -244 300 -173 404
-239 425 -266 24 -32 27 -45 30 -135 2 -56 -1 -117 -8 -141 -17 -63 -70 -127
-131 -161 l-54 -30 -785 -5 c-862 -5 -821 -3 -922 -66 l-39 -25 3 265 3 264
30 37 c22 28 137 99 445 277 228 131 431 243 450 248 41 10 83 4 125 -18z
m880 -1578 c-11 -63 -59 -97 -454 -324 -471 -271 -454 -262 -512 -262 -56 0
-40 -9 -549 285 -258 149 -363 216 -385 242 -30 36 -30 38 -30 158 0 101 3
129 20 162 25 50 80 105 130 130 38 19 70 20 825 25 837 6 807 4 905 58 l50
27 3 -235 c2 -129 0 -249 -3 -266z"
      />
      <path
        d="M775 1946 c-37 -17 -80 -62 -94 -99 -6 -16 -11 -98 -11 -183 l0 -154
90 0 90 0 0 135 0 135 90 0 90 0 0 -135 0 -135 91 0 90 0 -3 169 -3 169 -31
39 c-51 64 -80 73 -234 73 -90 -1 -145 -5 -165 -14z"
      />
      <path
        d="M1505 1946 c-16 -8 -41 -24 -54 -36 -43 -42 -51 -78 -51 -245 l0
-156 88 3 87 3 3 133 3 132 89 0 90 0 0 -135 0 -135 90 0 90 0 0 153 c0 126
-4 159 -19 192 -21 46 -54 79 -94 94 -42 16 -285 13 -322 -3z"
      />
      <path
        d="M670 895 c0 -176 7 -203 63 -252 46 -41 74 -45 235 -41 128 3 131 3
169 34 66 53 73 78 73 257 l0 157 -90 0 -90 0 0 -135 0 -135 -90 0 -90 0 0
135 0 135 -90 0 -90 0 0 -155z"
      />
      <path
        d="M1400 895 c0 -170 7 -201 56 -247 44 -41 75 -48 215 -48 108 0 136 3
167 19 86 44 102 87 102 281 l0 150 -90 0 -90 0 0 -135 0 -135 -90 0 -89 0 -3
133 -3 132 -87 3 -88 3 0 -156z"
      />
    </g>
  </svg>