<svg xmlns="http://www.w3.org/2000/svg" version="1.0" viewBox="0 0 256 256"><path d="M116.2 2.6c-7.5 2.6-88.3 49.9-92.9 54.3a45.1 45.1 0 0 0-7 9.9l-2.8 5.7v111l2.7 5.6c1.6 3 4.8 7.5 7.2 9.9 4.8 4.8 83.5 51 92.1 54.1a45.1 45.1 0 0 0 23.9.4 949 949 0 0 0 46.9-26.1c45.2-26 48.6-28.5 53.5-38.4l2.7-5.5v-111l-2.7-5.5c-5-10.1-8.7-12.8-54.5-39.2a791.2 791.2 0 0 0-46.8-25.7 50.7 50.7 0 0 0-22.3.5zm20.3 18.2c1.7.8 20.9 11.8 42.8 24.4 30 17.3 40.4 23.9 42.5 26.6 2.4 3.2 2.7 4.5 3 13.5a60 60 0 0 1-.8 14.1c-1.7 6.3-7 12.7-13.1 16.1l-5.4 3-78.5.5c-86.2.5-82.1.3-92.2 6.6l-3.9 2.5.3-26.5.3-26.4 3-3.7c2.2-2.8 13.7-9.9 44.5-27.7A811.4 811.4 0 0 1 124 19c4.1-1 8.3-.4 12.5 1.8zm88 157.8c-1.1 6.3-5.9 9.7-45.4 32.4-47.1 27.1-45.4 26.2-51.2 26.2-5.6 0-4 .9-54.9-28.5-25.8-14.9-36.3-21.6-38.5-24.2-3-3.6-3-3.8-3-15.8 0-10.1.3-12.9 2-16.2 2.5-5 8-10.5 13-13 3.8-1.9 7-2 82.5-2.5 83.7-.6 80.7-.4 90.5-5.8l5-2.7.3 23.5c.2 12.9 0 24.9-.3 26.6z"/><path d="M77.5 61.4a21 21 0 0 0-9.4 9.9c-.6 1.6-1.1 9.8-1.1 18.3V105h18V78h18v27h18.1l-.3-16.9-.3-16.9-3.1-3.9c-5.1-6.4-8-7.3-23.4-7.3-9 .1-14.5.5-16.5 1.4z"/><path d="M150.5 61.4c-1.6.8-4.1 2.4-5.4 3.6-4.3 4.2-5.1 7.8-5.1 24.5v15.6l8.8-.3 8.7-.3.3-13.3.3-13.2H176v27h18V89.7c0-12.6-.4-15.9-1.9-19.2a17.3 17.3 0 0 0-9.4-9.4c-4.2-1.6-28.5-1.3-32.2.3z"/><path d="M67 166.5c0 17.6.7 20.3 6.3 25.2 4.6 4.1 7.4 4.5 23.5 4.1 12.8-.3 13.1-.3 16.9-3.4 6.6-5.3 7.3-7.8 7.3-25.7V151h-18v27H85v-27H67v15.5z"/><path d="M140 166.5c0 17 .7 20.1 5.6 24.7 4.4 4.1 7.5 4.8 21.5 4.8 10.8 0 13.6-.3 16.7-1.9 8.6-4.4 10.2-8.7 10.2-28.1v-15h-18v27h-17.9l-.3-13.3-.3-13.2-8.7-.3-8.8-.3v15.6z"/></svg>