<svg xmlns="http://www.w3.org/2000/svg" version="1.0" viewBox="0 0 162 160"><path d="M11.5 1.4a19.5 19.5 0 0 0-9.1 10.2c-1.1 4.1.2 11 2.5 14.3 3.6 5 7.4 6.4 18.2 6.9l9.7.4.6 32.2c.3 17.6.5 43.1.3 56.6-.2 21.5 0 24.9 1.5 27.6 2.3 4.2 7.1 8.1 11.6 9.4 2.5.8 20.1 1 54.4.8 49.6-.3 50.7-.3 53.5-2.4 1.5-1.1 3.9-3.6 5.1-5.5 2-2.9 2.3-4.3 2-9.8-.4-5.9-.7-6.6-4.5-10.2a16.1 16.1 0 0 0-8.2-4.5l-4.1-.7V70.8c0-45.3-.3-56.5-1.4-59.1a24.3 24.3 0 0 0-10.9-10.6C128.2-.6 15.4-.3 11.5 1.4zm14.8 3.1c2 1.4 3.7 3 3.7 3.5 0 .6-2.9 1-6.5 1-7.6 0-13 1.9-14 5-1.1 3.6 1.1 5 8.1 5 5.6 0 6.4.2 6.4 1.9 0 1.1-1.4 3.1-3.1 4.5-2.4 2-4.1 2.6-7.9 2.6-4.4 0-5-.3-6.8-3.3-2.8-4.6-3.5-7.4-2.8-11.3.8-3.8 4.9-9.2 8-10.4 4.4-1.8 11-1.1 14.9 1.5zm109.2 1.3c6.6 5.2 6.4 2.9 6.5 63.9v55.2l-45.9.3c-44.8.3-46 .4-48.8 2.4-9.3 6.9-9.9 19.9-1.2 26.7 1.9 1.5 2.9 2.7 2.3 2.7-1.8 0-7.6-4.3-9.8-7.3-2.1-2.8-2.1-3.8-2.6-70.6l-.5-67.7-2.8-4.3-2.8-4.2 51.3.3 51.4.3 2.9 2.3zM32.4 12.6c.3.9.6 5.4.6 10V31h-9.7c-9.5-.1-9.7-.1-6-1.4 5.1-1.9 7.5-4.2 8.7-8.4.7-2.7.6-4.3-.5-6.6L24 11.3c0-.1 1.8-.3 3.9-.3 2.6 0 4.1.5 4.5 1.6zM22 14.5c1.1 1.3.5 1.5-4.5 1.5s-5.6-.2-4.5-1.5c.7-.8 2.7-1.5 4.5-1.5 1.8 0 3.8.7 4.5 1.5zm38.9 116c6.2 3.9 6 4.5-1.6 4.5-7.7 0-11.3 1.7-11.3 5.4 0 2.8 1.6 3.6 7.6 3.6 5 0 5.8 1.6 2.4 5-4.3 4.3-9.5 3.9-12.8-1-4.3-6.4-.9-16.9 6.1-18.9 4.8-1.4 5.4-1.3 9.6 1.4zm93.2.8a14.5 14.5 0 0 1 0 24.4l-3.4 2.3h-44.5c-44.4 0-44.5 0-42-2 3.5-2.7 5.8-8 5.8-13 0-4.7-1.1-7.3-4.8-11.3l-2.6-2.7h88.1l3.4 2.3zm-86.5 8.3c1.9 7.4-2.3 15.4-8 15.4-4.8 0-6-1.3-2.7-2.8 3.6-1.6 5.5-6.1 4.8-11.2-.5-3.9-.4-4 2.4-4 2.2 0 3 .6 3.5 2.6zm-9.8.1c.2.9-.8 1.3-3.3 1.3-3.3 0-3.6-.2-2.5-1.5 1.5-1.8 5.1-1.6 5.8.2z"/><path d="M50.4 27.5c-.3.8-.3 1.9.1 2.5.4.7 14.1 1 41.6 1H133v-5H92c-35 0-41.1.2-41.6 1.5z"/><path d="M51.7 41.2c-2.1 1.1-2.2 3.4-.1 4.2.9.3 19.2.6 40.9.6 32.3 0 39.5-.2 40.4-1.4.9-1.1.8-1.7-.3-2.9-1.3-1.3-7.2-1.5-40.4-1.5-22.5 0-39.5.4-40.5 1z"/><path d="M51.1 55.9c-.8.5-1.1 1.6-.8 2.5.6 1.4 5 1.6 41.7 1.6h41.1l-.3-2.3-.3-2.2-40-.2c-22.1-.2-40.6.1-41.4.6z"/><path d="M50.4 71.5c-.3.8-.3 1.9.1 2.5 1 1.6 82.1 1.4 82.7-.3 1.4-3.6.7-3.7-41.3-3.7-34.9 0-41 .2-41.5 1.5z"/><path d="M51.2 85.2c-1.7 1.7-1.5 3.5.4 4.2.9.3 19.2.6 40.9.6 32.3 0 39.5-.2 40.4-1.4.9-1.1.8-1.8-.4-3-1.5-1.4-6.2-1.6-40.9-1.6-29.1 0-39.5.3-40.4 1.2z"/><path d="M50.4 100.4c-.3.8-.3 2 .1 2.6.4.7 14.1 1 41.6 1h41l-.3-2.3-.3-2.2-40.8-.3c-35-.2-40.8 0-41.3 1.2z"/><path d="M50.4 115.5c-.3.8-.3 1.9.1 2.5.9 1.5 80.7 1.4 82.2-.1.6-.6.9-1.8.6-2.5-.8-2.1-82.1-2.1-82.9.1z"/></svg>