<svg
    version="1.0"
    xmlns="http://www.w3.org/2000/svg"
    width="162.000000pt"
    height="160.000000pt"
    viewBox="0 0 162.000000 160.000000"
    preserveAspectRatio="xMidYMid meet"
  >
    <g
      transform="translate(0.000000,160.000000) scale(0.100000,-0.100000)"
      fill="#000000"
      stroke="none"
    >
      <path
        d="M115 1586 c-37 -16 -82 -68 -91 -102 -11 -41 2 -110 25 -143 36 -50
74 -64 182 -69 l97 -4 6 -322 c3 -176 5 -431 3 -566 -2 -215 0 -249 15 -276
23 -42 71 -81 116 -94 25 -8 201 -10 544 -8 496 3 507 3 535 24 15 11 39 36
51 55 20 29 23 43 20 98 -4 59 -7 66 -45 102 -29 26 -55 41 -82 45 l-41 7 0
559 c0 453 -3 565 -14 591 -17 39 -71 92 -109 106 -45 17 -1173 14 -1212 -3z
m148 -31 c20 -14 37 -30 37 -35 0 -6 -29 -10 -65 -10 -76 0 -130 -19 -140 -50
-11 -36 11 -50 81 -50 56 0 64 -2 64 -19 0 -11 -14 -31 -31 -45 -24 -20 -41
-26 -79 -26 -44 0 -50 3 -68 33 -28 46 -35 74 -28 113 8 38 49 92 80 104 44
18 110 11 149 -15z m1092 -13 c66 -52 64 -29 65 -639 l0 -552 -459 -3 c-448
-3 -460 -4 -488 -24 -93 -69 -99 -199 -12 -267 19 -15 29 -27 23 -27 -18 0
-76 43 -98 73 -21 28 -21 38 -26 706 l-5 677 -28 43 -28 42 513 -3 514 -3 29
-23z m-1031 -68 c3 -9 6 -54 6 -100 l0 -84 -97 0 c-95 1 -97 1 -60 14 51 19
75 42 87 84 7 27 6 43 -5 66 -8 16 -15 31 -15 33 0 1 18 3 39 3 26 0 41 -5 45
-16z m-104 -19 c11 -13 5 -15 -45 -15 -50 0 -56 2 -45 15 7 8 27 15 45 15 18
0 38 -7 45 -15z m389 -1160 c62 -39 60 -45 -16 -45 -77 0 -113 -17 -113 -54 0
-28 16 -36 76 -36 50 0 58 -16 24 -50 -43 -43 -95 -39 -128 10 -43 64 -9 169
61 189 48 14 54 13 96 -14z m932 -8 c89 -59 89 -185 0 -244 l-34 -23 -445 0
c-444 0 -445 0 -420 20 35 27 58 80 58 130 0 47 -11 73 -48 113 l-26 27 441 0
440 0 34 -23z m-865 -83 c19 -74 -23 -154 -80 -154 -48 0 -60 13 -27 28 36 16
55 61 48 112 -5 39 -4 40 24 40 22 0 30 -6 35 -26z m-98 -1 c2 -9 -8 -13 -33
-13 -33 0 -36 2 -25 15 15 18 51 16 58 -2z"
      />
      <path
        d="M504 1325 c-3 -8 -3 -19 1 -25 4 -7 141 -10 416 -10 l409 0 0 25 0
25 -410 0 c-350 0 -411 -2 -416 -15z"
      />
      <path
        d="M517 1188 c-21 -11 -22 -34 -1 -42 9 -3 192 -6 409 -6 323 0 395 2
404 14 9 11 8 17 -3 29 -13 13 -72 15 -404 15 -225 0 -395 -4 -405 -10z"
      />
      <path
        d="M511 1041 c-8 -5 -11 -16 -8 -25 6 -14 50 -16 417 -16 l411 0 -3 23
-3 22 -400 2 c-221 2 -406 -1 -414 -6z"
      />
      <path
        d="M504 885 c-3 -8 -3 -19 1 -25 10 -16 821 -14 827 3 14 36 7 37 -413
37 -349 0 -410 -2 -415 -15z"
      />
      <path
        d="M512 748 c-17 -17 -15 -35 4 -42 9 -3 192 -6 409 -6 323 0 395 2 404
14 9 11 8 18 -4 30 -15 14 -62 16 -409 16 -291 0 -395 -3 -404 -12z"
      />
      <path
        d="M504 596 c-3 -8 -3 -20 1 -26 4 -7 141 -10 416 -10 l410 0 -3 23 -3
22 -408 3 c-350 2 -408 0 -413 -12z"
      />
      <path
        d="M504 445 c-3 -8 -3 -19 1 -25 9 -15 807 -14 822 1 6 6 9 18 6 25 -8
21 -821 21 -829 -1z"
      />
    </g>
  </svg>