<svg xmlns="http://www.w3.org/2000/svg" xml:space="preserve" fill="#FFF" viewBox="0.87 0.87 86.23 65.27"><path fill="#000" d="M1.2 42.3c-.2-3-.2-5.7-.2-8.9 3.7-10.4 6.7-9.6 18.4-8.3 10.7 1.2 21.4 2 32 3.3 7.4 1 15 1.3 22.5 1.4 7.5 0 10.5 2.7 12.8 9.8.3 2.4.3 4.5.3 7-2 4.6-4 8.6-7 12.3a17.5 17.5 0 0 1-9.7 6.9c-14 .2-27.7.2-41.8.2A62 62 0 0 1 1.2 42.3z"></path><path d="M87 39.5c-.9 1.8-1.6.5-1.7.1-1.6-6.2-6.7-7.1-11.8-7.6-14-1.1-28-2.5-42-3.8-7.1-.6-14.2-1.5-21.3-1.3-5 .1-6.2 4-9 6.4-.2-10-.1-19.8-.3-29.5 0-2.3.4-3 2.8-2.9 5.4.3 11 .1 16.8.1 2.2 1.6 1.5 3.3.7 5-1 2-1.6 4-1.7 6.2-.2 5.5 2 8.5 7.5 9.4 9.5 1.5 19.1 2 28.7 3l7 .6c4.4.3 7.6-1.8 8.4-5.3.7-3.6-1.3-6.9-5.8-8.1-8-2.2-16.2-3.7-24.2-6-2-.7-4.9-.7-4.3-4.5 16-.3 31.7-.2 47.5-.4 2.3 0 2.8.5 2.8 2.8-.2 11.8-.1 23.6-.1 35.8z"></path><path fill="#000" d="M36.5 1c-.4 1.6.8 1.7 1.9 2l27 6c6.6 1.6 10 6.5 8.5 12.2-1.3 5-7 7.6-13.1 6.2-4.5-1-9.1-.5-13.7-1.2-6.6-1-13.4-1.6-20-2-9.9-.6-11.6-9-9.3-16.5.7-2.4 2.3-4.3 3.5-6.5C26 1 31 1 36.5 1z"></path><path d="M1 42.5c1.4-1.6 1.8 0 2.5.5 8 8 15.7 16.2 24.8 22.8-8.4.2-16.5 0-24.6.3-2.4 0-2.8-.5-2.8-2.8.2-6.8.1-13.6.1-20.8z"></path><path d="M70.5 66a2 2 0 0 1-1.1-.6c7.9-4.4 11.5-12.6 17.4-18.7.2 5.9.1 11.5.3 17 0 2-.5 2.4-2.3 2.3-4.6-.1-9.3 0-14.3 0z"></path><path d="m15.2 43.8-4.8-4.9c-.7-.8-2.1-1.5-.9-2.8 1-1 1.5-2 3.6-1.7 9.6 1.2 19.3 1.8 28.9 2.6l33.3 3c3.2.3 3.1 2.5 2.4 4.8A20.5 20.5 0 0 1 58.9 58c-6.3 0-12.7-.6-19 .1-7.3 1-12.5-2.3-17.3-7l-7.4-7.3z"></path><path d="m61.9 20-34.2-3c-2.8-.3-4.3-2.3-3.5-5 .5-1.9 1-4.6 4.5-3.8 11.3 2.8 22.7 5.4 34 8.3 1 .2 3.5-.2 3.2 2.1-.3 2.3-2.3 1-4 1.4z"></path></svg>