<svg width="13" height="10" viewBox="0 0 13 10" fill="none" xmlns="http://www.w3.org/2000/svg">
<g id="arrow-right-short 1">
<path id="Vector" fill-rule="evenodd" clip-rule="evenodd" d="M1.35425 5.58035C1.35425 5.41969 1.42201 5.26562 1.54262 5.15202C1.66324 5.03841 1.82683 4.97459 1.99741 4.97459H9.44903L6.68731 2.37468C6.56654 2.26093 6.49869 2.10666 6.49869 1.9458C6.49869 1.78494 6.56654 1.63067 6.68731 1.51693C6.80808 1.40318 6.97187 1.33928 7.14266 1.33928C7.31346 1.33928 7.47725 1.40318 7.59802 1.51693L11.457 5.15147C11.5169 5.20774 11.5644 5.27459 11.5968 5.34818C11.6292 5.42178 11.6459 5.50067 11.6459 5.58035C11.6459 5.66003 11.6292 5.73892 11.5968 5.81252C11.5644 5.88611 11.5169 5.95296 11.457 6.00923L7.59802 9.64378C7.47725 9.75752 7.31346 9.82142 7.14266 9.82142C6.97187 9.82142 6.80808 9.75752 6.68731 9.64378C6.56654 9.53003 6.49869 9.37576 6.49869 9.2149C6.49869 9.05404 6.56654 8.89977 6.68731 8.78602L9.44903 6.18611H1.99741C1.82683 6.18611 1.66324 6.12229 1.54262 6.00869C1.42201 5.89509 1.35425 5.74101 1.35425 5.58035Z" fill="#010101"/>
</g>
</svg>
