<svg width="15" height="25" viewBox="0 0 15 25" fill="none" xmlns="http://www.w3.org/2000/svg">
<path fill-rule="evenodd" clip-rule="evenodd" d="M0.520642 0.0993167C0.74288 -0.0120426 1.00025 -0.0305609 1.23614 0.0478352C1.47203 0.126231 1.66712 0.295121 1.7785 0.517352L7.40229 11.7649C7.4676 11.8953 7.50161 12.0391 7.50161 12.1848C7.50161 12.3306 7.4676 12.4744 7.40229 12.6048L1.7785 23.8523C1.72394 23.9634 1.64794 24.0625 1.55489 24.144C1.46184 24.2255 1.35358 24.2878 1.23635 24.3272C1.11911 24.3667 0.995226 24.3826 0.871829 24.3739C0.748433 24.3653 0.627966 24.3323 0.517376 24.2769C0.406786 24.2215 0.308259 24.1447 0.227477 24.051C0.146694 23.9574 0.0852531 23.8486 0.0466961 23.7311C0.00813902 23.6135 -0.0067713 23.4895 0.00282457 23.3662C0.0124204 23.2429 0.0463327 23.1227 0.102606 23.0125L5.51457 12.1848L0.102606 1.35717C-0.00875297 1.13493 -0.0272717 0.877561 0.0511244 0.64167C0.12952 0.405778 0.29841 0.210689 0.520642 0.0993167Z" fill="#2362C0"/>
<path fill-rule="evenodd" clip-rule="evenodd" d="M8.01893 0.0993167C8.24117 -0.0120426 8.49854 -0.0305609 8.73443 0.0478352C8.97033 0.126231 9.16541 0.295121 9.27679 0.517352L14.9006 11.7649C14.9659 11.8953 14.9999 12.0391 14.9999 12.1848C14.9999 12.3306 14.9659 12.4744 14.9006 12.6048L9.27679 23.8523C9.22223 23.9634 9.14623 24.0625 9.05318 24.144C8.96013 24.2255 8.85187 24.2878 8.73464 24.3272C8.6174 24.3667 8.49352 24.3826 8.37012 24.3739C8.24672 24.3653 8.12626 24.3323 8.01567 24.2769C7.90508 24.2215 7.80655 24.1447 7.72577 24.051C7.64498 23.9574 7.58354 23.8486 7.54499 23.7311C7.50643 23.6135 7.49152 23.4895 7.50112 23.3662C7.51071 23.2429 7.54462 23.1227 7.6009 23.0125L13.0129 12.1848L7.6009 1.35717C7.48954 1.13493 7.47102 0.877561 7.54942 0.64167C7.62781 0.405778 7.7967 0.210689 8.01893 0.0993167Z" fill="#2362C0"/>
</svg>