<svg width="28" height="24" viewBox="0 0 28 24" fill="none" xmlns="http://www.w3.org/2000/svg">
<g clip-path="url(#clip0_205_1336)">
<path d="M2.0946 12C2.09432 10.2521 2.56581 8.53486 3.46166 7.02101C4.35752 5.50715 5.64617 4.24999 7.19808 3.37591C8.74999 2.50182 10.5105 2.04162 12.3025 2.04155C14.0946 2.04148 15.8551 2.50155 17.4071 3.37552C17.6201 3.49366 17.8724 3.52481 18.1089 3.46219C18.3454 3.39956 18.5469 3.24823 18.6695 3.04123C18.792 2.83423 18.8256 2.58836 18.763 2.35727C18.7004 2.12619 18.5465 1.92865 18.3351 1.80776C16.0352 0.512606 13.3614 -0.00616771 10.7284 0.331894C8.0954 0.669956 5.65033 1.84596 3.7724 3.67753C1.89446 5.50909 0.688599 7.89386 0.341831 10.462C-0.00493692 13.0301 0.526765 15.6381 1.85448 17.8815C3.18219 20.1248 5.23171 21.8782 7.6852 22.8696C10.1387 23.8611 12.859 24.0352 15.4243 23.3651C17.9896 22.6949 20.2565 21.2178 21.8734 19.163C23.4904 17.1081 24.367 14.5903 24.3673 12C24.3673 11.7599 24.2696 11.5297 24.0955 11.3599C23.9215 11.1902 23.6854 11.0948 23.4393 11.0948C23.1932 11.0948 22.9571 11.1902 22.7831 11.3599C22.609 11.5297 22.5113 11.7599 22.5113 12C22.5113 14.6407 21.4358 17.1733 19.5213 19.0406C17.6069 20.9079 15.0104 21.9569 12.3029 21.9569C9.59552 21.9569 6.99899 20.9079 5.08455 19.0406C3.17012 17.1733 2.0946 14.6407 2.0946 12Z" fill="#2362C1"/>
<path d="M22.6551 4.1397C22.7261 4.06277 22.7824 3.97144 22.8208 3.87092C22.8592 3.77041 22.879 3.66268 22.879 3.55388C22.879 3.44508 22.8592 3.33735 22.8208 3.23684C22.7824 3.13632 22.7261 3.04499 22.6551 2.96806C22.5841 2.89113 22.4998 2.8301 22.4071 2.78847C22.3143 2.74683 22.2149 2.72541 22.1145 2.72541C22.0141 2.72541 21.9147 2.74683 21.8219 2.78847C21.7292 2.8301 21.6449 2.89113 21.5739 2.96806L11.4245 13.9679L6.62009 8.76006C6.54909 8.68313 6.46481 8.6221 6.37205 8.58047C6.27929 8.53883 6.17988 8.51741 6.07948 8.51741C5.87671 8.51741 5.68225 8.60469 5.53887 8.76006C5.39549 8.91543 5.31494 9.12615 5.31494 9.34588C5.31494 9.5656 5.39549 9.77633 5.53887 9.9317L10.8839 15.7237C10.9548 15.8008 11.0391 15.8619 11.1318 15.9036C11.2246 15.9453 11.324 15.9668 11.4245 15.9668C11.5249 15.9668 11.6244 15.9453 11.7171 15.9036C11.8099 15.8619 11.8942 15.8008 11.9651 15.7237L22.6551 4.1397ZM16.2289 15.7237L14.4243 13.9679L15.4968 13.0702L16.7695 13.9679L26.9189 2.96806C27.0623 2.81269 27.2567 2.72541 27.4595 2.72541C27.6623 2.72541 27.8567 2.81269 28.0001 2.96806C28.1435 3.12343 28.224 3.33415 28.224 3.55388C28.224 3.7736 28.1435 3.98433 28.0001 4.1397L17.3101 15.7237C17.2392 15.8008 17.1549 15.8619 17.0621 15.9036C16.9694 15.9453 16.8699 15.9668 16.7695 15.9668C16.669 15.9668 16.5696 15.9453 16.4768 15.9036C16.3841 15.8619 16.2998 15.8008 16.2289 15.7237Z" fill="#2362C0"/>
</g>
<defs>
<clipPath id="clip0_205_1336">
<rect width="28" height="24" fill="white"/>
</clipPath>
</defs>
</svg>