<svg width="12" height="12" viewBox="0 0 12 12" fill="none" xmlns="http://www.w3.org/2000/svg">
<g id="box-arrow-up-right 1" opacity="0.5" clip-path="url(#clip0_206_2317)">
<path id="Vector" fill-rule="evenodd" clip-rule="evenodd" d="M6.477 2.625C6.477 2.52554 6.43749 2.43016 6.36717 2.35984C6.29684 2.28951 6.20146 2.25 6.102 2.25H1.125C0.826631 2.25 0.540483 2.36853 0.329505 2.5795C0.118526 2.79048 0 3.07663 0 3.375L0 10.875C0 11.1734 0.118526 11.4595 0.329505 11.6705C0.540483 11.8815 0.826631 12 1.125 12H8.625C8.92337 12 9.20952 11.8815 9.4205 11.6705C9.63147 11.4595 9.75 11.1734 9.75 10.875V5.898C9.75 5.79854 9.71049 5.70316 9.64017 5.63283C9.56984 5.56251 9.47446 5.523 9.375 5.523C9.27554 5.523 9.18016 5.56251 9.10983 5.63283C9.03951 5.70316 9 5.79854 9 5.898V10.875C9 10.9745 8.96049 11.0698 8.89017 11.1402C8.81984 11.2105 8.72446 11.25 8.625 11.25H1.125C1.02554 11.25 0.930161 11.2105 0.859835 11.1402C0.789509 11.0698 0.75 10.9745 0.75 10.875V3.375C0.75 3.27554 0.789509 3.18016 0.859835 3.10984C0.930161 3.03951 1.02554 3 1.125 3H6.102C6.20146 3 6.29684 2.96049 6.36717 2.89016C6.43749 2.81984 6.477 2.72446 6.477 2.625Z" fill="black"/>
<path id="Vector_2" fill-rule="evenodd" clip-rule="evenodd" d="M12 0.375C12 0.275544 11.9605 0.180161 11.8902 0.109835C11.8198 0.0395088 11.7244 0 11.625 0L7.87499 0C7.77553 0 7.68015 0.0395088 7.60982 0.109835C7.53949 0.180161 7.49999 0.275544 7.49999 0.375C7.49999 0.474456 7.53949 0.569839 7.60982 0.640165C7.68015 0.710491 7.77553 0.75 7.87499 0.75H10.7197L4.60949 6.8595C4.57462 6.89437 4.54696 6.93576 4.52809 6.98131C4.50922 7.02687 4.49951 7.07569 4.49951 7.125C4.49951 7.17431 4.50922 7.22313 4.52809 7.26869C4.54696 7.31424 4.57462 7.35563 4.60949 7.3905C4.64435 7.42537 4.68574 7.45302 4.7313 7.47189C4.77685 7.49076 4.82568 7.50047 4.87499 7.50047C4.92429 7.50047 4.97312 7.49076 5.01867 7.47189C5.06423 7.45302 5.10562 7.42537 5.14049 7.3905L11.25 1.28025V4.125C11.25 4.22446 11.2895 4.31984 11.3598 4.39016C11.4301 4.46049 11.5255 4.5 11.625 4.5C11.7244 4.5 11.8198 4.46049 11.8902 4.39016C11.9605 4.31984 12 4.22446 12 4.125V0.375Z" fill="black"/>
</g>
<defs>
<clipPath id="clip0_206_2317">
<rect width="12" height="12" fill="white"/>
</clipPath>
</defs>
</svg>
