<svg width="16" height="16" viewBox="0 0 16 16" xmlns="http://www.w3.org/2000/svg">
<path d="M7.47495 11.8888H8.64161V7.22217H7.47495V11.8888ZM7.99995 5.78328C8.18143 5.78328 8.33374 5.72495 8.45689 5.60828C8.58004 5.49161 8.64161 5.34254 8.64161 5.16106C8.64161 4.97958 8.58004 4.82402 8.45689 4.69439C8.33374 4.56476 8.18143 4.49995 7.99995 4.49995C7.81846 4.49995 7.66615 4.56476 7.543 4.69439C7.41985 4.82402 7.35828 4.97958 7.35828 5.16106C7.35828 5.34254 7.41985 5.49161 7.543 5.60828C7.66615 5.72495 7.81846 5.78328 7.99995 5.78328ZM7.99995 15.7777C6.93698 15.7777 5.93235 15.5736 4.98606 15.1652C4.03976 14.7569 3.21337 14.1995 2.50689 13.493C1.80041 12.7865 1.243 11.9601 0.834668 11.0138C0.426335 10.0675 0.222168 9.05643 0.222168 7.9805C0.222168 6.91754 0.426335 5.91291 0.834668 4.96661C1.243 4.02032 1.80041 3.19717 2.50689 2.49717C3.21337 1.79717 4.03976 1.243 4.98606 0.834668C5.93235 0.426335 6.94346 0.222168 8.01939 0.222168C9.08235 0.222168 10.087 0.426335 11.0333 0.834668C11.9796 1.243 12.8027 1.79717 13.5027 2.49717C14.2027 3.19717 14.7569 4.02032 15.1652 4.96661C15.5736 5.91291 15.7777 6.92402 15.7777 7.99995C15.7777 9.06291 15.5736 10.0675 15.1652 11.0138C14.7569 11.9601 14.2027 12.7865 13.5027 13.493C12.8027 14.1995 11.9796 14.7569 11.0333 15.1652C10.087 15.5736 9.07587 15.7777 7.99995 15.7777ZM8.01939 14.6111C9.84717 14.6111 11.4027 13.9662 12.6861 12.6763C13.9694 11.3865 14.6111 9.82124 14.6111 7.9805C14.6111 6.15272 13.9694 4.59717 12.6861 3.31383C11.4027 2.0305 9.84069 1.38883 7.99995 1.38883C6.17217 1.38883 4.61337 2.0305 3.32356 3.31383C2.03374 4.59717 1.38883 6.1592 1.38883 7.99995C1.38883 9.82772 2.03374 11.3865 3.32356 12.6763C4.61337 13.9662 6.17865 14.6111 8.01939 14.6111Z" fill="#025AA1"/>
</svg>
