<svg width="17" height="17" viewBox="0 0 17 17" fill="none" xmlns="http://www.w3.org/2000/svg">
<g clip-path="url(#clip0_205_1235)">
<path d="M8.42917 17C6.0838 17 4.09259 16.1697 2.45556 14.509C0.818518 12.8484 0 10.8375 0 8.47639H1.41667C1.41667 10.444 2.09352 12.1204 3.44722 13.5056C4.80093 14.8907 6.46157 15.5833 8.42917 15.5833C10.4282 15.5833 12.1204 14.8829 13.5056 13.4819C14.8907 12.081 15.5833 10.381 15.5833 8.38194C15.5833 6.43009 14.8829 4.78125 13.4819 3.43542C12.081 2.08958 10.3968 1.41667 8.42917 1.41667C7.3588 1.41667 6.35532 1.66065 5.41875 2.14861C4.48218 2.63657 3.66759 3.28194 2.975 4.08472H5.45417V5.50139H0.519444V0.590278H1.93611V3.09306C2.75463 2.13287 3.72662 1.37731 4.85208 0.826389C5.97755 0.275463 7.16991 0 8.42917 0C9.60972 0 10.7194 0.22037 11.7583 0.661111C12.7972 1.10185 13.7063 1.70394 14.4854 2.46736C15.2646 3.23079 15.8785 4.12407 16.3271 5.14722C16.7757 6.17037 17 7.27222 17 8.45278C17 9.63333 16.7757 10.7431 16.3271 11.7819C15.8785 12.8208 15.2646 13.7259 14.4854 14.4972C13.7063 15.2685 12.7972 15.8785 11.7583 16.3271C10.7194 16.7757 9.60972 17 8.42917 17ZM11.4514 12.3486L7.81528 8.75972V3.70694H9.23195V8.16945L12.4667 11.3333L11.4514 12.3486Z" fill="black"/>
</g>
<defs>
<clipPath id="clip0_205_1235">
<rect width="17" height="17" fill="white"/>
</clipPath>
</defs>
</svg>
