<svg xmlns="http://www.w3.org/2000/svg" viewBox="177.5 53.2 287 322.18" xml:space="preserve"><path fill="#2D374B" d="m357.3 200.8 23.7-40.1 63.8 99.3v19.1l-.2-131.2a9.9 9.9 0 0 0-4.6-7.9L325.2 74a10.1 10.1 0 0 0-9.8.6l-.4.3-111.5 64.6-.4.2c-.6.2-1.2.5-1.7 1a9.9 9.9 0 0 0-4.1 7.3l.2 107 59.4-92.1c7.5-12.2 23.8-16.2 38.9-16l17.8.5-104.7 167.8 12.4 7L327 147.7l46.8-.2-105.6 179.1 44 25.3 5.3 3c2.2 1 4.8 1 7 .2L441 287.6l-22.2 13-61.6-99.7zm9 130L322 261.2l27.1-46 58.4 92-41 23.8z"/><path fill="#28A0F0" d="m321.9 261.1 44.4 69.8 41.1-23.8-58.4-92z"/><path fill="#28A0F0" d="M444.8 279.1v-19L381 160.6l-23.7 40.1 61.6 99.6 22.2-12.9a9.9 9.9 0 0 0 3.7-7.2V279z"/><path fill="#FFF" d="m177.5 297 31.4 18.2 104.7-167.8-17.8-.5c-15.1-.2-31.4 3.8-39 16l-59.3 92-20 30.8V297z"/><path fill="#FFF" d="m373.9 147.4-46.8.2-105.8 174.7 37 21.3 10-17.1z"/><path fill="#96BEDC" d="M464.5 147.2a29.8 29.8 0 0 0-14-24L334.2 56.3a30.3 30.3 0 0 0-26.7 0 90105.1 90105.1 0 0 0-117.6 68.2 29.6 29.6 0 0 0-12.4 22.6v138.6l20-30.7-.2-107a9.8 9.8 0 0 1 4.1-7.4l115-66.6c2.7-1.3 6-1.3 8.8 0L440 140a9.9 9.9 0 0 1 4.6 7.9v132.4a9.7 9.7 0 0 1-3.5 7.2l-22.2 13-11.5 6.6-41 23.8-41.7 24.1a10 10 0 0 1-7.1-.1l-49.3-28.4-10 17.1 44.2 25.5a1045.3 1045.3 0 0 0 7 4 31.4 31.4 0 0 0 22.7.3l121-70c6.9-5.4 11-13.5 11.3-22.3V147z"/></svg>