<svg fill="none" xmlns="http://www.w3.org/2000/svg" viewBox="0 0 1503 1504"><path fill="#fff" d="M287 258h928v844H287z"/><path fill-rule="evenodd" clip-rule="evenodd" d="M1502.5 752a751 751 0 1 1-1502 0 751 751 0 0 1 1502 0Zm-963.8 298.9H392.9c-30.6 0-45.7 0-55-6a37 37 0 0 1-16.7-29c-.6-10.8 7-24 22.1-50.6l359.9-634.4c15.3-26.9 23-40.4 32.8-45.3 10.5-5.4 23-5.4 33.6 0 9.8 5 17.5 18.4 32.8 45.3l74 129.2.4.6c16.5 29 25 43.6 28.6 59 4 16.8 4 34.5 0 51.3-3.7 15.5-12 30.2-28.8 59.5l-189 334.2-.5.9c-16.7 29-25.1 43.9-36.8 55a110 110 0 0 1-44.8 26c-15.3 4.3-32.5 4.3-66.8 4.3Zm368 0h208.9c30.8 0 46.3 0 55.5-6.1a37 37 0 0 0 16.8-29.2c.5-10.5-6.9-23.3-21.4-48.3l-1.5-2.6-104.6-179-1.2-2c-14.7-24.8-22-37.4-31.6-42.2a36.7 36.7 0 0 0-33.4 0c-9.6 5-17.3 18-32.7 44.4L857.3 965l-.4.6c-15.2 26.3-22.8 39.5-22.3 50.3a37.4 37.4 0 0 0 16.8 29.2c9 5.9 24.5 5.9 55.4 5.9Z" fill="#E84142"/></svg>