<svg version="1.0" xmlns="http://www.w3.org/2000/svg" viewBox="169.1 68.9 461.4 461.4" xml:space="preserve"><g fill-rule="evenodd" clip-rule="evenodd"><circle cx="399.8" cy="299.6" r="230.7" fill="#f3ba2f"/><path d="m459.63 324.13 34.8 34.7-94.6 94.5-94.5-94.5 34.8-34.7 59.7 59.7 59.8-59.7zm-59.8-59.8 35.3 35.3-35.3 35.3-35.2-35.2v-.1l6.2-6.2 3-3 26-26.1zm-119 .5 34.8 34.8-34.8 34.7-34.8-34.8 34.8-34.7zm238 0 34.8 34.8-34.8 34.7-34.8-34.8 34.8-34.7zm-119-119 94.5 94.5-34.8 34.8-59.7-59.8-59.7 59.7-34.8-34.7 94.5-94.5z" fill="#FFF"/></g></svg>