<svg xmlns="http://www.w3.org/2000/svg" viewBox="0 0 950 950"><path d="M375 850a275 275 0 100-550 275 275 0 000 550zm0 100a375 375 0 110-750 375 375 0 010 750z" fill="#fbcc5c"/><path d="M575 650a275 275 0 100-550 275 275 0 000 550zm0 100a375 375 0 110-750 375 375 0 010 750z" fill="#35d07f"/><path d="M587.4 750a274.4 274.4 0 0054.5-108A274.4 274.4 0 00750 587.3a373.6 373.6 0 01-29.2 133.4A373.6 373.6 0 01587.4 750zM308 308A274.4 274.4 0 00200 362.7a373.6 373.6 0 0129.2-133.4A373.6 373.6 0 01362.6 200a274.4 274.4 0 00-54.5 108z" fill="#5ea33b"/></svg>