<svg xmlns="http://www.w3.org/2000/svg" viewBox="0 0 2500 2500"><circle cx="1250" cy="1250" r="1250" style="fill:#2e3148;--darkreader-inline-fill:#c3beb6"/><circle cx="1250" cy="1250" r="725.3" style="fill:#1b1e36;--darkreader-inline-fill:#cecac4"/><path d="M1252.6 159.5c-135 0-244.4 489.4-244.4 1093s109.4 1093.2 244.4 1093.2 244.3-489.4 244.3-1093.1-109.4-1093.1-244.3-1093.1Zm16.8 2124.5c-15.4 20.6-30.8 5.1-30.8 5.1-62.2-72-93.2-205.7-93.2-205.7-108.7-349.8-82.8-1100.8-82.8-1100.8 51-596.3 144-737.1 175.6-768.4a19.3 19.3 0 0 1 24.7-2c45.9 32.5 84.4 168.5 84.4 168.5 113.6 421.8 103.3 817.9 103.3 817.9 10.3 344.6-57 730.4-57 730.4-51.7 293.2-124.2 355-124.2 355Z" style="fill:#6f7390;--darkreader-inline-fill:#988f81"/><path d="M2200.7 708.6c-67.2-117-546 31.6-1070 332s-893.5 638.9-826.3 756 546-31.7 1070-332 893.4-639 826.3-756ZM366.4 1780.5c-25.8-3.3-20-24.4-20-24.4 31.6-89.7 132-183.3 132-183.3 249.4-268.3 913.8-619.6 913.8-619.6 542.5-252.4 711-241.8 753.8-230a19.3 19.3 0 0 1 14 20.6c-5.1 56-104.2 157-104.2 157-309 308.6-657.8 496.8-657.8 496.8-293.8 180.5-662 314-662 314-280 101-369.6 68.8-369.6 68.8Z" style="fill:#6f7390;--darkreader-inline-fill:#988f81"/><path d="M2198.3 1800.4c67.7-116.8-300.9-456.8-823-759.5S374.4 587.8 306.8 704.7s301 456.8 823.3 759.5 1000.6 453.2 1068.3 336.2ZM351.6 750c-10-23.8 11.2-29.5 11.2-29.5 93.4-17.6 224.7 22.6 224.7 22.6 357.1 81.3 994 480.3 994 480.3 490.3 343 565.5 494.2 576.8 537a19.3 19.3 0 0 1-10.7 22.5c-51.1 23.4-188-11.5-188-11.5-422.1-113.1-759.7-320.5-759.7-320.5-303.3-163.6-603.2-415.3-603.2-415.3-227.9-191.8-245-285.4-245-285.4Z" style="fill:#6f7390;--darkreader-inline-fill:#988f81"/><circle cx="1250" cy="1250" r="128.6" style="fill:#b7b9c8;--darkreader-inline-fill:#c0bab2"/><ellipse cx="1777.3" cy="756.2" rx="74.6" ry="77.2" style="fill:#b7b9c8;--darkreader-inline-fill:#c0bab2"/><ellipse cx="553" cy="1018.5" rx="74.6" ry="77.2" style="fill:#b7b9c8;--darkreader-inline-fill:#c0bab2"/><ellipse cx="1098.3" cy="1965" rx="74.6" ry="77.2" style="fill:#b7b9c8;--darkreader-inline-fill:#c0bab2"/></svg>