<svg width="100%" height="100%" viewBox="0 0 100 100" fill="none" xmlns="http://www.w3.org/2000/svg">
<path d="M44.01 83.75a2.257 2.257 0 1 0 0-4.514 2.257 2.257 0 0 0 0 4.514ZM42.692 93.125a3.282 3.282 0 1 0 0-6.563 3.282 3.282 0 0 0 0 6.563ZM50.325 89.307a2.532 2.532 0 1 0 0-5.065 2.532 2.532 0 0 0 0 5.065ZM50.108 100a3.792 3.792 0 1 0 0-7.583 3.792 3.792 0 0 0 0 7.583ZM32.414 79.065a2.257 2.257 0 1 0 0-4.514 2.257 2.257 0 0 0 0 4.514ZM28 87.293a3.282 3.282 0 1 0 0-6.563 3.282 3.282 0 0 0 0 6.563ZM36.228 86.635a2.532 2.532 0 1 0 0-5.065 2.532 2.532 0 0 0 0 5.065ZM32.419 96.524a3.792 3.792 0 1 0 0-7.583 3.792 3.792 0 0 0 0 7.583ZM23.495 70.294a2.257 2.257 0 1 0 0-4.514 2.257 2.257 0 0 0 0 4.514ZM16.656 76.289a3.282 3.282 0 1 0 0-6.563 3.282 3.282 0 0 0 0 6.563ZM24.226 78.767a2.532 2.532 0 1 0 0-5.065 2.532 2.532 0 0 0 0 5.065ZM17.405 86.544a3.792 3.792 0 1 0 0-7.583 3.792 3.792 0 0 0 0 7.583ZM18.61 58.775a2.257 2.257 0 1 0 0-4.514 2.257 2.257 0 0 0 0 4.514ZM10.39 61.777a3.282 3.282 0 1 0 0-6.564 3.282 3.282 0 0 0 0 6.564ZM16.146 66.909a2.532 2.532 0 1 0 0-5.065 2.532 2.532 0 0 0 0 5.065ZM7.353 71.576a3.792 3.792 0 1 0 0-7.583 3.792 3.792 0 0 0 0 7.583ZM18.502 46.267a2.257 2.257 0 1 0 0-4.514 2.257 2.257 0 0 0 0 4.514ZM10.156 45.974a3.281 3.281 0 1 0 0-6.563 3.281 3.281 0 0 0 0 6.563ZM13.226 52.857a2.532 2.532 0 1 0 0-5.064 2.532 2.532 0 0 0 0 5.064ZM3.792 53.9a3.792 3.792 0 1 0 0-7.583 3.792 3.792 0 0 0 0 7.583ZM23.192 34.67a2.257 2.257 0 1 0 0-4.513 2.257 2.257 0 0 0 0 4.514ZM15.984 31.281a3.282 3.282 0 1 0 0-6.563 3.282 3.282 0 0 0 0 6.563ZM15.898 38.76a2.532 2.532 0 1 0 0-5.064 2.532 2.532 0 0 0 0 5.065ZM7.267 36.21a3.792 3.792 0 1 0 0-7.583 3.792 3.792 0 0 0 0 7.583ZM31.963 25.752a2.257 2.257 0 1 0 0-4.514 2.257 2.257 0 0 0 0 4.514ZM26.993 19.938a3.282 3.282 0 1 0 0-6.563 3.282 3.282 0 0 0 0 6.563ZM23.765 26.758a2.532 2.532 0 1 0 0-5.064 2.532 2.532 0 0 0 0 5.064ZM17.247 21.197a3.792 3.792 0 1 0 0-7.583 3.792 3.792 0 0 0 0 7.583ZM43.477 20.868a2.257 2.257 0 1 0 0-4.514 2.257 2.257 0 0 0 0 4.514ZM41.505 13.672a3.282 3.282 0 1 0 0-6.563 3.282 3.282 0 0 0 0 6.563ZM35.623 18.678a2.532 2.532 0 1 0 0-5.064 2.532 2.532 0 0 0 0 5.064ZM32.215 11.145a3.792 3.792 0 1 0 0-7.583 3.792 3.792 0 0 0 0 7.583ZM55.985 20.76a2.257 2.257 0 1 0 0-4.515 2.257 2.257 0 0 0 0 4.514ZM57.308 13.438a3.282 3.282 0 1 0 0-6.563 3.282 3.282 0 0 0 0 6.563ZM49.67 15.758a2.532 2.532 0 1 0 0-5.065 2.532 2.532 0 0 0 0 5.065ZM49.887 7.583a3.792 3.792 0 1 0 0-7.583 3.792 3.792 0 0 0 0 7.583ZM67.586 25.45a2.257 2.257 0 1 0 0-4.515 2.257 2.257 0 0 0 0 4.514ZM72 19.265a3.282 3.282 0 1 0 0-6.563 3.282 3.282 0 0 0 0 6.563ZM63.772 18.43a2.532 2.532 0 1 0 0-5.064 2.532 2.532 0 0 0 0 5.064ZM67.582 11.059a3.792 3.792 0 1 0 0-7.583 3.792 3.792 0 0 0 0 7.583ZM76.505 34.22a2.257 2.257 0 1 0 0-4.514 2.257 2.257 0 0 0 0 4.514ZM83.34 30.274a3.282 3.282 0 1 0 0-6.563 3.282 3.282 0 0 0 0 6.563ZM75.774 26.298a2.532 2.532 0 1 0 0-5.065 2.532 2.532 0 0 0 0 5.065ZM82.595 21.04a3.792 3.792 0 1 0 0-7.584 3.792 3.792 0 0 0 0 7.583ZM81.39 45.734a2.257 2.257 0 1 0 0-4.514 2.257 2.257 0 0 0 0 4.514ZM89.61 44.786a3.282 3.282 0 1 0 0-6.563 3.282 3.282 0 0 0 0 6.563ZM83.85 38.156a2.532 2.532 0 1 0 0-5.065 2.532 2.532 0 0 0 0 5.065ZM92.647 36.007a3.792 3.792 0 1 0 0-7.583 3.792 3.792 0 0 0 0 7.583ZM81.493 58.242a2.257 2.257 0 1 0 0-4.514 2.257 2.257 0 0 0 0 4.514ZM89.844 60.59a3.282 3.282 0 1 0 0-6.564 3.282 3.282 0 0 0 0 6.563ZM86.774 52.203a2.532 2.532 0 1 0 0-5.065 2.532 2.532 0 0 0 0 5.065ZM96.208 53.679a3.792 3.792 0 1 0 0-7.584 3.792 3.792 0 0 0 0 7.584ZM76.803 69.843a2.257 2.257 0 1 0 0-4.514 2.257 2.257 0 0 0 0 4.514ZM84.012 75.282a3.282 3.282 0 1 0 0-6.563 3.282 3.282 0 0 0 0 6.563ZM84.102 66.304a2.532 2.532 0 1 0 0-5.065 2.532 2.532 0 0 0 0 5.065ZM92.733 71.373a3.792 3.792 0 1 0 0-7.583 3.792 3.792 0 0 0 0 7.583ZM68.037 78.762a2.257 2.257 0 1 0 0-4.514 2.257 2.257 0 0 0 0 4.514ZM73.007 86.62a3.282 3.282 0 1 0 0-6.562 3.282 3.282 0 0 0 0 6.563ZM76.235 78.306a2.532 2.532 0 1 0 0-5.064 2.532 2.532 0 0 0 0 5.064ZM82.753 86.386a3.792 3.792 0 1 0 0-7.583 3.792 3.792 0 0 0 0 7.583ZM56.518 83.646a2.257 2.257 0 1 0 0-4.514 2.257 2.257 0 0 0 0 4.514ZM58.495 92.89a3.282 3.282 0 1 0 0-6.563 3.282 3.282 0 0 0 0 6.564ZM64.377 86.382a2.532 2.532 0 1 0 0-5.065 2.532 2.532 0 0 0 0 5.065ZM67.785 96.439a3.792 3.792 0 1 0 0-7.584 3.792 3.792 0 0 0 0 7.584Z" fill="#ff4301"></path>
</svg>