<svg xmlns="http://www.w3.org/2000/svg" viewBox="184.82 186.46 121.25 133.56"><defs><linearGradient id="a" x1="0" x2="33.36" y1="18.15" y2="18.15" gradientTransform="matrix(3.45 0 0 3.45 184.81 204.12)" gradientUnits="userSpaceOnUse"><stop stop-color="#0082FA"/><stop offset="1" stop-color="#00F2FE"/></linearGradient><linearGradient id="b" x1="0" x2="33.36" y1="15.21" y2="15.21" gradientTransform="matrix(3.45 0 0 3.45 184.81 204.12)" gradientUnits="userSpaceOnUse"><stop stop-color="#0082FA"/><stop offset="1" stop-color="#00F2FE"/></linearGradient></defs><path fill="url(#a)" d="m198.76 224 2.27-2.62.14-.1.28-.21.07-.1c.51-.5 1.07-1 1.72-1.46a23.23 23.23 0 0 1 31.2 1.63c9.8 9.18 8.94 23.98 1.1 33.82-9.86 14.67-26.91 35.13-3.34 53.5 4.24 3.27 7.35 6 20.7 9.86-8.72 1.6-16.8 1.1-25.8-1.2-6.36-3.6-16.37-11.29-19.78-21.68-5.18-15.77 9.07-39.3 15.9-48.39 9.46-12.56-5.83-26.12-17.04-10.97-5.87 7.94-16.16 30.3-12.57 46.9 2.07 9.42 4.83 16.26 15.88 25.68a50.8 50.8 0 0 1-5.94-4.1 58.19 58.19 0 0 1-4.8-80.56Z"/><path fill="url(#b)" d="m286 299.38-2.24 2.62-.14.07-.24.24-.07.07a25.91 25.91 0 0 1-8.94 5.42 23.22 23.22 0 0 1-24.02-5.53c-9.8-9.21-8.94-24.02-1.1-33.85 9.9-14.67 26.92-35.14 3.35-53.5-4.25-3.28-7.39-6-20.71-9.87 8.73-1.59 16.8-1.1 25.81 1.21 6.36 3.59 16.36 11.29 19.78 21.67 5.18 15.74-9.08 39.31-15.91 48.4-9.46 12.52 5.8 26.12 17.05 10.93 5.87-7.9 16.12-30.27 12.56-46.87-2.07-9.42-4.83-16.29-15.87-25.7 2.03 1.2 4 2.58 5.93 4.13a58.19 58.19 0 0 1 4.76 80.56Z"/><g><path fill="#343434" d="m282.57 186.74-.45 1.55v44.92l.45.46 20.86-12.33z"/><path fill="#8C8C8C" d="m282.57 186.74-20.85 34.6 20.85 12.33v-21.8z"/><path fill="#3C3C3B" d="m282.57 237.62-.26.31v16l.26.76 20.87-29.4z"/><path fill="#8C8C8C" d="M282.57 254.69v-17.07l-20.85-12.32z"/><path fill="#141414" d="m282.57 233.67 20.86-12.33-20.86-9.48z"/><path fill="#393939" d="m261.72 221.34 20.85 12.33v-21.8z"/></g></svg>