<svg version="1.0" xmlns="http://www.w3.org/2000/svg" viewBox="0 1.61 487.64 436.39"><path d="M278 2.1c-51.9 4.3-98.8 37-122.6 85.4-10.8 22.1-16 41.7-17.1 64-.5 12.1-.4 13.2 1.5 15.5l2 2.5 147.7.3 147.6.2 3-2.9c3.4-3.4 3.5-5.6 1.8-22.2-5.2-51.3-33.7-97-76.2-122.3C339.1 6.7 308.6-.4 278 2.1z" fill="#53cbc8"/><path d="M74.9 200.9c-2.3 2.3-2.9 3.8-2.9 7.1 0 5.6 3.4 9 9 9s9-3.4 9-9c0-5.3-4.2-10-9-10-2.2 0-4.1.9-6.1 2.9z" fill="#e1147b"/><path d="M108.7 200c-4.7 3.7-4.4 13.5.4 16 1.1.6 68.4 1 181.7 1h179.9l2.1-2.3c4.6-4.9 3.2-13.6-2.4-15.7-1.6-.6-69.7-1-180.8-1-178.1 0-178.3 0-180.9 2z" fill="#e1147b"/><path d="M5.3 243c-2.5 1-5.3 5.8-5.3 9 0 3.8 2.8 7.8 6.3 8.9 6.4 2.1 12.2-2.2 12.2-9.1 0-3.3-.6-4.5-3.3-6.9-3.3-3-6-3.5-9.9-1.9z" fill="#e1147b"/><path d="M37.9 243.5c-5.5 3-6.1 11-1.3 15.6l2.6 2.4 130.8.3c82.4.1 131.8-.1 133.4-.7 3.4-1.4 5.8-5.3 5.8-9.8 0-2.9-.7-4.3-3.1-6.5L303 242H171.7c-111.4.1-131.6.3-133.8 1.5z" fill="#e1147b"/><path d="M77.4 287c-5.6 2.3-7.2 10.8-3 15.7a8.9 8.9 0 0 0 13.2 0c6.5-7.6-1.3-19.5-10.2-15.7z" fill="#e1147b"/><path d="M110.1 287.4c-6.8 3.8-6.4 14.6.6 17.5 2.1.8 43.1 1.1 160.6.9l157.9-.3 2.4-2.8c3.5-4.1 3.3-9.9-.5-13.8l-2.9-2.9H270.3c-129.1.1-158.2.3-160.2 1.4z" fill="#e1147b"/><path d="M24.5 330.9c-3.7 1.6-6 5.1-6 9.3 0 3.3.6 4.5 3.3 6.9 1.8 1.6 4.1 2.9 5.2 2.9 5.3 0 10-4.9 10-10.4 0-3.2-4.6-8.4-8-9-1.4-.3-3.4-.1-4.5.3z" fill="#e1147b"/><path d="M57.4 331c-4.7 1.9-6.9 9.2-4.4 14.1 2.7 4.9 2.5 4.9 69.5 4.9s66.8 0 69.5-4.9c2.6-4.9-.1-12.2-5.1-14-3.9-1.3-126.2-1.4-129.5-.1z" fill="#e1147b"/><path d="M217.4 331c-5.6 2.3-7.2 10.8-3 15.7l2.4 2.8 132.1.3 132 .2 3.3-2.9c4.4-3.9 4.6-9.8.5-13.8l-2.7-2.8-131.3-.2c-72.7-.1-132.2.2-133.3.7z" fill="#e1147b"/><path d="M235.3 375.5c-6.1 2.6-7.4 10.6-2.4 15.6 4 3.9 8.2 3.9 12.2 0 5-5.1 3.7-13-2.6-15.7-4-1.6-3.2-1.7-7.2.1z" fill="#e1147b"/><path d="M268.3 375.5c-3.7 1.6-5.3 4.2-5.3 8.5 0 4.2 1.5 6.7 5 8.5 2.5 1.3 13.6 1.5 83.7 1.5 78.3 0 80.9-.1 84-2 6.1-3.7 5.3-13.8-1.3-16.6-4.9-2.1-161.4-2-166.1.1z" fill="#e1147b"/><path d="M135.5 421.5c-5.7 5.6-1.6 16.5 6.2 16.5 8.9 0 12.6-12.2 5.4-17.7-2.8-2.2-8.9-1.6-11.6 1.2z" fill="#e1147b"/><path d="M170.2 419.7c-1.9.7-4.2 5.8-4.2 9.3 0 2.1.9 4.1 2.9 6.1l2.9 2.9h165.1l2.6-2.3c1.7-1.4 2.8-3.6 3.2-6.3.4-3.3.1-4.5-2.2-7.2l-2.7-3.2-83.1.1c-45.8 0-83.8.3-84.5.6z" fill="#e1147b"/></svg>