<svg
    width="1260"
    height="1260"
    viewBox="0 0 1260 1260"
    fill="none"
    xmlns="http://www.w3.org/2000/svg"
  >
    <path
      d="M1045.75 800.203V238.213C1044.71 191.163 1007.59 153.522 960.54 153.522H373.979C247.466 155.614 145.523 259.124 145.523 386.16C145.523 429.028 157.025 465.623 174.799 498.036C189.437 524.697 212.962 549.791 235.965 569.134C242.238 574.362 239.101 572.271 258.967 584.817C286.674 601.546 318.041 609.911 318.041 609.911V946.06C318.564 961.743 320.655 977.427 324.315 991.542C337.384 1038.59 370.32 1075.19 414.756 1092.96C433.576 1100.28 454.487 1105.51 476.967 1105.51L945.38 1107.08C1038.96 1107.08 1114.76 1031.27 1114.76 937.695C1114.76 880.712 1087.58 831.048 1045.75 800.203Z"
      fill="#FFEEDA"
    />
    <path
      d="M1056.73 940.309C1054.64 1000.43 1005.5 1048.52 945.377 1048.52L622.82 1047.48C648.437 1017.68 664.12 978.995 664.12 937.172C664.12 870.779 624.389 825.297 624.389 825.297H945.377C1007.06 825.297 1056.73 875.484 1056.73 937.172V940.309Z"
      fill="#EBC28E"
    />
    <path
      d="M265.763 520.516C228.645 485.489 202.506 440.007 202.506 385.638V379.887C205.643 287.878 281.446 213.643 373.456 210.506H960.017C975.177 211.029 987.724 222.007 987.724 237.691V733.811C1001.32 736.424 1007.59 737.993 1020.66 742.698C1030.59 746.357 1045.23 754.722 1045.23 754.722V237.691C1044.18 190.64 1007.07 153 960.017 153H373.456C246.942 155.091 145 258.602 145 385.638C145 459.35 178.458 522.607 233.873 567.043C237.532 570.18 241.192 573.839 251.125 573.839C268.376 573.839 280.4 560.247 279.878 545.086C279.355 532.54 274.127 527.834 265.763 520.516Z"
      fill="#190602"
    />
    <path
      d="M945.381 767.268H485.333C454.489 767.268 429.395 792.884 429.395 823.728V889.599C430.441 919.92 456.58 946.582 486.901 946.582H520.882V889.599H486.901V824.774C486.901 824.774 495.266 824.774 505.721 824.774C563.75 824.774 606.618 878.62 606.618 936.649C606.618 987.881 560.091 1053.23 482.196 1048C412.666 1043.3 375.549 981.608 375.549 936.649V375.704C375.549 350.611 355.16 329.699 329.544 329.699H283.539V387.205H317.52V936.649C315.952 1048.52 396.983 1104.98 481.673 1104.98L945.381 1106.55C1038.96 1106.55 1114.76 1030.75 1114.76 937.172C1114.76 843.594 1038.96 767.268 945.381 767.268ZM1056.73 940.308C1054.64 1000.43 1005.5 1048.52 945.381 1048.52L622.824 1047.48C648.441 1017.68 664.124 978.994 664.124 937.172C664.124 870.778 624.393 825.296 624.393 825.296H945.381C1007.07 825.296 1056.73 875.483 1056.73 937.172V940.308Z"
      fill="#190602"
    />
    <path
      d="M825.139 397.139H474.875V340.156H825.139C839.254 340.156 850.232 351.657 850.232 365.25V372.046C850.232 386.161 838.731 397.139 825.139 397.139Z"
      fill="#190602"
    />
    <path
      d="M825.139 667.419H474.875V610.436H825.139C839.254 610.436 850.232 621.937 850.232 635.529V642.325C850.232 655.918 838.731 667.419 825.139 667.419Z"
      fill="#190602"
    />
    <path
      d="M885.785 532.54H474.355V475.557H885.785C899.9 475.557 910.878 487.058 910.878 500.65V507.446C911.401 521.039 899.9 532.54 885.785 532.54Z"
      fill="#190602"
    />
  </svg>