<svg xmlns="http://www.w3.org/2000/svg" fill="none" viewBox="0 0 1260 1260"><path fill="#FFEEDA" d="M1045.8 800.2v-562c-1-47-38.2-84.7-85.3-84.7H374a232.6 232.6 0 0 0-228.5 232.7c0 42.8 11.5 79.4 29.3 111.8a265.9 265.9 0 0 0 61.2 71.1c6.2 5.3 3.1 3.2 23 15.7 27.7 16.7 59 25.1 59 25.1v336.2a212 212 0 0 0 6.3 45.4c13 47 46 83.7 90.5 101.5a171.3 171.3 0 0 0 62.2 12.5l468.4 1.6c93.6 0 169.4-75.8 169.4-169.4 0-57-27.2-106.7-69-137.5Z"/><path fill="#EBC28E" d="M1056.7 940.3a111.8 111.8 0 0 1-111.3 108.2l-322.6-1a169.2 169.2 0 0 0 41.3-110.3c0-66.4-39.7-111.9-39.7-111.9h321c61.7 0 111.3 50.2 111.3 111.9v3.1Z"/><path fill="#190602" d="M265.8 520.5c-37.2-35-63.3-80.5-63.3-134.9V380c3.1-92 79-166.3 171-169.4H960c15.2.5 27.7 11.5 27.7 27.2v496.1c13.6 2.6 19.9 4.2 33 8.9 9.9 3.7 24.5 12 24.5 12v-517c-1-47-38.1-84.7-85.2-84.7H373.5A232.6 232.6 0 0 0 145 385.6c0 73.8 33.5 137 88.9 181.4 3.6 3.2 7.3 6.8 17.2 6.8a28 28 0 0 0 28.8-28.7c-.5-12.6-5.8-17.3-14.1-24.6Z"/><path fill="#190602" d="M945.4 767.3h-460c-31 0-56 25.6-56 56.4v65.9c1 30.3 27.2 57 57.5 57h34v-57h-34v-64.8h18.8c58 0 101 53.8 101 111.8 0 51.3-46.6 116.6-124.5 111.4-69.5-4.7-106.7-66.4-106.7-111.4V375.7a46 46 0 0 0-46-46h-46v57.5h34v549.4C316 1048.6 397 1105 481.7 1105l463.7 1.5c93.6 0 169.4-75.8 169.4-169.3 0-93.6-75.8-170-169.4-170Zm111.3 173a111.8 111.8 0 0 1-111.3 108.2l-322.6-1a169.2 169.2 0 0 0 41.3-110.3c0-66.4-39.7-111.9-39.7-111.9h321c61.7 0 111.3 50.2 111.3 111.9v3.1Z"/><path fill="#190602" d="M825.1 397.1H475v-57H825c14.2 0 25.1 11.6 25.1 25.1v6.8c0 14.2-11.5 25.1-25 25.1Z"/><path fill="#190602" d="M825.1 667.4H475v-57H825c14.2 0 25.1 11.5 25.1 25.1v6.8c0 13.6-11.5 25.1-25 25.1Z"/><path fill="#190602" d="M885.8 532.5H474.4v-57h411.4c14.1 0 25 11.6 25 25.1v6.8c.6 13.6-10.9 25.1-25 25.1Z"/></svg>