<svg xmlns="http://www.w3.org/2000/svg" xml:space="preserve" viewBox="0 0 397.7 311.7"><linearGradient id="a" x1="360.88" x2="141.21" y1="351.46" y2="-69.29" gradientTransform="matrix(1 0 0 -1 0 314)" gradientUnits="userSpaceOnUse"><stop offset="0" style="stop-color:#00ffa3"/><stop offset="1" style="stop-color:#dc1fff"/></linearGradient><path d="M64.6 237.9c2.4-2.4 5.7-3.8 9.2-3.8h317.4c5.8 0 8.7 7 4.6 11.1l-62.7 62.7c-2.4 2.4-5.7 3.8-9.2 3.8H6.5c-5.8 0-8.7-7-4.6-11.1l62.7-62.7z" style="fill:url(#a)"/><linearGradient id="b" x1="264.83" x2="45.16" y1="401.6" y2="-19.15" gradientTransform="matrix(1 0 0 -1 0 314)" gradientUnits="userSpaceOnUse"><stop offset="0" style="stop-color:#00ffa3"/><stop offset="1" style="stop-color:#dc1fff"/></linearGradient><path d="M64.6 3.8C67.1 1.4 70.4 0 73.8 0h317.4c5.8 0 8.7 7 4.6 11.1l-62.7 62.7c-2.4 2.4-5.7 3.8-9.2 3.8H6.5c-5.8 0-8.7-7-4.6-11.1L64.6 3.8z" style="fill:url(#b)"/><linearGradient id="c" x1="312.55" x2="92.88" y1="376.69" y2="-44.06" gradientTransform="matrix(1 0 0 -1 0 314)" gradientUnits="userSpaceOnUse"><stop offset="0" style="stop-color:#00ffa3"/><stop offset="1" style="stop-color:#dc1fff"/></linearGradient><path d="M333.1 120.1c-2.4-2.4-5.7-3.8-9.2-3.8H6.5c-5.8 0-8.7 7-4.6 11.1l62.7 62.7c2.4 2.4 5.7 3.8 9.2 3.8h317.4c5.8 0 8.7-7 4.6-11.1l-62.7-62.7z" style="fill:url(#c)"/></svg>