<svg xmlns="http://www.w3.org/2000/svg" fill="none" viewBox="0 0 1585 1311"><g fill="#FFFDFF" opacity=".2"><g opacity=".8"><circle cx="222.2" cy="66.7" r="6.7"/><circle cx="102.2" cy="135.5" r="4.4"/><circle cx="277.7" cy="100" r="2.2"/><circle cx="305.5" cy="14.4" r="1.1"/><circle cx="227.8" cy="96.7" r="1.1"/><circle cx="63.3" cy="18.9" r="1.1"/><circle cx="1.1" cy="1.1" r="1.1" transform="matrix(1 0 0 -1 413.3 117.8)"/><circle cx="1.1" cy="1.1" r="1.1" transform="matrix(1 0 0 -1 442.2 228.9)"/><circle cx="350" cy="123.3" r="1.1"/><circle cx="272.2" cy="205.5" r="1.1"/><circle cx="107.8" cy="127.8" r="1.1"/><circle cx="1.1" cy="1.1" r="1.1" transform="matrix(1 0 0 -1 457.7 8.9)"/><circle cx="1.1" cy="1.1" r="1.1" transform="matrix(1 0 0 -1 486.6 120)"/><circle cx="245.5" cy="45.5" r="1.1"/><circle cx="167.8" cy="127.8" r="1.1"/><circle cx="3.3" cy="50" r="1.1"/><circle cx="1.1" cy="1.1" r="1.1" transform="matrix(1 0 0 -1 353.3 86.7)"/><circle cx="1.1" cy="1.1" r="1.1" transform="matrix(1 0 0 -1 382.2 197.8)"/><circle cx="347.7" cy="52.2" r="1.1"/><circle cx="270" cy="134.4" r="1.1"/><circle cx="105.5" cy="56.7" r="1.1"/><circle cx="1.1" cy="1.1" r="1.1" transform="matrix(1 0 0 -1 455.5 80)"/><circle cx="1.1" cy="1.1" r="1.1" transform="matrix(1 0 0 -1 484.4 191)"/><circle cx="387.7" cy="85.5" r="1.1"/><circle cx="310" cy="167.8" r="1.1"/><circle cx="145.5" cy="90" r="1.1"/><circle cx="1.1" cy="1.1" r="1.1" transform="matrix(1 0 0 -1 495.5 46.7)"/><circle cx="1.1" cy="1.1" r="1.1" transform="matrix(1 0 0 -1 524.4 157.8)"/><circle cx="303.3" cy="112.2" r="1.1"/><circle cx="225.5" cy="194.4" r="1.1"/><circle cx="61.1" cy="116.7" r="1.1"/><circle cx="1.1" cy="1.1" r="1.1" transform="matrix(1 0 0 -1 411 20)"/><circle cx="1.1" cy="1.1" r="1.1" transform="matrix(1 0 0 -1 440 131)"/><circle cx="243.3" cy="130" r="1.1"/><circle cx="165.5" cy="212.2" r="1.1"/><circle cx="1.1" cy="134.4" r="1.1"/><circle cx="1.1" cy="1.1" r="1.1" transform="matrix(1 0 0 -1 351 2.2)"/><circle cx="1.1" cy="1.1" r="1.1" transform="matrix(1 0 0 -1 380 113.3)"/><circle cx="245.5" cy="90" r="1.1"/><circle cx="167.8" cy="172.2" r="1.1"/><circle cx="3.3" cy="94.4" r="1.1"/><circle cx="1.1" cy="1.1" r="1.1" transform="matrix(1 0 0 -1 353.3 42.2)"/><circle cx="1.1" cy="1.1" r="1.1" transform="matrix(1 0 0 -1 382.2 153.3)"/><circle cx="184.4" cy="108.9" r="2.2"/><circle cx="377.7" cy="35.6" r="2.2"/><circle cx="124.4" cy="44.4" r="2.2"/><ellipse cx="131.1" cy="87.8" rx="2.2" ry="1.1"/><ellipse cx="324.4" cy="218.9" rx="2.2" ry="1.1"/><ellipse cx="133.3" cy="154.4" rx="2.2" ry="1.1"/><ellipse cx="242.2" cy="63.3" rx="2.2" ry="1.1"/><path d="m168.9 40 1.6 11.7 11.7 1.6-11.7 1.6-1.6 11.8-1.6-11.8-11.8-1.6 11.8-1.6 1.6-11.7Z"/><path d="m251 140 1.6 5.1 5.1 1.5-5 1.6-1.6 5.1-1.6-5.1-5-1.6 5-1.5 1.6-5.1Z"/><circle cx="222.2" cy="297.6" r="6.7"/><circle cx="277.7" cy="330.9" r="2.2"/><circle cx="305.5" cy="245.4" r="1.1"/><circle cx="227.8" cy="327.6" r="1.1"/><circle cx="63.3" cy="249.8" r="1.1"/><circle cx="1.1" cy="1.1" r="1.1" transform="matrix(1 0 0 -1 413.3 348.7)"/><circle cx="1.1" cy="1.1" r="1.1" transform="matrix(1 0 0 -1 442.2 459.8)"/><circle cx="350" cy="354.2" r="1.1"/><circle cx="272.2" cy="436.4" r="1.1"/><circle cx="107.8" cy="358.7" r="1.1"/><circle cx="1.1" cy="1.1" r="1.1" transform="matrix(1 0 0 -1 457.7 239.8)"/><circle cx="1.1" cy="1.1" r="1.1" transform="matrix(1 0 0 -1 486.6 350.9)"/><circle cx="245.5" cy="276.5" r="1.1"/><circle cx="167.8" cy="358.7" r="1.1"/><circle cx="3.3" cy="280.9" r="1.1"/><circle cx="1.1" cy="1.1" r="1.1" transform="matrix(1 0 0 -1 353.3 317.6)"/><circle cx="1.1" cy="1.1" r="1.1" transform="matrix(1 0 0 -1 382.2 428.7)"/><circle cx="347.7" cy="283.1" r="1.1"/><circle cx="270" cy="365.3" r="1.1"/><circle cx="105.5" cy="287.6" r="1.1"/><circle cx="1.1" cy="1.1" r="1.1" transform="matrix(1 0 0 -1 455.5 311)"/><circle cx="1.1" cy="1.1" r="1.1" transform="matrix(1 0 0 -1 484.4 422)"/><circle cx="387.7" cy="316.5" r="1.1"/><circle cx="310" cy="398.7" r="1.1"/><circle cx="145.5" cy="320.9" r="1.1"/><circle cx="1.1" cy="1.1" r="1.1" transform="matrix(1 0 0 -1 495.5 277.6)"/><circle cx="1.1" cy="1.1" r="1.1" transform="matrix(1 0 0 -1 524.4 388.7)"/><circle cx="303.3" cy="343.1" r="1.1"/><circle cx="225.5" cy="425.3" r="1.1"/><circle cx="61.1" cy="347.6" r="1.1"/><circle cx="1.1" cy="1.1" r="1.1" transform="matrix(1 0 0 -1 411 251)"/><circle cx="1.1" cy="1.1" r="1.1" transform="matrix(1 0 0 -1 440 362)"/><circle cx="243.3" cy="360.9" r="1.1"/><circle cx="165.5" cy="443.1" r="1.1"/><circle cx="1.1" cy="365.3" r="1.1"/><circle cx="1.1" cy="1.1" r="1.1" transform="matrix(1 0 0 -1 351 233.1)"/><circle cx="1.1" cy="1.1" r="1.1" transform="matrix(1 0 0 -1 380 344.2)"/><circle cx="245.5" cy="320.9" r="1.1"/><circle cx="167.8" cy="403.1" r="1.1"/><circle cx="3.3" cy="325.3" r="1.1"/><circle cx="1.1" cy="1.1" r="1.1" transform="matrix(1 0 0 -1 353.3 273.1)"/><circle cx="1.1" cy="1.1" r="1.1" transform="matrix(1 0 0 -1 382.2 384.2)"/><circle cx="184.4" cy="339.8" r="2.2"/><circle cx="377.7" cy="266.5" r="2.2"/><circle cx="124.4" cy="275.4" r="2.2"/><ellipse cx="131.1" cy="318.7" rx="2.2" ry="1.1"/><ellipse cx="324.4" cy="449.8" rx="2.2" ry="1.1"/><ellipse cx="133.3" cy="385.3" rx="2.2" ry="1.1"/><ellipse cx="242.2" cy="294.2" rx="2.2" ry="1.1"/><path d="m251 370.9 1.6 5.1 5.1 1.6-5 1.5-1.6 5.1-1.6-5-5-1.6 5-1.6 1.6-5.1Z"/><circle cx="277.7" cy="561.8" r="2.2"/><circle cx="305.5" cy="476.3" r="1.1"/><circle cx="227.8" cy="558.5" r="1.1"/><circle cx="63.3" cy="480.7" r="1.1"/><circle cx="1.1" cy="1.1" r="1.1" transform="matrix(1 0 0 -1 413.3 579.6)"/><circle cx="1.1" cy="1.1" r="1.1" transform="matrix(1 0 0 -1 442.2 690.7)"/><circle cx="350" cy="585.1" r="1.1"/><circle cx="272.2" cy="667.4" r="1.1"/><circle cx="107.8" cy="589.6" r="1.1"/><circle cx="1.1" cy="1.1" r="1.1" transform="matrix(1 0 0 -1 457.7 470.7)"/><circle cx="1.1" cy="1.1" r="1.1" transform="matrix(1 0 0 -1 486.6 581.8)"/><circle cx="245.5" cy="507.4" r="1.1"/><circle cx="167.8" cy="589.6" r="1.1"/><circle cx="3.3" cy="511.8" r="1.1"/><circle cx="1.1" cy="1.1" r="1.1" transform="matrix(1 0 0 -1 353.3 548.5)"/><circle cx="1.1" cy="1.1" r="1.1" transform="matrix(1 0 0 -1 382.2 659.6)"/><circle cx="347.7" cy="514" r="1.1"/><circle cx="270" cy="596.3" r="1.1"/><circle cx="105.5" cy="518.5" r="1.1"/><circle cx="1.1" cy="1.1" r="1.1" transform="matrix(1 0 0 -1 455.5 541.8)"/><circle cx="1.1" cy="1.1" r="1.1" transform="matrix(1 0 0 -1 484.4 653)"/><circle cx="387.7" cy="547.4" r="1.1"/><circle cx="310" cy="629.6" r="1.1"/><circle cx="145.5" cy="551.8" r="1.1"/><circle cx="1.1" cy="1.1" r="1.1" transform="matrix(1 0 0 -1 495.5 508.5)"/><circle cx="1.1" cy="1.1" r="1.1" transform="matrix(1 0 0 -1 524.4 619.6)"/><circle cx="303.3" cy="574" r="1.1"/><circle cx="225.5" cy="656.2" r="1.1"/><circle cx="61.1" cy="578.5" r="1.1"/><circle cx="1.1" cy="1.1" r="1.1" transform="matrix(1 0 0 -1 411 481.8)"/><circle cx="1.1" cy="1.1" r="1.1" transform="matrix(1 0 0 -1 440 593)"/><circle cx="243.3" cy="591.8" r="1.1"/><circle cx="165.5" cy="674" r="1.1"/><circle cx="1.1" cy="596.3" r="1.1"/><circle cx="1.1" cy="1.1" r="1.1" transform="matrix(1 0 0 -1 351 464)"/><circle cx="1.1" cy="1.1" r="1.1" transform="matrix(1 0 0 -1 380 575.1)"/><circle cx="245.5" cy="551.8" r="1.1"/><circle cx="167.8" cy="634" r="1.1"/><circle cx="3.3" cy="556.3" r="1.1"/><circle cx="1.1" cy="1.1" r="1.1" transform="matrix(1 0 0 -1 353.3 504)"/><circle cx="1.1" cy="1.1" r="1.1" transform="matrix(1 0 0 -1 382.2 615.1)"/><circle cx="184.4" cy="570.7" r="2.2"/><circle cx="377.7" cy="497.4" r="2.2"/><circle cx="124.4" cy="506.3" r="2.2"/><ellipse cx="131.1" cy="549.6" rx="2.2" ry="1.1"/><ellipse cx="324.4" cy="680.7" rx="2.2" ry="1.1"/><ellipse cx="133.3" cy="616.3" rx="2.2" ry="1.1"/><ellipse cx="242.2" cy="525.2" rx="2.2" ry="1.1"/><path d="m168.9 501.8 1.6 11.8 11.7 1.6-11.7 1.6-1.6 11.7-1.6-11.7-11.8-1.6 11.8-1.6 1.6-11.8Z"/><path d="m251 601.8 1.6 5.1 5.1 1.6-5 1.5-1.6 5.1-1.6-5-5-1.6 5-1.6 1.6-5Z"/><circle cx="722.4" cy="93.3" r="4.4" transform="rotate(180 722.4 93.3)"/><circle cx="546.9" cy="128.9" r="2.2" transform="rotate(180 547 128.9)"/><circle cx="519.1" cy="214.4" r="1.1" transform="rotate(180 519.1 214.4)"/><circle cx="596.9" cy="132.2" r="1.1" transform="rotate(180 596.9 132.2)"/><circle cx="761.3" cy="210" r="1.1" transform="rotate(180 761.3 210)"/><circle cx="1.1" cy="1.1" r="1.1" transform="matrix(-1 0 0 1 411.4 111.1)"/><circle cx="1.1" cy="1.1" r="1.1" transform="matrix(-1 0 0 1 382.5 0)"/><circle cx="474.7" cy="105.5" r="1.1" transform="rotate(180 474.7 105.5)"/><circle cx="552.5" cy="23.3" r="1.1" transform="rotate(180 552.5 23.3)"/><circle cx="716.9" cy="101.1" r="1.1" transform="rotate(180 716.9 101.1)"/><circle cx="1.1" cy="1.1" r="1.1" transform="matrix(-1 0 0 1 367 220)"/><circle cx="1.1" cy="1.1" r="1.1" transform="matrix(-1 0 0 1 338 108.9)"/><circle cx="579.1" cy="183.3" r="1.1" transform="rotate(180 579.1 183.3)"/><circle cx="656.9" cy="101.1" r="1.1" transform="rotate(180 656.9 101.1)"/><circle cx="821.3" cy="178.9" r="1.1" transform="rotate(180 821.3 178.9)"/><circle cx="1.1" cy="1.1" r="1.1" transform="matrix(-1 0 0 1 471.4 142.2)"/><circle cx="1.1" cy="1.1" r="1.1" transform="matrix(-1 0 0 1 442.5 31.1)"/><circle cx="476.9" cy="176.6" r="1.1" transform="rotate(180 477 176.6)"/><circle cx="554.7" cy="94.4" r="1.1" transform="rotate(180 554.7 94.4)"/><circle cx="719.1" cy="172.2" r="1.1" transform="rotate(180 719.1 172.2)"/><circle cx="1.1" cy="1.1" r="1.1" transform="matrix(-1 0 0 1 369.1 148.9)"/><circle cx="1.1" cy="1.1" r="1.1" transform="matrix(-1 0 0 1 340.3 37.8)"/><circle cx="436.9" cy="143.3" r="1.1" transform="rotate(180 437 143.3)"/><circle cx="514.7" cy="61.1" r="1.1" transform="rotate(180 514.7 61.1)"/><circle cx="679.1" cy="138.9" r="1.1" transform="rotate(180 679.1 138.9)"/><circle cx="1.1" cy="1.1" r="1.1" transform="matrix(-1 0 0 1 329.2 182.2)"/><circle cx="1.1" cy="1.1" r="1.1" transform="matrix(-1 0 0 1 300.3 71.1)"/><circle cx="521.4" cy="116.7" r="1.1" transform="rotate(180 521.4 116.7)"/><circle cx="599.1" cy="34.4" r="1.1" transform="rotate(180 599.1 34.4)"/><circle cx="763.5" cy="112.2" r="1.1" transform="rotate(180 763.5 112.2)"/><circle cx="1.1" cy="1.1" r="1.1" transform="matrix(-1 0 0 1 413.6 208.9)"/><circle cx="1.1" cy="1.1" r="1.1" transform="matrix(-1 0 0 1 384.7 97.8)"/><circle cx="581.3" cy="98.9" r="1.1" transform="rotate(180 581.3 98.9)"/><circle cx="659.1" cy="16.7" r="1.1" transform="rotate(180 659.1 16.7)"/><circle cx="823.5" cy="94.4" r="1.1" transform="rotate(180 823.5 94.4)"/><circle cx="1.1" cy="1.1" r="1.1" transform="matrix(-1 0 0 1 473.6 226.6)"/><circle cx="1.1" cy="1.1" r="1.1" transform="matrix(-1 0 0 1 444.7 115.5)"/><circle cx="579.1" cy="138.9" r="1.1" transform="rotate(180 579.1 138.9)"/><circle cx="656.9" cy="56.7" r="1.1" transform="rotate(180 656.9 56.7)"/><circle cx="821.3" cy="134.4" r="1.1" transform="rotate(180 821.3 134.4)"/><circle cx="1.1" cy="1.1" r="1.1" transform="matrix(-1 0 0 1 471.4 186.6)"/><circle cx="1.1" cy="1.1" r="1.1" transform="matrix(-1 0 0 1 442.5 75.5)"/><circle cx="640.2" cy="120" r="2.2" transform="rotate(180 640.2 120)"/><circle cx="446.9" cy="193.3" r="2.2" transform="rotate(180 447 193.3)"/><circle cx="700.2" cy="184.4" r="2.2" transform="rotate(180 700.2 184.4)"/><ellipse cx="693.6" cy="141.1" rx="2.2" ry="1.1" transform="rotate(180 693.6 141)"/><ellipse cx="500.2" cy="10" rx="2.2" ry="1.1" transform="rotate(180 500.2 10)"/><ellipse cx="691.3" cy="74.4" rx="2.2" ry="1.1" transform="rotate(180 691.3 74.4)"/><ellipse cx="582.5" cy="165.5" rx="2.2" ry="1.1" transform="rotate(180 582.5 165.5)"/><path d="M460.3 57.8 458.6 46 447 44.4l11.7-1.6 1.6-11.7 1.7 11.7 11.7 1.6L462 46l-1.6 11.8Z"/><path d="m573.6 88.9-1.6-5.1-5.1-1.6 5.1-1.5 1.6-5.2 1.5 5.2 5.1 1.5-5 1.6-1.6 5Z"/><circle cx="546.9" cy="359.8" r="2.2" transform="rotate(180 547 359.8)"/><circle cx="519.1" cy="445.3" r="1.1" transform="rotate(180 519.1 445.3)"/><circle cx="596.9" cy="363.1" r="1.1" transform="rotate(180 596.9 363.1)"/><circle cx="761.3" cy="440.9" r="1.1" transform="rotate(180 761.3 440.9)"/><circle cx="1.1" cy="1.1" r="1.1" transform="matrix(-1 0 0 1 411.4 342)"/><circle cx="1.1" cy="1.1" r="1.1" transform="matrix(-1 0 0 1 382.5 231)"/><circle cx="474.7" cy="336.5" r="1.1" transform="rotate(180 474.7 336.5)"/><circle cx="552.5" cy="254.2" r="1.1" transform="rotate(180 552.5 254.2)"/><circle cx="716.9" cy="332" r="1.1" transform="rotate(180 716.9 332)"/><circle cx="1.1" cy="1.1" r="1.1" transform="matrix(-1 0 0 1 367 450.9)"/><circle cx="1.1" cy="1.1" r="1.1" transform="matrix(-1 0 0 1 338 339.8)"/><circle cx="579.1" cy="414.2" r="1.1" transform="rotate(180 579.1 414.2)"/><circle cx="656.9" cy="332" r="1.1" transform="rotate(180 656.9 332)"/><circle cx="821.3" cy="409.8" r="1.1" transform="rotate(180 821.3 409.8)"/><circle cx="1.1" cy="1.1" r="1.1" transform="matrix(-1 0 0 1 471.4 373.1)"/><circle cx="1.1" cy="1.1" r="1.1" transform="matrix(-1 0 0 1 442.5 262)"/><circle cx="476.9" cy="407.6" r="1.1" transform="rotate(180 477 407.6)"/><circle cx="554.7" cy="325.3" r="1.1" transform="rotate(180 554.7 325.3)"/><circle cx="719.1" cy="403.1" r="1.1" transform="rotate(180 719.1 403.1)"/><circle cx="1.1" cy="1.1" r="1.1" transform="matrix(-1 0 0 1 369.1 379.8)"/><circle cx="1.1" cy="1.1" r="1.1" transform="matrix(-1 0 0 1 340.3 268.7)"/><circle cx="436.9" cy="374.2" r="1.1" transform="rotate(180 437 374.2)"/><circle cx="514.7" cy="292" r="1.1" transform="rotate(180 514.7 292)"/><circle cx="679.1" cy="369.8" r="1.1" transform="rotate(180 679.1 369.8)"/><circle cx="1.1" cy="1.1" r="1.1" transform="matrix(-1 0 0 1 329.2 413.1)"/><circle cx="1.1" cy="1.1" r="1.1" transform="matrix(-1 0 0 1 300.3 302)"/><circle cx="521.4" cy="347.6" r="1.1" transform="rotate(180 521.4 347.6)"/><circle cx="599.1" cy="265.4" r="1.1" transform="rotate(180 599.1 265.4)"/><circle cx="763.5" cy="343.1" r="1.1" transform="rotate(180 763.5 343.1)"/><circle cx="1.1" cy="1.1" r="1.1" transform="matrix(-1 0 0 1 413.6 439.8)"/><circle cx="1.1" cy="1.1" r="1.1" transform="matrix(-1 0 0 1 384.7 328.7)"/><circle cx="581.3" cy="329.8" r="1.1" transform="rotate(180 581.3 329.8)"/><circle cx="659.1" cy="247.6" r="1.1" transform="rotate(180 659.1 247.6)"/><circle cx="823.5" cy="325.3" r="1.1" transform="rotate(180 823.5 325.3)"/><circle cx="1.1" cy="1.1" r="1.1" transform="matrix(-1 0 0 1 473.6 457.6)"/><circle cx="1.1" cy="1.1" r="1.1" transform="matrix(-1 0 0 1 444.7 346.5)"/><circle cx="579.1" cy="369.8" r="1.1" transform="rotate(180 579.1 369.8)"/><circle cx="656.9" cy="287.6" r="1.1" transform="rotate(180 656.9 287.6)"/><circle cx="821.3" cy="365.3" r="1.1" transform="rotate(180 821.3 365.3)"/><circle cx="1.1" cy="1.1" r="1.1" transform="matrix(-1 0 0 1 471.4 417.6)"/><circle cx="1.1" cy="1.1" r="1.1" transform="matrix(-1 0 0 1 442.5 306.5)"/><circle cx="640.2" cy="350.9" r="2.2" transform="rotate(180 640.2 350.9)"/><circle cx="446.9" cy="424.2" r="2.2" transform="rotate(180 447 424.2)"/><circle cx="700.2" cy="415.3" r="2.2" transform="rotate(180 700.2 415.3)"/><ellipse cx="693.6" cy="372" rx="2.2" ry="1.1" transform="rotate(180 693.6 372)"/><ellipse cx="500.2" cy="240.9" rx="2.2" ry="1.1" transform="rotate(180 500.2 241)"/><ellipse cx="691.3" cy="305.4" rx="2.2" ry="1.1" transform="rotate(180 691.3 305.4)"/><ellipse cx="582.5" cy="396.4" rx="2.2" ry="1.1" transform="rotate(180 582.5 396.4)"/><path d="m655.8 419.8-1.6-11.8-11.8-1.6 11.8-1.6 1.6-11.7 1.6 11.7 11.7 1.6-11.7 1.6-1.6 11.8Z"/><path d="m460.3 288.7-1.7-11.7-11.7-1.6 11.7-1.7 1.6-11.7 1.7 11.7 11.7 1.7-11.7 1.6-1.6 11.7Z"/><path d="m573.6 319.8-1.6-5.1-5.1-1.6 5.1-1.5 1.6-5.1 1.5 5 5.1 1.6-5 1.6-1.6 5Z"/><circle cx="722.4" cy="555.1" r="4.4" transform="rotate(180 722.4 555.1)"/><circle cx="546.9" cy="590.7" r="2.2" transform="rotate(180 547 590.7)"/><circle cx="519.1" cy="676.2" r="1.1" transform="rotate(180 519.1 676.2)"/><circle cx="596.9" cy="594" r="1.1" transform="rotate(180 596.9 594)"/><circle cx="761.3" cy="671.8" r="1.1" transform="rotate(180 761.3 671.8)"/><circle cx="1.1" cy="1.1" r="1.1" transform="matrix(-1 0 0 1 411.4 573)"/><circle cx="1.1" cy="1.1" r="1.1" transform="matrix(-1 0 0 1 382.5 461.8)"/><circle cx="474.7" cy="567.4" r="1.1" transform="rotate(180 474.7 567.4)"/><circle cx="552.5" cy="485.2" r="1.1" transform="rotate(180 552.5 485.2)"/><circle cx="716.9" cy="562.9" r="1.1" transform="rotate(180 716.9 563)"/><circle cx="1.1" cy="1.1" r="1.1" transform="matrix(-1 0 0 1 367 681.8)"/><circle cx="1.1" cy="1.1" r="1.1" transform="matrix(-1 0 0 1 338 570.7)"/><circle cx="579.1" cy="645.1" r="1.1" transform="rotate(180 579.1 645.1)"/><circle cx="656.9" cy="562.9" r="1.1" transform="rotate(180 656.9 563)"/><circle cx="821.3" cy="640.7" r="1.1" transform="rotate(180 821.3 640.7)"/><circle cx="1.1" cy="1.1" r="1.1" transform="matrix(-1 0 0 1 471.4 604)"/><circle cx="1.1" cy="1.1" r="1.1" transform="matrix(-1 0 0 1 442.5 493)"/><circle cx="476.9" cy="638.5" r="1.1" transform="rotate(180 477 638.5)"/><circle cx="554.7" cy="556.3" r="1.1" transform="rotate(180 554.7 556.3)"/><circle cx="719.1" cy="634" r="1.1" transform="rotate(180 719.1 634)"/><circle cx="1.1" cy="1.1" r="1.1" transform="matrix(-1 0 0 1 369.1 610.7)"/><circle cx="1.1" cy="1.1" r="1.1" transform="matrix(-1 0 0 1 340.3 499.6)"/><circle cx="436.9" cy="605.1" r="1.1" transform="rotate(180 437 605.1)"/><circle cx="514.7" cy="522.9" r="1.1" transform="rotate(180 514.7 523)"/><circle cx="679.1" cy="600.7" r="1.1" transform="rotate(180 679.1 600.7)"/><circle cx="1.1" cy="1.1" r="1.1" transform="matrix(-1 0 0 1 329.2 644)"/><circle cx="1.1" cy="1.1" r="1.1" transform="matrix(-1 0 0 1 300.3 533)"/><circle cx="521.4" cy="578.5" r="1.1" transform="rotate(180 521.4 578.5)"/><circle cx="599.1" cy="496.3" r="1.1" transform="rotate(180 599.1 496.3)"/><circle cx="763.5" cy="574" r="1.1" transform="rotate(180 763.5 574)"/><circle cx="1.1" cy="1.1" r="1.1" transform="matrix(-1 0 0 1 413.6 670.7)"/><circle cx="1.1" cy="1.1" r="1.1" transform="matrix(-1 0 0 1 384.7 559.6)"/><circle cx="581.3" cy="560.7" r="1.1" transform="rotate(180 581.3 560.7)"/><circle cx="659.1" cy="478.5" r="1.1" transform="rotate(180 659.1 478.5)"/><circle cx="823.5" cy="556.3" r="1.1" transform="rotate(180 823.5 556.3)"/><circle cx="1.1" cy="1.1" r="1.1" transform="matrix(-1 0 0 1 473.6 688.5)"/><circle cx="1.1" cy="1.1" r="1.1" transform="matrix(-1 0 0 1 444.7 577.4)"/><circle cx="579.1" cy="600.7" r="1.1" transform="rotate(180 579.1 600.7)"/><circle cx="656.9" cy="518.5" r="1.1" transform="rotate(180 656.9 518.5)"/><circle cx="821.3" cy="596.3" r="1.1" transform="rotate(180 821.3 596.3)"/><circle cx="1.1" cy="1.1" r="1.1" transform="matrix(-1 0 0 1 471.4 648.5)"/><circle cx="1.1" cy="1.1" r="1.1" transform="matrix(-1 0 0 1 442.5 537.4)"/><circle cx="640.2" cy="581.8" r="2.2" transform="rotate(180 640.2 581.8)"/><circle cx="446.9" cy="655.1" r="2.2" transform="rotate(180 447 655.1)"/><circle cx="700.2" cy="646.2" r="2.2" transform="rotate(180 700.2 646.2)"/><ellipse cx="693.6" cy="602.9" rx="2.2" ry="1.1" transform="rotate(180 693.6 603)"/><ellipse cx="500.2" cy="471.8" rx="2.2" ry="1.1" transform="rotate(180 500.2 471.8)"/><ellipse cx="691.3" cy="536.3" rx="2.2" ry="1.1" transform="rotate(180 691.3 536.3)"/><ellipse cx="582.5" cy="627.4" rx="2.2" ry="1.1" transform="rotate(180 582.5 627.4)"/><path d="m655.8 650.7-1.6-11.7-11.8-1.6 11.8-1.6 1.6-11.8 1.6 11.8 11.7 1.6-11.7 1.6-1.6 11.7Z"/><path d="m573.6 550.7-1.6-5.1-5.1-1.6 5.1-1.5 1.6-5.1 1.5 5 5.1 1.6-5 1.6-1.6 5.1Z"/></g><g opacity=".8"><circle cx="222.2" cy="686.7" r="6.7"/><circle cx="102.2" cy="755.5" r="4.4"/><circle cx="277.7" cy="720" r="2.2"/><circle cx="305.5" cy="634.4" r="1.1"/><circle cx="227.8" cy="716.7" r="1.1"/><circle cx="63.3" cy="638.9" r="1.1"/><circle cx="1.1" cy="1.1" r="1.1" transform="matrix(1 0 0 -1 413.3 737.8)"/><circle cx="1.1" cy="1.1" r="1.1" transform="matrix(1 0 0 -1 442.2 848.9)"/><circle cx="350" cy="743.3" r="1.1"/><circle cx="272.2" cy="825.5" r="1.1"/><circle cx="107.8" cy="747.8" r="1.1"/><circle cx="1.1" cy="1.1" r="1.1" transform="matrix(1 0 0 -1 457.7 628.9)"/><circle cx="1.1" cy="1.1" r="1.1" transform="matrix(1 0 0 -1 486.6 740)"/><circle cx="245.5" cy="665.5" r="1.1"/><circle cx="167.8" cy="747.8" r="1.1"/><circle cx="3.3" cy="670" r="1.1"/><circle cx="1.1" cy="1.1" r="1.1" transform="matrix(1 0 0 -1 353.3 706.7)"/><circle cx="1.1" cy="1.1" r="1.1" transform="matrix(1 0 0 -1 382.2 817.8)"/><circle cx="347.7" cy="672.2" r="1.1"/><circle cx="270" cy="754.4" r="1.1"/><circle cx="105.5" cy="676.7" r="1.1"/><circle cx="1.1" cy="1.1" r="1.1" transform="matrix(1 0 0 -1 455.5 700)"/><circle cx="1.1" cy="1.1" r="1.1" transform="matrix(1 0 0 -1 484.4 811)"/><circle cx="387.7" cy="705.5" r="1.1"/><circle cx="310" cy="787.8" r="1.1"/><circle cx="145.5" cy="710" r="1.1"/><circle cx="1.1" cy="1.1" r="1.1" transform="matrix(1 0 0 -1 495.5 666.7)"/><circle cx="1.1" cy="1.1" r="1.1" transform="matrix(1 0 0 -1 524.4 777.8)"/><circle cx="303.3" cy="732.2" r="1.1"/><circle cx="225.5" cy="814.4" r="1.1"/><circle cx="61.1" cy="736.7" r="1.1"/><circle cx="1.1" cy="1.1" r="1.1" transform="matrix(1 0 0 -1 411 640)"/><circle cx="1.1" cy="1.1" r="1.1" transform="matrix(1 0 0 -1 440 751)"/><circle cx="243.3" cy="750" r="1.1"/><circle cx="165.5" cy="832.2" r="1.1"/><circle cx="1.1" cy="754.4" r="1.1"/><circle cx="1.1" cy="1.1" r="1.1" transform="matrix(1 0 0 -1 351 622.2)"/><circle cx="1.1" cy="1.1" r="1.1" transform="matrix(1 0 0 -1 380 733.3)"/><circle cx="245.5" cy="710" r="1.1"/><circle cx="167.8" cy="792.2" r="1.1"/><circle cx="3.3" cy="714.4" r="1.1"/><circle cx="1.1" cy="1.1" r="1.1" transform="matrix(1 0 0 -1 353.3 662.2)"/><circle cx="1.1" cy="1.1" r="1.1" transform="matrix(1 0 0 -1 382.2 773.3)"/><circle cx="184.4" cy="728.9" r="2.2"/><circle cx="377.7" cy="655.5" r="2.2"/><circle cx="124.4" cy="664.4" r="2.2"/><ellipse cx="131.1" cy="707.8" rx="2.2" ry="1.1"/><ellipse cx="324.4" cy="838.9" rx="2.2" ry="1.1"/><ellipse cx="133.3" cy="774.4" rx="2.2" ry="1.1"/><ellipse cx="242.2" cy="683.3" rx="2.2" ry="1.1"/><path d="m251 760 1.6 5.1 5.1 1.5-5 1.6-1.6 5.1-1.6-5.1-5-1.6 5-1.5 1.6-5.1Z"/><circle cx="102.2" cy="986.5" r="4.4"/><circle cx="277.7" cy="950.9" r="2.2"/><circle cx="305.5" cy="865.4" r="1.1"/><circle cx="227.8" cy="947.6" r="1.1"/><circle cx="63.3" cy="869.8" r="1.1"/><circle cx="1.1" cy="1.1" r="1.1" transform="matrix(1 0 0 -1 413.3 968.7)"/><circle cx="1.1" cy="1.1" r="1.1" transform="matrix(1 0 0 -1 442.2 1079.8)"/><circle cx="350" cy="974.2" r="1.1"/><circle cx="272.2" cy="1056.4" r="1.1"/><circle cx="107.8" cy="978.7" r="1.1"/><circle cx="1.1" cy="1.1" r="1.1" transform="matrix(1 0 0 -1 457.7 859.8)"/><circle cx="1.1" cy="1.1" r="1.1" transform="matrix(1 0 0 -1 486.6 970.9)"/><circle cx="245.5" cy="896.5" r="1.1"/><circle cx="167.8" cy="978.7" r="1.1"/><circle cx="3.3" cy="900.9" r="1.1"/><circle cx="1.1" cy="1.1" r="1.1" transform="matrix(1 0 0 -1 353.3 937.6)"/><circle cx="1.1" cy="1.1" r="1.1" transform="matrix(1 0 0 -1 382.2 1048.7)"/><circle cx="347.7" cy="903.1" r="1.1"/><circle cx="270" cy="985.3" r="1.1"/><circle cx="105.5" cy="907.6" r="1.1"/><circle cx="1.1" cy="1.1" r="1.1" transform="matrix(1 0 0 -1 455.5 931)"/><circle cx="1.1" cy="1.1" r="1.1" transform="matrix(1 0 0 -1 484.4 1042)"/><circle cx="387.7" cy="936.5" r="1.1"/><circle cx="310" cy="1018.7" r="1.1"/><circle cx="145.5" cy="940.9" r="1.1"/><circle cx="1.1" cy="1.1" r="1.1" transform="matrix(1 0 0 -1 495.5 897.6)"/><circle cx="1.1" cy="1.1" r="1.1" transform="matrix(1 0 0 -1 524.4 1008.7)"/><circle cx="303.3" cy="963.1" r="1.1"/><circle cx="225.5" cy="1045.3" r="1.1"/><circle cx="61.1" cy="967.6" r="1.1"/><circle cx="1.1" cy="1.1" r="1.1" transform="matrix(1 0 0 -1 411 871)"/><circle cx="1.1" cy="1.1" r="1.1" transform="matrix(1 0 0 -1 440 982)"/><circle cx="243.3" cy="980.9" r="1.1"/><circle cx="165.5" cy="1063.1" r="1.1"/><circle cx="1.1" cy="985.3" r="1.1"/><circle cx="1.1" cy="1.1" r="1.1" transform="matrix(1 0 0 -1 351 853.1)"/><circle cx="1.1" cy="1.1" r="1.1" transform="matrix(1 0 0 -1 380 964.2)"/><circle cx="245.5" cy="940.9" r="1.1"/><circle cx="167.8" cy="1023.1" r="1.1"/><circle cx="3.3" cy="945.3" r="1.1"/><circle cx="1.1" cy="1.1" r="1.1" transform="matrix(1 0 0 -1 353.3 893.1)"/><circle cx="1.1" cy="1.1" r="1.1" transform="matrix(1 0 0 -1 382.2 1004.2)"/><circle cx="184.4" cy="959.8" r="2.2"/><circle cx="377.7" cy="886.5" r="2.2"/><circle cx="124.4" cy="895.4" r="2.2"/><ellipse cx="131.1" cy="938.7" rx="2.2" ry="1.1"/><ellipse cx="324.4" cy="1069.8" rx="2.2" ry="1.1"/><ellipse cx="133.3" cy="1005.3" rx="2.2" ry="1.1"/><ellipse cx="242.2" cy="914.2" rx="2.2" ry="1.1"/><path d="m168.9 891 1.6 11.6 11.7 1.6-11.7 1.6-1.6 11.8-1.6-11.8-11.8-1.6 11.8-1.6 1.6-11.7Z"/><path d="m251 990.9 1.6 5.1 5.1 1.6-5 1.5-1.6 5.1-1.6-5-5-1.6 5-1.6 1.6-5.1Z"/><circle cx="222.2" cy="1148.5" r="6.7"/><circle cx="102.2" cy="1217.4" r="4.4"/><circle cx="277.7" cy="1181.8" r="2.2"/><circle cx="305.5" cy="1096.3" r="1.1"/><circle cx="227.8" cy="1178.5" r="1.1"/><circle cx="63.3" cy="1100.7" r="1.1"/><circle cx="1.1" cy="1.1" r="1.1" transform="matrix(1 0 0 -1 413.3 1199.6)"/><circle cx="1.1" cy="1.1" r="1.1" transform="matrix(1 0 0 -1 442.2 1310.7)"/><circle cx="350" cy="1205.2" r="1.1"/><circle cx="272.2" cy="1287.4" r="1.1"/><circle cx="107.8" cy="1209.6" r="1.1"/><circle cx="1.1" cy="1.1" r="1.1" transform="matrix(1 0 0 -1 457.7 1090.7)"/><circle cx="1.1" cy="1.1" r="1.1" transform="matrix(1 0 0 -1 486.6 1201.8)"/><circle cx="245.5" cy="1127.4" r="1.1"/><circle cx="167.8" cy="1209.6" r="1.1"/><circle cx="3.3" cy="1131.8" r="1.1"/><circle cx="1.1" cy="1.1" r="1.1" transform="matrix(1 0 0 -1 353.3 1168.5)"/><circle cx="1.1" cy="1.1" r="1.1" transform="matrix(1 0 0 -1 382.2 1279.6)"/><circle cx="347.7" cy="1134" r="1.1"/><circle cx="270" cy="1216.3" r="1.1"/><circle cx="105.5" cy="1138.5" r="1.1"/><circle cx="1.1" cy="1.1" r="1.1" transform="matrix(1 0 0 -1 455.5 1161.8)"/><circle cx="1.1" cy="1.1" r="1.1" transform="matrix(1 0 0 -1 484.4 1273)"/><circle cx="387.7" cy="1167.4" r="1.1"/><circle cx="310" cy="1249.6" r="1.1"/><circle cx="145.5" cy="1171.8" r="1.1"/><circle cx="1.1" cy="1.1" r="1.1" transform="matrix(1 0 0 -1 495.5 1128.5)"/><circle cx="1.1" cy="1.1" r="1.1" transform="matrix(1 0 0 -1 524.4 1239.6)"/><circle cx="303.3" cy="1194" r="1.1"/><circle cx="225.5" cy="1276.3" r="1.1"/><circle cx="61.1" cy="1198.5" r="1.1"/><circle cx="1.1" cy="1.1" r="1.1" transform="matrix(1 0 0 -1 411 1101.8)"/><circle cx="1.1" cy="1.1" r="1.1" transform="matrix(1 0 0 -1 440 1213)"/><circle cx="243.3" cy="1211.8" r="1.1"/><circle cx="165.5" cy="1294" r="1.1"/><circle cx="1.1" cy="1216.3" r="1.1"/><circle cx="1.1" cy="1.1" r="1.1" transform="matrix(1 0 0 -1 351 1084)"/><circle cx="1.1" cy="1.1" r="1.1" transform="matrix(1 0 0 -1 380 1195.2)"/><circle cx="245.5" cy="1171.8" r="1.1"/><circle cx="167.8" cy="1254" r="1.1"/><circle cx="3.3" cy="1176.3" r="1.1"/><circle cx="1.1" cy="1.1" r="1.1" transform="matrix(1 0 0 -1 353.3 1124)"/><circle cx="1.1" cy="1.1" r="1.1" transform="matrix(1 0 0 -1 382.2 1235.1)"/><circle cx="184.4" cy="1190.7" r="2.2"/><circle cx="377.7" cy="1117.4" r="2.2"/><circle cx="124.4" cy="1126.3" r="2.2"/><ellipse cx="131.1" cy="1169.6" rx="2.2" ry="1.1"/><ellipse cx="324.4" cy="1300.7" rx="2.2" ry="1.1"/><ellipse cx="133.3" cy="1236.3" rx="2.2" ry="1.1"/><ellipse cx="242.2" cy="1145.2" rx="2.2" ry="1.1"/><path d="m168.9 1121.8 1.6 11.8 11.7 1.6-11.7 1.6-1.6 11.7-1.6-11.7-11.8-1.6 11.8-1.7 1.6-11.7Z"/><path d="m364.4 1253 1.6 11.7 11.7 1.5-11.7 1.6-1.6 11.8-1.6-11.8-11.7-1.5 11.7-1.6 1.6-11.8Z"/><path d="m251 1221.8 1.6 5.1 5.1 1.6-5 1.5-1.6 5.1-1.6-5-5-1.6 5-1.6 1.6-5Z"/><circle cx="722.4" cy="713.3" r="4.4" transform="rotate(180 722.4 713.3)"/><circle cx="546.9" cy="748.9" r="2.2" transform="rotate(180 547 748.9)"/><circle cx="519.1" cy="834.4" r="1.1" transform="rotate(180 519.1 834.4)"/><circle cx="596.9" cy="752.2" r="1.1" transform="rotate(180 596.9 752.2)"/><circle cx="761.3" cy="830" r="1.1" transform="rotate(180 761.3 830)"/><circle cx="1.1" cy="1.1" r="1.1" transform="matrix(-1 0 0 1 411.4 731.1)"/><circle cx="1.1" cy="1.1" r="1.1" transform="matrix(-1 0 0 1 382.5 620)"/><circle cx="474.7" cy="725.5" r="1.1" transform="rotate(180 474.7 725.5)"/><circle cx="552.5" cy="643.3" r="1.1" transform="rotate(180 552.5 643.3)"/><circle cx="716.9" cy="721.1" r="1.1" transform="rotate(180 716.9 721.1)"/><circle cx="1.1" cy="1.1" r="1.1" transform="matrix(-1 0 0 1 367 840)"/><circle cx="1.1" cy="1.1" r="1.1" transform="matrix(-1 0 0 1 338 728.9)"/><circle cx="579.1" cy="803.3" r="1.1" transform="rotate(180 579.1 803.3)"/><circle cx="656.9" cy="721.1" r="1.1" transform="rotate(180 656.9 721.1)"/><circle cx="821.3" cy="798.9" r="1.1" transform="rotate(180 821.3 798.9)"/><circle cx="1.1" cy="1.1" r="1.1" transform="matrix(-1 0 0 1 471.4 762.2)"/><circle cx="1.1" cy="1.1" r="1.1" transform="matrix(-1 0 0 1 442.5 651.1)"/><circle cx="476.9" cy="796.6" r="1.1" transform="rotate(180 477 796.6)"/><circle cx="554.7" cy="714.4" r="1.1" transform="rotate(180 554.7 714.4)"/><circle cx="719.1" cy="792.2" r="1.1" transform="rotate(180 719.1 792.2)"/><circle cx="1.1" cy="1.1" r="1.1" transform="matrix(-1 0 0 1 369.1 768.9)"/><circle cx="1.1" cy="1.1" r="1.1" transform="matrix(-1 0 0 1 340.3 657.8)"/><circle cx="436.9" cy="763.3" r="1.1" transform="rotate(180 437 763.3)"/><circle cx="514.7" cy="681.1" r="1.1" transform="rotate(180 514.7 681.1)"/><circle cx="679.1" cy="758.9" r="1.1" transform="rotate(180 679.1 758.9)"/><circle cx="1.1" cy="1.1" r="1.1" transform="matrix(-1 0 0 1 329.2 802.2)"/><circle cx="1.1" cy="1.1" r="1.1" transform="matrix(-1 0 0 1 300.3 691.1)"/><circle cx="521.4" cy="736.7" r="1.1" transform="rotate(180 521.4 736.7)"/><circle cx="599.1" cy="654.4" r="1.1" transform="rotate(180 599.1 654.4)"/><circle cx="763.5" cy="732.2" r="1.1" transform="rotate(180 763.5 732.2)"/><circle cx="1.1" cy="1.1" r="1.1" transform="matrix(-1 0 0 1 413.6 828.9)"/><circle cx="1.1" cy="1.1" r="1.1" transform="matrix(-1 0 0 1 384.7 717.8)"/><circle cx="581.3" cy="718.9" r="1.1" transform="rotate(180 581.3 718.9)"/><circle cx="823.5" cy="714.4" r="1.1" transform="rotate(180 823.5 714.4)"/><circle cx="1.1" cy="1.1" r="1.1" transform="matrix(-1 0 0 1 473.6 846.6)"/><circle cx="1.1" cy="1.1" r="1.1" transform="matrix(-1 0 0 1 444.7 735.5)"/><circle cx="579.1" cy="758.9" r="1.1" transform="rotate(180 579.1 758.9)"/><circle cx="656.9" cy="676.7" r="1.1" transform="rotate(180 656.9 676.7)"/><circle cx="821.3" cy="754.4" r="1.1" transform="rotate(180 821.3 754.4)"/><circle cx="1.1" cy="1.1" r="1.1" transform="matrix(-1 0 0 1 471.4 806.6)"/><circle cx="1.1" cy="1.1" r="1.1" transform="matrix(-1 0 0 1 442.5 695.5)"/><circle cx="640.2" cy="740" r="2.2" transform="rotate(180 640.2 740)"/><circle cx="446.9" cy="813.3" r="2.2" transform="rotate(180 447 813.3)"/><circle cx="700.2" cy="804.4" r="2.2" transform="rotate(180 700.2 804.4)"/><ellipse cx="693.6" cy="761.1" rx="2.2" ry="1.1" transform="rotate(180 693.6 761)"/><ellipse cx="500.2" cy="630" rx="2.2" ry="1.1" transform="rotate(180 500.2 630)"/><ellipse cx="691.3" cy="694.4" rx="2.2" ry="1.1" transform="rotate(180 691.3 694.4)"/><ellipse cx="582.5" cy="785.5" rx="2.2" ry="1.1" transform="rotate(180 582.5 785.5)"/><path d="m573.6 708.9-1.6-5.1-5.1-1.6 5.1-1.5 1.6-5.2 1.5 5.2 5.1 1.5-5 1.6-1.6 5Z"/><circle cx="722.4" cy="944.2" r="4.4" transform="rotate(180 722.4 944.2)"/><circle cx="546.9" cy="979.8" r="2.2" transform="rotate(180 547 979.8)"/><circle cx="519.1" cy="1065.3" r="1.1" transform="rotate(180 519.1 1065.3)"/><circle cx="596.9" cy="983.1" r="1.1" transform="rotate(180 596.9 983.1)"/><circle cx="761.3" cy="1060.9" r="1.1" transform="rotate(180 761.3 1060.9)"/><circle cx="1.1" cy="1.1" r="1.1" transform="matrix(-1 0 0 1 411.4 962)"/><circle cx="1.1" cy="1.1" r="1.1" transform="matrix(-1 0 0 1 382.5 851)"/><circle cx="474.7" cy="956.5" r="1.1" transform="rotate(180 474.7 956.5)"/><circle cx="552.5" cy="874.2" r="1.1" transform="rotate(180 552.5 874.2)"/><circle cx="716.9" cy="952" r="1.1" transform="rotate(180 716.9 952)"/><circle cx="1.1" cy="1.1" r="1.1" transform="matrix(-1 0 0 1 367 1070.9)"/><circle cx="1.1" cy="1.1" r="1.1" transform="matrix(-1 0 0 1 338 959.8)"/><circle cx="579.1" cy="1034.2" r="1.1" transform="rotate(180 579.1 1034.2)"/><circle cx="656.9" cy="952" r="1.1" transform="rotate(180 656.9 952)"/><circle cx="821.3" cy="1029.8" r="1.1" transform="rotate(180 821.3 1029.8)"/><circle cx="1.1" cy="1.1" r="1.1" transform="matrix(-1 0 0 1 471.4 993.1)"/><circle cx="1.1" cy="1.1" r="1.1" transform="matrix(-1 0 0 1 442.5 882)"/><circle cx="476.9" cy="1027.6" r="1.1" transform="rotate(180 477 1027.6)"/><circle cx="554.7" cy="945.3" r="1.1" transform="rotate(180 554.7 945.3)"/><circle cx="719.1" cy="1023.1" r="1.1" transform="rotate(180 719.1 1023.1)"/><circle cx="1.1" cy="1.1" r="1.1" transform="matrix(-1 0 0 1 369.1 999.8)"/><circle cx="1.1" cy="1.1" r="1.1" transform="matrix(-1 0 0 1 340.3 888.7)"/><circle cx="436.9" cy="994.2" r="1.1" transform="rotate(180 437 994.2)"/><circle cx="514.7" cy="912" r="1.1" transform="rotate(180 514.7 912)"/><circle cx="679.1" cy="989.8" r="1.1" transform="rotate(180 679.1 989.8)"/><circle cx="1.1" cy="1.1" r="1.1" transform="matrix(-1 0 0 1 329.2 1033.1)"/><circle cx="1.1" cy="1.1" r="1.1" transform="matrix(-1 0 0 1 300.3 922)"/><circle cx="521.4" cy="967.6" r="1.1" transform="rotate(180 521.4 967.6)"/><circle cx="599.1" cy="885.4" r="1.1" transform="rotate(180 599.1 885.4)"/><circle cx="763.5" cy="963.1" r="1.1" transform="rotate(180 763.5 963.1)"/><circle cx="1.1" cy="1.1" r="1.1" transform="matrix(-1 0 0 1 413.6 1059.8)"/><circle cx="1.1" cy="1.1" r="1.1" transform="matrix(-1 0 0 1 384.7 948.7)"/><circle cx="581.3" cy="949.8" r="1.1" transform="rotate(180 581.3 949.8)"/><circle cx="659.1" cy="867.6" r="1.1" transform="rotate(180 659.1 867.6)"/><circle cx="823.5" cy="945.3" r="1.1" transform="rotate(180 823.5 945.3)"/><circle cx="1.1" cy="1.1" r="1.1" transform="matrix(-1 0 0 1 473.6 1077.5)"/><circle cx="1.1" cy="1.1" r="1.1" transform="matrix(-1 0 0 1 444.7 966.5)"/><circle cx="579.1" cy="989.8" r="1.1" transform="rotate(180 579.1 989.8)"/><circle cx="656.9" cy="907.6" r="1.1" transform="rotate(180 656.9 907.6)"/><circle cx="821.3" cy="985.3" r="1.1" transform="rotate(180 821.3 985.3)"/><circle cx="1.1" cy="1.1" r="1.1" transform="matrix(-1 0 0 1 471.4 1037.5)"/><circle cx="1.1" cy="1.1" r="1.1" transform="matrix(-1 0 0 1 442.5 926.5)"/><circle cx="640.2" cy="970.9" r="2.2" transform="rotate(180 640.2 970.9)"/><circle cx="446.9" cy="1044.2" r="2.2" transform="rotate(180 447 1044.2)"/><circle cx="700.2" cy="1035.3" r="2.2" transform="rotate(180 700.2 1035.3)"/><ellipse cx="693.6" cy="992" rx="2.2" ry="1.1" transform="rotate(180 693.6 992)"/><ellipse cx="500.2" cy="860.9" rx="2.2" ry="1.1" transform="rotate(180 500.2 861)"/><ellipse cx="691.3" cy="925.4" rx="2.2" ry="1.1" transform="rotate(180 691.3 925.4)"/><ellipse cx="582.5" cy="1016.5" rx="2.2" ry="1.1" transform="rotate(180 582.5 1016.5)"/><path d="m655.8 1039.8-1.6-11.8-11.8-1.5 11.8-1.7 1.6-11.7 1.6 11.7 11.7 1.7-11.7 1.5-1.6 11.8Z"/><path d="m573.6 939.8-1.6-5.1-5.1-1.6 5.1-1.5 1.6-5.1 1.5 5 5.1 1.6-5 1.6-1.6 5Z"/><circle cx="602.5" cy="1244" r="6.7" transform="rotate(180 602.5 1244)"/><circle cx="722.4" cy="1175.2" r="4.4" transform="rotate(180 722.4 1175.2)"/><circle cx="546.9" cy="1210.7" r="2.2" transform="rotate(180 547 1210.7)"/><circle cx="519.1" cy="1296.2" r="1.1" transform="rotate(180 519.1 1296.2)"/><circle cx="596.9" cy="1214" r="1.1" transform="rotate(180 596.9 1214)"/><circle cx="761.3" cy="1291.8" r="1.1" transform="rotate(180 761.3 1291.8)"/><circle cx="1.1" cy="1.1" r="1.1" transform="matrix(-1 0 0 1 411.4 1193)"/><circle cx="1.1" cy="1.1" r="1.1" transform="matrix(-1 0 0 1 382.5 1081.8)"/><circle cx="474.7" cy="1187.4" r="1.1" transform="rotate(180 474.7 1187.4)"/><circle cx="552.5" cy="1105.2" r="1.1" transform="rotate(180 552.5 1105.2)"/><circle cx="716.9" cy="1182.9" r="1.1" transform="rotate(180 716.9 1183)"/><circle cx="1.1" cy="1.1" r="1.1" transform="matrix(-1 0 0 1 367 1301.8)"/><circle cx="1.1" cy="1.1" r="1.1" transform="matrix(-1 0 0 1 338 1190.7)"/><circle cx="579.1" cy="1265.1" r="1.1" transform="rotate(180 579.1 1265.1)"/><circle cx="656.9" cy="1182.9" r="1.1" transform="rotate(180 656.9 1183)"/><circle cx="821.3" cy="1260.7" r="1.1" transform="rotate(180 821.3 1260.7)"/><circle cx="1.1" cy="1.1" r="1.1" transform="matrix(-1 0 0 1 471.4 1224)"/><circle cx="1.1" cy="1.1" r="1.1" transform="matrix(-1 0 0 1 442.5 1113)"/><circle cx="476.9" cy="1258.5" r="1.1" transform="rotate(180 477 1258.5)"/><circle cx="554.7" cy="1176.3" r="1.1" transform="rotate(180 554.7 1176.3)"/><circle cx="719.1" cy="1254" r="1.1" transform="rotate(180 719.1 1254)"/><circle cx="1.1" cy="1.1" r="1.1" transform="matrix(-1 0 0 1 369.1 1230.7)"/><circle cx="1.1" cy="1.1" r="1.1" transform="matrix(-1 0 0 1 340.3 1119.6)"/><circle cx="436.9" cy="1225.1" r="1.1" transform="rotate(180 437 1225.1)"/><circle cx="514.7" cy="1142.9" r="1.1" transform="rotate(180 514.7 1143)"/><circle cx="679.1" cy="1220.7" r="1.1" transform="rotate(180 679.1 1220.7)"/><circle cx="1.1" cy="1.1" r="1.1" transform="matrix(-1 0 0 1 329.2 1264)"/><circle cx="1.1" cy="1.1" r="1.1" transform="matrix(-1 0 0 1 300.3 1153)"/><circle cx="521.4" cy="1198.5" r="1.1" transform="rotate(180 521.4 1198.5)"/><circle cx="599.1" cy="1116.3" r="1.1" transform="rotate(180 599.1 1116.3)"/><circle cx="763.5" cy="1194" r="1.1" transform="rotate(180 763.5 1194)"/><circle cx="1.1" cy="1.1" r="1.1" transform="matrix(-1 0 0 1 413.6 1290.7)"/><circle cx="1.1" cy="1.1" r="1.1" transform="matrix(-1 0 0 1 384.7 1179.6)"/><circle cx="581.3" cy="1180.7" r="1.1" transform="rotate(180 581.3 1180.7)"/><circle cx="659.1" cy="1098.5" r="1.1" transform="rotate(180 659.1 1098.5)"/><circle cx="823.5" cy="1176.3" r="1.1" transform="rotate(180 823.5 1176.3)"/><circle cx="1.1" cy="1.1" r="1.1" transform="matrix(-1 0 0 1 473.6 1308.5)"/><circle cx="1.1" cy="1.1" r="1.1" transform="matrix(-1 0 0 1 444.7 1197.4)"/><circle cx="579.1" cy="1220.7" r="1.1" transform="rotate(180 579.1 1220.7)"/><circle cx="656.9" cy="1138.5" r="1.1" transform="rotate(180 656.9 1138.5)"/><circle cx="821.3" cy="1216.3" r="1.1" transform="rotate(180 821.3 1216.3)"/><circle cx="1.1" cy="1.1" r="1.1" transform="matrix(-1 0 0 1 471.4 1268.5)"/><circle cx="1.1" cy="1.1" r="1.1" transform="matrix(-1 0 0 1 442.5 1157.4)"/><circle cx="640.2" cy="1201.8" r="2.2" transform="rotate(180 640.2 1201.8)"/><circle cx="446.9" cy="1275.1" r="2.2" transform="rotate(180 447 1275.1)"/><circle cx="700.2" cy="1266.3" r="2.2" transform="rotate(180 700.2 1266.3)"/><ellipse cx="693.6" cy="1222.9" rx="2.2" ry="1.1" transform="rotate(180 693.6 1223)"/><ellipse cx="500.2" cy="1091.8" rx="2.2" ry="1.1" transform="rotate(180 500.2 1091.8)"/><ellipse cx="691.3" cy="1156.3" rx="2.2" ry="1.1" transform="rotate(180 691.3 1156.3)"/><ellipse cx="582.5" cy="1247.4" rx="2.2" ry="1.1" transform="rotate(180 582.5 1247.4)"/><path d="m655.8 1270.7-1.6-11.7-11.8-1.6 11.8-1.6 1.6-11.8 1.6 11.8 11.7 1.6-11.7 1.6-1.6 11.7Z"/><path d="m573.6 1170.7-1.6-5.1-5.1-1.6 5.1-1.5 1.6-5.1 1.5 5 5.1 1.6-5 1.6-1.6 5.1Z"/></g><g opacity=".8"><circle cx="982.2" cy="66.7" r="6.7"/><circle cx="862.2" cy="135.5" r="4.4"/><circle cx="1037.7" cy="100" r="2.2"/><circle cx="1065.5" cy="14.4" r="1.1"/><circle cx="987.8" cy="96.7" r="1.1"/><circle cx="823.3" cy="18.9" r="1.1"/><circle cx="1.1" cy="1.1" r="1.1" transform="matrix(1 0 0 -1 1173.3 117.8)"/><circle cx="1.1" cy="1.1" r="1.1" transform="matrix(1 0 0 -1 1202.2 228.9)"/><circle cx="1110" cy="123.3" r="1.1"/><circle cx="1032.2" cy="205.5" r="1.1"/><circle cx="867.8" cy="127.8" r="1.1"/><circle cx="1.1" cy="1.1" r="1.1" transform="matrix(1 0 0 -1 1217.7 8.9)"/><circle cx="1.1" cy="1.1" r="1.1" transform="matrix(1 0 0 -1 1246.6 120)"/><circle cx="1005.5" cy="45.5" r="1.1"/><circle cx="927.8" cy="127.8" r="1.1"/><circle cx="763.3" cy="50" r="1.1"/><circle cx="1.1" cy="1.1" r="1.1" transform="matrix(1 0 0 -1 1113.3 86.7)"/><circle cx="1.1" cy="1.1" r="1.1" transform="matrix(1 0 0 -1 1142.2 197.8)"/><circle cx="1107.7" cy="52.2" r="1.1"/><circle cx="1030" cy="134.4" r="1.1"/><circle cx="865.5" cy="56.7" r="1.1"/><circle cx="1.1" cy="1.1" r="1.1" transform="matrix(1 0 0 -1 1215.5 80)"/><circle cx="1.1" cy="1.1" r="1.1" transform="matrix(1 0 0 -1 1244.4 191)"/><circle cx="1147.7" cy="85.5" r="1.1"/><circle cx="1070" cy="167.8" r="1.1"/><circle cx="905.5" cy="90" r="1.1"/><circle cx="1.1" cy="1.1" r="1.1" transform="matrix(1 0 0 -1 1255.5 46.7)"/><circle cx="1.1" cy="1.1" r="1.1" transform="matrix(1 0 0 -1 1284.4 157.8)"/><circle cx="1063.3" cy="112.2" r="1.1"/><circle cx="985.5" cy="194.4" r="1.1"/><circle cx="821.1" cy="116.7" r="1.1"/><circle cx="1.1" cy="1.1" r="1.1" transform="matrix(1 0 0 -1 1171 20)"/><circle cx="1.1" cy="1.1" r="1.1" transform="matrix(1 0 0 -1 1200 131)"/><circle cx="1003.3" cy="130" r="1.1"/><circle cx="925.5" cy="212.2" r="1.1"/><circle cx="761.1" cy="134.4" r="1.1"/><circle cx="1.1" cy="1.1" r="1.1" transform="matrix(1 0 0 -1 1111 2.2)"/><circle cx="1.1" cy="1.1" r="1.1" transform="matrix(1 0 0 -1 1140 113.3)"/><circle cx="1005.5" cy="90" r="1.1"/><circle cx="927.8" cy="172.2" r="1.1"/><circle cx="763.3" cy="94.4" r="1.1"/><circle cx="1.1" cy="1.1" r="1.1" transform="matrix(1 0 0 -1 1113.3 42.2)"/><circle cx="1.1" cy="1.1" r="1.1" transform="matrix(1 0 0 -1 1142.2 153.3)"/><circle cx="944.4" cy="108.9" r="2.2"/><circle cx="1137.7" cy="35.6" r="2.2"/><circle cx="884.4" cy="44.4" r="2.2"/><ellipse cx="891.1" cy="87.8" rx="2.2" ry="1.1"/><ellipse cx="1084.4" cy="218.9" rx="2.2" ry="1.1"/><ellipse cx="893.3" cy="154.4" rx="2.2" ry="1.1"/><ellipse cx="1002.2" cy="63.3" rx="2.2" ry="1.1"/><path d="m928.9 40 1.6 11.7 11.7 1.6-11.7 1.6-1.6 11.8-1.6-11.8-11.8-1.6 11.8-1.6 1.6-11.7Z"/><path d="m1011 140 1.6 5.1 5.1 1.5-5 1.6-1.6 5.1-1.6-5.1-5-1.6 5-1.5 1.6-5.1Z"/><circle cx="1037.7" cy="330.9" r="2.2"/><circle cx="1065.5" cy="245.4" r="1.1"/><circle cx="987.8" cy="327.6" r="1.1"/><circle cx="823.3" cy="249.8" r="1.1"/><circle cx="1.1" cy="1.1" r="1.1" transform="matrix(1 0 0 -1 1173.3 348.7)"/><circle cx="1.1" cy="1.1" r="1.1" transform="matrix(1 0 0 -1 1202.2 459.8)"/><circle cx="1110" cy="354.2" r="1.1"/><circle cx="1032.2" cy="436.4" r="1.1"/><circle cx="867.8" cy="358.7" r="1.1"/><circle cx="1.1" cy="1.1" r="1.1" transform="matrix(1 0 0 -1 1217.7 239.8)"/><circle cx="1.1" cy="1.1" r="1.1" transform="matrix(1 0 0 -1 1246.6 350.9)"/><circle cx="1005.5" cy="276.5" r="1.1"/><circle cx="927.8" cy="358.7" r="1.1"/><circle cx="763.3" cy="280.9" r="1.1"/><circle cx="1.1" cy="1.1" r="1.1" transform="matrix(1 0 0 -1 1113.3 317.6)"/><circle cx="1.1" cy="1.1" r="1.1" transform="matrix(1 0 0 -1 1142.2 428.7)"/><circle cx="1107.7" cy="283.1" r="1.1"/><circle cx="1030" cy="365.3" r="1.1"/><circle cx="865.5" cy="287.6" r="1.1"/><circle cx="1.1" cy="1.1" r="1.1" transform="matrix(1 0 0 -1 1215.5 311)"/><circle cx="1.1" cy="1.1" r="1.1" transform="matrix(1 0 0 -1 1244.4 422)"/><circle cx="1147.7" cy="316.5" r="1.1"/><circle cx="1070" cy="398.7" r="1.1"/><circle cx="905.5" cy="320.9" r="1.1"/><circle cx="1.1" cy="1.1" r="1.1" transform="matrix(1 0 0 -1 1255.5 277.6)"/><circle cx="1.1" cy="1.1" r="1.1" transform="matrix(1 0 0 -1 1284.4 388.7)"/><circle cx="1063.3" cy="343.1" r="1.1"/><circle cx="985.5" cy="425.3" r="1.1"/><circle cx="821.1" cy="347.6" r="1.1"/><circle cx="1.1" cy="1.1" r="1.1" transform="matrix(1 0 0 -1 1171 251)"/><circle cx="1.1" cy="1.1" r="1.1" transform="matrix(1 0 0 -1 1200 362)"/><circle cx="1003.3" cy="360.9" r="1.1"/><circle cx="925.5" cy="443.1" r="1.1"/><circle cx="761.1" cy="365.3" r="1.1"/><circle cx="1.1" cy="1.1" r="1.1" transform="matrix(1 0 0 -1 1111 233.1)"/><circle cx="1.1" cy="1.1" r="1.1" transform="matrix(1 0 0 -1 1140 344.2)"/><circle cx="1005.5" cy="320.9" r="1.1"/><circle cx="927.8" cy="403.1" r="1.1"/><circle cx="763.3" cy="325.3" r="1.1"/><circle cx="1.1" cy="1.1" r="1.1" transform="matrix(1 0 0 -1 1113.3 273.1)"/><circle cx="1.1" cy="1.1" r="1.1" transform="matrix(1 0 0 -1 1142.2 384.2)"/><circle cx="944.4" cy="339.8" r="2.2"/><circle cx="1137.7" cy="266.5" r="2.2"/><circle cx="884.4" cy="275.4" r="2.2"/><ellipse cx="891.1" cy="318.7" rx="2.2" ry="1.1"/><ellipse cx="1084.4" cy="449.8" rx="2.2" ry="1.1"/><ellipse cx="893.3" cy="385.3" rx="2.2" ry="1.1"/><ellipse cx="1002.2" cy="294.2" rx="2.2" ry="1.1"/><path d="m1011 370.9 1.6 5.1 5.1 1.6-5 1.5-1.6 5.1-1.6-5-5-1.6 5-1.6 1.6-5.1Z"/><circle cx="1037.7" cy="561.8" r="2.2"/><circle cx="1065.5" cy="476.3" r="1.1"/><circle cx="987.8" cy="558.5" r="1.1"/><circle cx="823.3" cy="480.7" r="1.1"/><circle cx="1.1" cy="1.1" r="1.1" transform="matrix(1 0 0 -1 1173.3 579.6)"/><circle cx="1.1" cy="1.1" r="1.1" transform="matrix(1 0 0 -1 1202.2 690.7)"/><circle cx="1110" cy="585.1" r="1.1"/><circle cx="1032.2" cy="667.4" r="1.1"/><circle cx="867.8" cy="589.6" r="1.1"/><circle cx="1.1" cy="1.1" r="1.1" transform="matrix(1 0 0 -1 1217.7 470.7)"/><circle cx="1.1" cy="1.1" r="1.1" transform="matrix(1 0 0 -1 1246.6 581.8)"/><circle cx="1005.5" cy="507.4" r="1.1"/><circle cx="927.8" cy="589.6" r="1.1"/><circle cx="763.3" cy="511.8" r="1.1"/><circle cx="1.1" cy="1.1" r="1.1" transform="matrix(1 0 0 -1 1113.3 548.5)"/><circle cx="1.1" cy="1.1" r="1.1" transform="matrix(1 0 0 -1 1142.2 659.6)"/><circle cx="1107.7" cy="514" r="1.1"/><circle cx="1030" cy="596.3" r="1.1"/><circle cx="865.5" cy="518.5" r="1.1"/><circle cx="1.1" cy="1.1" r="1.1" transform="matrix(1 0 0 -1 1215.5 541.8)"/><circle cx="1.1" cy="1.1" r="1.1" transform="matrix(1 0 0 -1 1244.4 653)"/><circle cx="1147.7" cy="547.4" r="1.1"/><circle cx="1070" cy="629.6" r="1.1"/><circle cx="905.5" cy="551.8" r="1.1"/><circle cx="1.1" cy="1.1" r="1.1" transform="matrix(1 0 0 -1 1255.5 508.5)"/><circle cx="1.1" cy="1.1" r="1.1" transform="matrix(1 0 0 -1 1284.4 619.6)"/><circle cx="1063.3" cy="574" r="1.1"/><circle cx="985.5" cy="656.2" r="1.1"/><circle cx="821.1" cy="578.5" r="1.1"/><circle cx="1.1" cy="1.1" r="1.1" transform="matrix(1 0 0 -1 1171 481.8)"/><circle cx="1.1" cy="1.1" r="1.1" transform="matrix(1 0 0 -1 1200 593)"/><circle cx="1003.3" cy="591.8" r="1.1"/><circle cx="925.5" cy="674" r="1.1"/><circle cx="761.1" cy="596.3" r="1.1"/><circle cx="1.1" cy="1.1" r="1.1" transform="matrix(1 0 0 -1 1111 464)"/><circle cx="1.1" cy="1.1" r="1.1" transform="matrix(1 0 0 -1 1140 575.1)"/><circle cx="1005.5" cy="551.8" r="1.1"/><circle cx="927.8" cy="634" r="1.1"/><circle cx="763.3" cy="556.3" r="1.1"/><circle cx="1.1" cy="1.1" r="1.1" transform="matrix(1 0 0 -1 1113.3 504)"/><circle cx="1.1" cy="1.1" r="1.1" transform="matrix(1 0 0 -1 1142.2 615.1)"/><circle cx="944.4" cy="570.7" r="2.2"/><circle cx="1137.7" cy="497.4" r="2.2"/><circle cx="884.4" cy="506.3" r="2.2"/><ellipse cx="891.1" cy="549.6" rx="2.2" ry="1.1"/><ellipse cx="1084.4" cy="680.7" rx="2.2" ry="1.1"/><ellipse cx="893.3" cy="616.3" rx="2.2" ry="1.1"/><ellipse cx="1002.2" cy="525.2" rx="2.2" ry="1.1"/><path d="m1011 601.8 1.6 5.1 5.1 1.6-5 1.5-1.6 5.1-1.6-5-5-1.6 5-1.6 1.6-5Z"/><circle cx="1482.4" cy="93.3" r="4.4" transform="rotate(180 1482.4 93.3)"/><circle cx="1306.9" cy="128.9" r="2.2" transform="rotate(180 1307 128.9)"/><circle cx="1279.1" cy="214.4" r="1.1" transform="rotate(180 1279.1 214.4)"/><circle cx="1356.9" cy="132.2" r="1.1" transform="rotate(180 1356.9 132.2)"/><circle cx="1521.3" cy="210" r="1.1" transform="rotate(180 1521.3 210)"/><circle cx="1.1" cy="1.1" r="1.1" transform="matrix(-1 0 0 1 1171.4 111.1)"/><circle cx="1.1" cy="1.1" r="1.1" transform="matrix(-1 0 0 1 1142.5 0)"/><circle cx="1234.7" cy="105.5" r="1.1" transform="rotate(180 1234.7 105.5)"/><circle cx="1312.5" cy="23.3" r="1.1" transform="rotate(180 1312.5 23.3)"/><circle cx="1476.9" cy="101.1" r="1.1" transform="rotate(180 1476.9 101.1)"/><circle cx="1.1" cy="1.1" r="1.1" transform="matrix(-1 0 0 1 1127 220)"/><circle cx="1.1" cy="1.1" r="1.1" transform="matrix(-1 0 0 1 1098 108.9)"/><circle cx="1339.1" cy="183.3" r="1.1" transform="rotate(180 1339.1 183.3)"/><circle cx="1416.9" cy="101.1" r="1.1" transform="rotate(180 1416.9 101.1)"/><circle cx="1581.3" cy="178.9" r="1.1" transform="rotate(180 1581.3 178.9)"/><circle cx="1.1" cy="1.1" r="1.1" transform="matrix(-1 0 0 1 1231.4 142.2)"/><circle cx="1.1" cy="1.1" r="1.1" transform="matrix(-1 0 0 1 1202.5 31.1)"/><circle cx="1236.9" cy="176.6" r="1.1" transform="rotate(180 1237 176.6)"/><circle cx="1314.7" cy="94.4" r="1.1" transform="rotate(180 1314.7 94.4)"/><circle cx="1479.1" cy="172.2" r="1.1" transform="rotate(180 1479.1 172.2)"/><circle cx="1.1" cy="1.1" r="1.1" transform="matrix(-1 0 0 1 1129.2 148.9)"/><circle cx="1.1" cy="1.1" r="1.1" transform="matrix(-1 0 0 1 1100.3 37.8)"/><circle cx="1196.9" cy="143.3" r="1.1" transform="rotate(180 1197 143.3)"/><circle cx="1274.7" cy="61.1" r="1.1" transform="rotate(180 1274.7 61.1)"/><circle cx="1439.1" cy="138.9" r="1.1" transform="rotate(180 1439.1 138.9)"/><circle cx="1.1" cy="1.1" r="1.1" transform="matrix(-1 0 0 1 1089.2 182.2)"/><circle cx="1.1" cy="1.1" r="1.1" transform="matrix(-1 0 0 1 1060.3 71.1)"/><circle cx="1281.3" cy="116.7" r="1.1" transform="rotate(180 1281.3 116.7)"/><circle cx="1359.1" cy="34.4" r="1.1" transform="rotate(180 1359.1 34.4)"/><circle cx="1523.5" cy="112.2" r="1.1" transform="rotate(180 1523.5 112.2)"/><circle cx="1.1" cy="1.1" r="1.1" transform="matrix(-1 0 0 1 1173.6 208.9)"/><circle cx="1.1" cy="1.1" r="1.1" transform="matrix(-1 0 0 1 1144.7 97.8)"/><circle cx="1341.3" cy="98.9" r="1.1" transform="rotate(180 1341.3 98.9)"/><circle cx="1419.1" cy="16.7" r="1.1" transform="rotate(180 1419.1 16.7)"/><circle cx="1583.5" cy="94.4" r="1.1" transform="rotate(180 1583.5 94.4)"/><circle cx="1.1" cy="1.1" r="1.1" transform="matrix(-1 0 0 1 1233.6 226.6)"/><circle cx="1.1" cy="1.1" r="1.1" transform="matrix(-1 0 0 1 1204.7 115.5)"/><circle cx="1339.1" cy="138.9" r="1.1" transform="rotate(180 1339.1 138.9)"/><circle cx="1416.9" cy="56.7" r="1.1" transform="rotate(180 1416.9 56.7)"/><circle cx="1581.3" cy="134.4" r="1.1" transform="rotate(180 1581.3 134.4)"/><circle cx="1.1" cy="1.1" r="1.1" transform="matrix(-1 0 0 1 1231.4 186.6)"/><circle cx="1.1" cy="1.1" r="1.1" transform="matrix(-1 0 0 1 1202.5 75.5)"/><circle cx="1400.2" cy="120" r="2.2" transform="rotate(180 1400.2 120)"/><circle cx="1206.9" cy="193.3" r="2.2" transform="rotate(180 1207 193.3)"/><circle cx="1460.2" cy="184.4" r="2.2" transform="rotate(180 1460.2 184.4)"/><ellipse cx="1453.5" cy="141.1" rx="2.2" ry="1.1" transform="rotate(180 1453.5 141)"/><ellipse cx="1260.3" cy="10" rx="2.2" ry="1.1" transform="rotate(180 1260.3 10)"/><ellipse cx="1451.3" cy="74.4" rx="2.2" ry="1.1" transform="rotate(180 1451.3 74.4)"/><ellipse cx="1342.5" cy="165.5" rx="2.2" ry="1.1" transform="rotate(180 1342.5 165.5)"/><path d="m1220.3 57.8-1.6-11.8-11.8-1.6 11.8-1.6 1.5-11.7 1.6 11.7 11.8 1.6-11.8 1.6-1.5 11.8Z"/><path d="m1333.6 88.9-1.6-5.1-5.1-1.6 5.1-1.5 1.6-5.2 1.5 5.2 5.1 1.5-5 1.6-1.6 5Z"/><circle cx="1482.4" cy="324.2" r="4.4" transform="rotate(180 1482.4 324.2)"/><circle cx="1306.9" cy="359.8" r="2.2" transform="rotate(180 1307 359.8)"/><circle cx="1279.1" cy="445.3" r="1.1" transform="rotate(180 1279.1 445.3)"/><circle cx="1356.9" cy="363.1" r="1.1" transform="rotate(180 1356.9 363.1)"/><circle cx="1521.3" cy="440.9" r="1.1" transform="rotate(180 1521.3 440.9)"/><circle cx="1.1" cy="1.1" r="1.1" transform="matrix(-1 0 0 1 1171.4 342)"/><circle cx="1.1" cy="1.1" r="1.1" transform="matrix(-1 0 0 1 1142.5 231)"/><circle cx="1234.7" cy="336.5" r="1.1" transform="rotate(180 1234.7 336.5)"/><circle cx="1312.5" cy="254.2" r="1.1" transform="rotate(180 1312.5 254.2)"/><circle cx="1476.9" cy="332" r="1.1" transform="rotate(180 1476.9 332)"/><circle cx="1.1" cy="1.1" r="1.1" transform="matrix(-1 0 0 1 1127 450.9)"/><circle cx="1.1" cy="1.1" r="1.1" transform="matrix(-1 0 0 1 1098 339.8)"/><circle cx="1339.1" cy="414.2" r="1.1" transform="rotate(180 1339.1 414.2)"/><circle cx="1416.9" cy="332" r="1.1" transform="rotate(180 1416.9 332)"/><circle cx="1581.3" cy="409.8" r="1.1" transform="rotate(180 1581.3 409.8)"/><circle cx="1.1" cy="1.1" r="1.1" transform="matrix(-1 0 0 1 1231.4 373.1)"/><circle cx="1.1" cy="1.1" r="1.1" transform="matrix(-1 0 0 1 1202.5 262)"/><circle cx="1236.9" cy="407.6" r="1.1" transform="rotate(180 1237 407.6)"/><circle cx="1314.7" cy="325.3" r="1.1" transform="rotate(180 1314.7 325.3)"/><circle cx="1479.1" cy="403.1" r="1.1" transform="rotate(180 1479.1 403.1)"/><circle cx="1.1" cy="1.1" r="1.1" transform="matrix(-1 0 0 1 1129.2 379.8)"/><circle cx="1.1" cy="1.1" r="1.1" transform="matrix(-1 0 0 1 1100.3 268.7)"/><circle cx="1196.9" cy="374.2" r="1.1" transform="rotate(180 1197 374.2)"/><circle cx="1274.7" cy="292" r="1.1" transform="rotate(180 1274.7 292)"/><circle cx="1439.1" cy="369.8" r="1.1" transform="rotate(180 1439.1 369.8)"/><circle cx="1.1" cy="1.1" r="1.1" transform="matrix(-1 0 0 1 1089.2 413.1)"/><circle cx="1.1" cy="1.1" r="1.1" transform="matrix(-1 0 0 1 1060.3 302)"/><circle cx="1281.3" cy="347.6" r="1.1" transform="rotate(180 1281.3 347.6)"/><circle cx="1359.1" cy="265.4" r="1.1" transform="rotate(180 1359.1 265.4)"/><circle cx="1523.5" cy="343.1" r="1.1" transform="rotate(180 1523.5 343.1)"/><circle cx="1.1" cy="1.1" r="1.1" transform="matrix(-1 0 0 1 1173.6 439.8)"/><circle cx="1.1" cy="1.1" r="1.1" transform="matrix(-1 0 0 1 1144.7 328.7)"/><circle cx="1341.3" cy="329.8" r="1.1" transform="rotate(180 1341.3 329.8)"/><circle cx="1419.1" cy="247.6" r="1.1" transform="rotate(180 1419.1 247.6)"/><circle cx="1583.5" cy="325.3" r="1.1" transform="rotate(180 1583.5 325.3)"/><circle cx="1.1" cy="1.1" r="1.1" transform="matrix(-1 0 0 1 1233.6 457.6)"/><circle cx="1.1" cy="1.1" r="1.1" transform="matrix(-1 0 0 1 1204.7 346.5)"/><circle cx="1339.1" cy="369.8" r="1.1" transform="rotate(180 1339.1 369.8)"/><circle cx="1416.9" cy="287.6" r="1.1" transform="rotate(180 1416.9 287.6)"/><circle cx="1581.3" cy="365.3" r="1.1" transform="rotate(180 1581.3 365.3)"/><circle cx="1.1" cy="1.1" r="1.1" transform="matrix(-1 0 0 1 1231.4 417.6)"/><circle cx="1.1" cy="1.1" r="1.1" transform="matrix(-1 0 0 1 1202.5 306.5)"/><circle cx="1400.2" cy="350.9" r="2.2" transform="rotate(180 1400.2 350.9)"/><circle cx="1206.9" cy="424.2" r="2.2" transform="rotate(180 1207 424.2)"/><circle cx="1460.2" cy="415.3" r="2.2" transform="rotate(180 1460.2 415.3)"/><ellipse cx="1453.5" cy="372" rx="2.2" ry="1.1" transform="rotate(180 1453.5 372)"/><ellipse cx="1260.3" cy="240.9" rx="2.2" ry="1.1" transform="rotate(180 1260.3 241)"/><ellipse cx="1451.3" cy="305.4" rx="2.2" ry="1.1" transform="rotate(180 1451.3 305.4)"/><ellipse cx="1342.5" cy="396.4" rx="2.2" ry="1.1" transform="rotate(180 1342.5 396.4)"/><path d="m1415.8 419.8-1.6-11.8-11.8-1.6 11.8-1.6 1.6-11.7 1.6 11.7 11.7 1.6-11.7 1.6-1.6 11.8Z"/><path d="m1220.3 288.7-1.6-11.7-11.8-1.6 11.8-1.7 1.5-11.7 1.6 11.7 11.8 1.7-11.8 1.6-1.5 11.7Z"/><path d="m1333.6 319.8-1.6-5.1-5.1-1.6 5.1-1.5 1.6-5.1 1.5 5 5.1 1.6-5 1.6-1.6 5Z"/><circle cx="1482.4" cy="555.1" r="4.4" transform="rotate(180 1482.4 555.1)"/><circle cx="1306.9" cy="590.7" r="2.2" transform="rotate(180 1307 590.7)"/><circle cx="1279.1" cy="676.2" r="1.1" transform="rotate(180 1279.1 676.2)"/><circle cx="1356.9" cy="594" r="1.1" transform="rotate(180 1356.9 594)"/><circle cx="1521.3" cy="671.8" r="1.1" transform="rotate(180 1521.3 671.8)"/><circle cx="1.1" cy="1.1" r="1.1" transform="matrix(-1 0 0 1 1171.4 573)"/><circle cx="1.1" cy="1.1" r="1.1" transform="matrix(-1 0 0 1 1142.5 461.8)"/><circle cx="1234.7" cy="567.4" r="1.1" transform="rotate(180 1234.7 567.4)"/><circle cx="1312.5" cy="485.2" r="1.1" transform="rotate(180 1312.5 485.2)"/><circle cx="1476.9" cy="562.9" r="1.1" transform="rotate(180 1476.9 563)"/><circle cx="1.1" cy="1.1" r="1.1" transform="matrix(-1 0 0 1 1127 681.8)"/><circle cx="1.1" cy="1.1" r="1.1" transform="matrix(-1 0 0 1 1098 570.7)"/><circle cx="1339.1" cy="645.1" r="1.1" transform="rotate(180 1339.1 645.1)"/><circle cx="1416.9" cy="562.9" r="1.1" transform="rotate(180 1416.9 563)"/><circle cx="1581.3" cy="640.7" r="1.1" transform="rotate(180 1581.3 640.7)"/><circle cx="1.1" cy="1.1" r="1.1" transform="matrix(-1 0 0 1 1231.4 604)"/><circle cx="1.1" cy="1.1" r="1.1" transform="matrix(-1 0 0 1 1202.5 493)"/><circle cx="1236.9" cy="638.5" r="1.1" transform="rotate(180 1237 638.5)"/><circle cx="1314.7" cy="556.3" r="1.1" transform="rotate(180 1314.7 556.3)"/><circle cx="1479.1" cy="634" r="1.1" transform="rotate(180 1479.1 634)"/><circle cx="1.1" cy="1.1" r="1.1" transform="matrix(-1 0 0 1 1129.2 610.7)"/><circle cx="1.1" cy="1.1" r="1.1" transform="matrix(-1 0 0 1 1100.3 499.6)"/><circle cx="1196.9" cy="605.1" r="1.1" transform="rotate(180 1197 605.1)"/><circle cx="1274.7" cy="522.9" r="1.1" transform="rotate(180 1274.7 523)"/><circle cx="1439.1" cy="600.7" r="1.1" transform="rotate(180 1439.1 600.7)"/><circle cx="1.1" cy="1.1" r="1.1" transform="matrix(-1 0 0 1 1089.2 644)"/><circle cx="1.1" cy="1.1" r="1.1" transform="matrix(-1 0 0 1 1060.3 533)"/><circle cx="1281.3" cy="578.5" r="1.1" transform="rotate(180 1281.3 578.5)"/><circle cx="1359.1" cy="496.3" r="1.1" transform="rotate(180 1359.1 496.3)"/><circle cx="1523.5" cy="574" r="1.1" transform="rotate(180 1523.5 574)"/><circle cx="1.1" cy="1.1" r="1.1" transform="matrix(-1 0 0 1 1173.6 670.7)"/><circle cx="1.1" cy="1.1" r="1.1" transform="matrix(-1 0 0 1 1144.7 559.6)"/><circle cx="1341.3" cy="560.7" r="1.1" transform="rotate(180 1341.3 560.7)"/><circle cx="1419.1" cy="478.5" r="1.1" transform="rotate(180 1419.1 478.5)"/><circle cx="1583.5" cy="556.3" r="1.1" transform="rotate(180 1583.5 556.3)"/><circle cx="1.1" cy="1.1" r="1.1" transform="matrix(-1 0 0 1 1233.6 688.5)"/><circle cx="1.1" cy="1.1" r="1.1" transform="matrix(-1 0 0 1 1204.7 577.4)"/><circle cx="1339.1" cy="600.7" r="1.1" transform="rotate(180 1339.1 600.7)"/><circle cx="1416.9" cy="518.5" r="1.1" transform="rotate(180 1416.9 518.5)"/><circle cx="1581.3" cy="596.3" r="1.1" transform="rotate(180 1581.3 596.3)"/><circle cx="1.1" cy="1.1" r="1.1" transform="matrix(-1 0 0 1 1231.4 648.5)"/><circle cx="1.1" cy="1.1" r="1.1" transform="matrix(-1 0 0 1 1202.5 537.4)"/><circle cx="1400.2" cy="581.8" r="2.2" transform="rotate(180 1400.2 581.8)"/><circle cx="1206.9" cy="655.1" r="2.2" transform="rotate(180 1207 655.1)"/><circle cx="1460.2" cy="646.2" r="2.2" transform="rotate(180 1460.2 646.2)"/><ellipse cx="1453.5" cy="602.9" rx="2.2" ry="1.1" transform="rotate(180 1453.5 603)"/><ellipse cx="1260.3" cy="471.8" rx="2.2" ry="1.1" transform="rotate(180 1260.3 471.8)"/><ellipse cx="1451.3" cy="536.3" rx="2.2" ry="1.1" transform="rotate(180 1451.3 536.3)"/><ellipse cx="1342.5" cy="627.4" rx="2.2" ry="1.1" transform="rotate(180 1342.5 627.4)"/><path d="m1333.6 550.7-1.6-5.1-5.1-1.6 5.1-1.5 1.6-5.1 1.5 5 5.1 1.6-5 1.6-1.6 5.1Z"/></g><g opacity=".8"><circle cx="4.4" cy="4.4" r="4.4" transform="matrix(-1 0 0 1 1376.9 553)"/><circle cx="2.2" cy="2.2" r="2.2" transform="matrix(-1 0 0 1 1199.1 519.8)"/><circle cx="1.1" cy="1.1" r="1.1" transform="matrix(-1 0 0 1 1170.2 435.3)"/><circle cx="1.1" cy="1.1" r="1.1" transform="matrix(-1 0 0 1 1248 517.5)"/><circle cx="1.1" cy="1.1" r="1.1" transform="matrix(-1 0 0 1 1412.4 439.8)"/><circle cx="1060.3" cy="538.7" r="1.1" transform="rotate(180 1060.3 538.7)"/><circle cx="1031.4" cy="649.7" r="1.1" transform="rotate(180 1031.4 649.7)"/><circle cx="1.1" cy="1.1" r="1.1" transform="matrix(-1 0 0 1 1125.8 544.2)"/><circle cx="1.1" cy="1.1" r="1.1" transform="matrix(-1 0 0 1 1203.6 626.4)"/><circle cx="1.1" cy="1.1" r="1.1" transform="matrix(-1 0 0 1 1368 548.7)"/><circle cx="1015.8" cy="429.8" r="1.1" transform="rotate(180 1015.8 429.8)"/><circle cx="986.9" cy="540.9" r="1.1" transform="rotate(180 987 540.9)"/><circle cx="1.1" cy="1.1" r="1.1" transform="matrix(-1 0 0 1 1230.2 466.4)"/><circle cx="1.1" cy="1.1" r="1.1" transform="matrix(-1 0 0 1 1308 548.7)"/><circle cx="1.1" cy="1.1" r="1.1" transform="matrix(-1 0 0 1 1472.4 470.9)"/><circle cx="1120.3" cy="507.5" r="1.1" transform="rotate(180 1120.3 507.5)"/><circle cx="1091.4" cy="618.6" r="1.1" transform="rotate(180 1091.4 618.6)"/><circle cx="1.1" cy="1.1" r="1.1" transform="matrix(-1 0 0 1 1128 473.1)"/><circle cx="1.1" cy="1.1" r="1.1" transform="matrix(-1 0 0 1 1205.8 555.3)"/><circle cx="1.1" cy="1.1" r="1.1" transform="matrix(-1 0 0 1 1370.2 477.6)"/><circle cx="1018" cy="500.9" r="1.1" transform="rotate(180 1018 500.9)"/><circle cx="989.2" cy="612" r="1.1" transform="rotate(180 989.2 612)"/><circle cx="1.1" cy="1.1" r="1.1" transform="matrix(-1 0 0 1 1088 506.4)"/><circle cx="1.1" cy="1.1" r="1.1" transform="matrix(-1 0 0 1 1165.8 588.6)"/><circle cx="1.1" cy="1.1" r="1.1" transform="matrix(-1 0 0 1 1330.2 510.9)"/><circle cx="978" cy="467.5" r="1.1" transform="rotate(180 978 467.5)"/><circle cx="949.2" cy="578.6" r="1.1" transform="rotate(180 949.2 578.6)"/><circle cx="1.1" cy="1.1" r="1.1" transform="matrix(-1 0 0 1 1172.5 533.1)"/><circle cx="1.1" cy="1.1" r="1.1" transform="matrix(-1 0 0 1 1250.2 615.3)"/><circle cx="1.1" cy="1.1" r="1.1" transform="matrix(-1 0 0 1 1414.7 537.5)"/><circle cx="1062.5" cy="440.9" r="1.1" transform="rotate(180 1062.5 440.9)"/><circle cx="1033.6" cy="552" r="1.1" transform="rotate(180 1033.6 552)"/><circle cx="1.1" cy="1.1" r="1.1" transform="matrix(-1 0 0 1 1232.5 550.9)"/><circle cx="1.1" cy="1.1" r="1.1" transform="matrix(-1 0 0 1 1310.2 633)"/><circle cx="1.1" cy="1.1" r="1.1" transform="matrix(-1 0 0 1 1474.7 555.3)"/><circle cx="1122.5" cy="423.1" r="1.1" transform="rotate(180 1122.5 423.1)"/><circle cx="1093.6" cy="534.2" r="1.1" transform="rotate(180 1093.6 534.2)"/><circle cx="1.1" cy="1.1" r="1.1" transform="matrix(-1 0 0 1 1230.2 510.9)"/><circle cx="1.1" cy="1.1" r="1.1" transform="matrix(-1 0 0 1 1308 593)"/><circle cx="1.1" cy="1.1" r="1.1" transform="matrix(-1 0 0 1 1472.4 515.3)"/><circle cx="1120.3" cy="463.1" r="1.1" transform="rotate(180 1120.3 463.1)"/><circle cx="1091.4" cy="574.2" r="1.1" transform="rotate(180 1091.4 574.2)"/><circle cx="2.2" cy="2.2" r="2.2" transform="matrix(-1 0 0 1 1292.5 528.7)"/><circle cx="2.2" cy="2.2" r="2.2" transform="matrix(-1 0 0 1 1099.1 455.3)"/><circle cx="2.2" cy="2.2" r="2.2" transform="matrix(-1 0 0 1 1352.5 464.2)"/><ellipse cx="2.2" cy="1.1" rx="2.2" ry="1.1" transform="matrix(-1 0 0 1 1345.8 508.7)"/><ellipse cx="2.2" cy="1.1" rx="2.2" ry="1.1" transform="matrix(-1 0 0 1 1152.5 639.8)"/><ellipse cx="2.2" cy="1.1" rx="2.2" ry="1.1" transform="matrix(-1 0 0 1 1343.5 575.3)"/><ellipse cx="2.2" cy="1.1" rx="2.2" ry="1.1" transform="matrix(-1 0 0 1 1234.7 484.2)"/><path d="m1110.3 593-1.6 11.8-11.8 1.6 11.8 1.6 1.5 11.8 1.6-11.8 11.8-1.6-11.8-1.6-1.5-11.7Z"/><path d="m1223.6 562-1.6 5.1-5.1 1.5 5.1 1.6 1.6 5.1 1.5-5.1 5.1-1.6-5-1.5-1.6-5.1Z"/><circle cx="4.4" cy="4.4" r="4.4" transform="matrix(-1 0 0 1 1376.9 784)"/><circle cx="2.2" cy="2.2" r="2.2" transform="matrix(-1 0 0 1 1199.1 750.7)"/><circle cx="1.1" cy="1.1" r="1.1" transform="matrix(-1 0 0 1 1170.2 666.2)"/><circle cx="1.1" cy="1.1" r="1.1" transform="matrix(-1 0 0 1 1248 748.5)"/><circle cx="1.1" cy="1.1" r="1.1" transform="matrix(-1 0 0 1 1412.4 670.7)"/><circle cx="1060.3" cy="769.6" r="1.1" transform="rotate(180 1060.3 769.6)"/><circle cx="1031.4" cy="880.7" r="1.1" transform="rotate(180 1031.4 880.7)"/><circle cx="1.1" cy="1.1" r="1.1" transform="matrix(-1 0 0 1 1125.8 775.1)"/><circle cx="1.1" cy="1.1" r="1.1" transform="matrix(-1 0 0 1 1203.6 857.3)"/><circle cx="1.1" cy="1.1" r="1.1" transform="matrix(-1 0 0 1 1368 779.6)"/><circle cx="1015.8" cy="660.7" r="1.1" transform="rotate(180 1015.8 660.7)"/><circle cx="986.9" cy="771.8" r="1.1" transform="rotate(180 987 771.8)"/><circle cx="1.1" cy="1.1" r="1.1" transform="matrix(-1 0 0 1 1230.2 697.4)"/><circle cx="1.1" cy="1.1" r="1.1" transform="matrix(-1 0 0 1 1308 779.6)"/><circle cx="1.1" cy="1.1" r="1.1" transform="matrix(-1 0 0 1 1472.4 701.8)"/><circle cx="1120.3" cy="738.5" r="1.1" transform="rotate(180 1120.3 738.5)"/><circle cx="1091.4" cy="849.6" r="1.1" transform="rotate(180 1091.4 849.6)"/><circle cx="1.1" cy="1.1" r="1.1" transform="matrix(-1 0 0 1 1128 704)"/><circle cx="1.1" cy="1.1" r="1.1" transform="matrix(-1 0 0 1 1205.8 786.2)"/><circle cx="1.1" cy="1.1" r="1.1" transform="matrix(-1 0 0 1 1370.2 708.5)"/><circle cx="1018" cy="731.8" r="1.1" transform="rotate(180 1018 731.8)"/><circle cx="989.2" cy="842.9" r="1.1" transform="rotate(180 989.2 842.9)"/><circle cx="1.1" cy="1.1" r="1.1" transform="matrix(-1 0 0 1 1088 737.3)"/><circle cx="1.1" cy="1.1" r="1.1" transform="matrix(-1 0 0 1 1165.8 819.6)"/><circle cx="1.1" cy="1.1" r="1.1" transform="matrix(-1 0 0 1 1330.2 741.8)"/><circle cx="978" cy="698.5" r="1.1" transform="rotate(180 978 698.5)"/><circle cx="949.2" cy="809.6" r="1.1" transform="rotate(180 949.2 809.6)"/><circle cx="1.1" cy="1.1" r="1.1" transform="matrix(-1 0 0 1 1172.5 764)"/><circle cx="1.1" cy="1.1" r="1.1" transform="matrix(-1 0 0 1 1250.2 846.2)"/><circle cx="1.1" cy="1.1" r="1.1" transform="matrix(-1 0 0 1 1414.7 768.5)"/><circle cx="1062.5" cy="671.8" r="1.1" transform="rotate(180 1062.5 671.8)"/><circle cx="1033.6" cy="782.9" r="1.1" transform="rotate(180 1033.6 782.9)"/><circle cx="1.1" cy="1.1" r="1.1" transform="matrix(-1 0 0 1 1232.5 781.8)"/><circle cx="1.1" cy="1.1" r="1.1" transform="matrix(-1 0 0 1 1310.2 864)"/><circle cx="1.1" cy="1.1" r="1.1" transform="matrix(-1 0 0 1 1474.7 786.2)"/><circle cx="1122.5" cy="654" r="1.1" transform="rotate(180 1122.5 654)"/><circle cx="1093.6" cy="765.1" r="1.1" transform="rotate(180 1093.6 765.1)"/><circle cx="1.1" cy="1.1" r="1.1" transform="matrix(-1 0 0 1 1230.2 741.8)"/><circle cx="1.1" cy="1.1" r="1.1" transform="matrix(-1 0 0 1 1308 824)"/><circle cx="1.1" cy="1.1" r="1.1" transform="matrix(-1 0 0 1 1472.4 746.2)"/><circle cx="1120.3" cy="694" r="1.1" transform="rotate(180 1120.3 694)"/><circle cx="1091.4" cy="805.1" r="1.1" transform="rotate(180 1091.4 805.1)"/><circle cx="2.2" cy="2.2" r="2.2" transform="matrix(-1 0 0 1 1292.5 759.6)"/><circle cx="2.2" cy="2.2" r="2.2" transform="matrix(-1 0 0 1 1099.1 686.2)"/><circle cx="2.2" cy="2.2" r="2.2" transform="matrix(-1 0 0 1 1352.5 695.1)"/><ellipse cx="2.2" cy="1.1" rx="2.2" ry="1.1" transform="matrix(-1 0 0 1 1345.8 739.6)"/><ellipse cx="2.2" cy="1.1" rx="2.2" ry="1.1" transform="matrix(-1 0 0 1 1152.5 870.7)"/><ellipse cx="2.2" cy="1.1" rx="2.2" ry="1.1" transform="matrix(-1 0 0 1 1343.5 806.2)"/><ellipse cx="2.2" cy="1.1" rx="2.2" ry="1.1" transform="matrix(-1 0 0 1 1234.7 715.1)"/><path d="m1223.6 792.9-1.6 5.1-5.1 1.6 5.1 1.5 1.6 5.1 1.5-5 5.1-1.6-5-1.6-1.6-5.1Z"/><circle cx="6.7" cy="6.7" r="6.7" transform="matrix(-1 0 0 1 1259.1 943.8)"/><circle cx="4.4" cy="4.4" r="4.4" transform="matrix(-1 0 0 1 1376.9 1015)"/><circle cx="2.2" cy="2.2" r="2.2" transform="matrix(-1 0 0 1 1199.1 981.6)"/><circle cx="1.1" cy="1.1" r="1.1" transform="matrix(-1 0 0 1 1170.2 897.2)"/><circle cx="1.1" cy="1.1" r="1.1" transform="matrix(-1 0 0 1 1248 979.4)"/><circle cx="1.1" cy="1.1" r="1.1" transform="matrix(-1 0 0 1 1412.4 901.6)"/><circle cx="1060.3" cy="1000.5" r="1.1" transform="rotate(180 1060.3 1000.5)"/><circle cx="1031.4" cy="1111.6" r="1.1" transform="rotate(180 1031.4 1111.6)"/><circle cx="1.1" cy="1.1" r="1.1" transform="matrix(-1 0 0 1 1125.8 1006)"/><circle cx="1.1" cy="1.1" r="1.1" transform="matrix(-1 0 0 1 1203.6 1088.3)"/><circle cx="1.1" cy="1.1" r="1.1" transform="matrix(-1 0 0 1 1368 1010.5)"/><circle cx="1015.8" cy="891.6" r="1.1" transform="rotate(180 1015.8 891.6)"/><circle cx="986.9" cy="1002.7" r="1.1" transform="rotate(180 987 1002.7)"/><circle cx="1.1" cy="1.1" r="1.1" transform="matrix(-1 0 0 1 1230.2 928.3)"/><circle cx="1.1" cy="1.1" r="1.1" transform="matrix(-1 0 0 1 1308 1010.5)"/><circle cx="1.1" cy="1.1" r="1.1" transform="matrix(-1 0 0 1 1472.4 932.7)"/><circle cx="1120.3" cy="969.4" r="1.1" transform="rotate(180 1120.3 969.4)"/><circle cx="1091.4" cy="1080.5" r="1.1" transform="rotate(180 1091.4 1080.5)"/><circle cx="1.1" cy="1.1" r="1.1" transform="matrix(-1 0 0 1 1128 935)"/><circle cx="1.1" cy="1.1" r="1.1" transform="matrix(-1 0 0 1 1205.8 1017.1)"/><circle cx="1.1" cy="1.1" r="1.1" transform="matrix(-1 0 0 1 1370.2 939.4)"/><circle cx="1018" cy="962.7" r="1.1" transform="rotate(180 1018 962.7)"/><circle cx="989.2" cy="1073.8" r="1.1" transform="rotate(180 989.2 1073.8)"/><circle cx="1.1" cy="1.1" r="1.1" transform="matrix(-1 0 0 1 1088 968.3)"/><circle cx="1.1" cy="1.1" r="1.1" transform="matrix(-1 0 0 1 1165.8 1050.5)"/><circle cx="1.1" cy="1.1" r="1.1" transform="matrix(-1 0 0 1 1330.2 972.7)"/><circle cx="978" cy="929.4" r="1.1" transform="rotate(180 978 929.4)"/><circle cx="949.2" cy="1040.5" r="1.1" transform="rotate(180 949.2 1040.5)"/><circle cx="1.1" cy="1.1" r="1.1" transform="matrix(-1 0 0 1 1172.5 995)"/><circle cx="1.1" cy="1.1" r="1.1" transform="matrix(-1 0 0 1 1250.2 1077.1)"/><circle cx="1.1" cy="1.1" r="1.1" transform="matrix(-1 0 0 1 1414.7 999.4)"/><circle cx="1062.5" cy="902.7" r="1.1" transform="rotate(180 1062.5 902.7)"/><circle cx="1033.6" cy="1013.8" r="1.1" transform="rotate(180 1033.6 1013.8)"/><circle cx="1.1" cy="1.1" r="1.1" transform="matrix(-1 0 0 1 1232.5 1012.7)"/><circle cx="1.1" cy="1.1" r="1.1" transform="matrix(-1 0 0 1 1310.2 1095)"/><circle cx="1.1" cy="1.1" r="1.1" transform="matrix(-1 0 0 1 1474.7 1017.1)"/><circle cx="1122.5" cy="884.9" r="1.1" transform="rotate(180 1122.5 885)"/><circle cx="1093.6" cy="996" r="1.1" transform="rotate(180 1093.6 996)"/><circle cx="1.1" cy="1.1" r="1.1" transform="matrix(-1 0 0 1 1230.2 972.7)"/><circle cx="1.1" cy="1.1" r="1.1" transform="matrix(-1 0 0 1 1308 1055)"/><circle cx="1.1" cy="1.1" r="1.1" transform="matrix(-1 0 0 1 1472.4 977.2)"/><circle cx="1120.3" cy="924.9" r="1.1" transform="rotate(180 1120.3 925)"/><circle cx="1091.4" cy="1036" r="1.1" transform="rotate(180 1091.4 1036)"/><circle cx="2.2" cy="2.2" r="2.2" transform="matrix(-1 0 0 1 1292.5 990.5)"/><circle cx="2.2" cy="2.2" r="2.2" transform="matrix(-1 0 0 1 1099.1 917.2)"/><circle cx="2.2" cy="2.2" r="2.2" transform="matrix(-1 0 0 1 1352.5 926)"/><ellipse cx="2.2" cy="1.1" rx="2.2" ry="1.1" transform="matrix(-1 0 0 1 1345.8 970.5)"/><ellipse cx="2.2" cy="1.1" rx="2.2" ry="1.1" transform="matrix(-1 0 0 1 1152.5 1101.6)"/><ellipse cx="2.2" cy="1.1" rx="2.2" ry="1.1" transform="matrix(-1 0 0 1 1343.5 1037.1)"/><ellipse cx="2.2" cy="1.1" rx="2.2" ry="1.1" transform="matrix(-1 0 0 1 1234.7 946)"/><path d="m1305.8 923.8-1.6 11.8-11.8 1.6 11.8 1.6 1.6 11.7 1.6-11.7 11.7-1.6-11.7-1.6-1.6-11.8Z"/><path d="m1110.3 1055-1.6 11.7-11.8 1.5 11.8 1.6 1.5 11.8 1.6-11.8 11.8-1.5-11.8-1.6-1.5-11.8Z"/><path d="m1223.6 1023.8-1.6 5.1-5.1 1.6 5.1 1.5 1.6 5.1 1.5-5 5.1-1.6-5-1.6-1.6-5Z"/><circle cx="4.4" cy="4.4" r="4.4" transform="matrix(1 0 0 -1 747.8 519.8)"/><circle cx="2.2" cy="2.2" r="2.2" transform="matrix(1 0 0 -1 925.5 553)"/><circle cx="1.1" cy="1.1" r="1.1" transform="matrix(1 0 0 -1 954.4 637.5)"/><circle cx="1.1" cy="1.1" r="1.1" transform="matrix(1 0 0 -1 876.6 555.3)"/><circle cx="1.1" cy="1.1" r="1.1" transform="matrix(1 0 0 -1 712.2 633)"/><circle cx="1064.4" cy="534.2" r="1.1"/><circle cx="1093.3" cy="423.1" r="1.1"/><circle cx="1.1" cy="1.1" r="1.1" transform="matrix(1 0 0 -1 998.8 528.7)"/><circle cx="1.1" cy="1.1" r="1.1" transform="matrix(1 0 0 -1 921 446.4)"/><circle cx="1.1" cy="1.1" r="1.1" transform="matrix(1 0 0 -1 756.7 524.2)"/><circle cx="1108.8" cy="643.1" r="1.1"/><circle cx="1137.7" cy="532" r="1.1"/><circle cx="1.1" cy="1.1" r="1.1" transform="matrix(1 0 0 -1 894.4 606.4)"/><circle cx="1.1" cy="1.1" r="1.1" transform="matrix(1 0 0 -1 816.6 524.2)"/><circle cx="1.1" cy="1.1" r="1.1" transform="matrix(1 0 0 -1 652.2 602)"/><circle cx="1004.4" cy="565.3" r="1.1"/><circle cx="1033.3" cy="454.2" r="1.1"/><circle cx="1.1" cy="1.1" r="1.1" transform="matrix(1 0 0 -1 996.6 599.8)"/><circle cx="1.1" cy="1.1" r="1.1" transform="matrix(1 0 0 -1 918.9 517.5)"/><circle cx="1.1" cy="1.1" r="1.1" transform="matrix(1 0 0 -1 754.4 595.3)"/><circle cx="1106.6" cy="572" r="1.1"/><circle cx="1135.5" cy="460.9" r="1.1"/><circle cx="1.1" cy="1.1" r="1.1" transform="matrix(1 0 0 -1 1036.6 566.4)"/><circle cx="1.1" cy="1.1" r="1.1" transform="matrix(1 0 0 -1 958.9 484.2)"/><circle cx="1.1" cy="1.1" r="1.1" transform="matrix(1 0 0 -1 794.4 562)"/><circle cx="1146.6" cy="605.3" r="1.1"/><circle cx="1175.5" cy="494.2" r="1.1"/><circle cx="1.1" cy="1.1" r="1.1" transform="matrix(1 0 0 -1 952.2 539.8)"/><circle cx="1.1" cy="1.1" r="1.1" transform="matrix(1 0 0 -1 874.4 457.6)"/><circle cx="1.1" cy="1.1" r="1.1" transform="matrix(1 0 0 -1 710 535.3)"/><circle cx="1062.2" cy="632" r="1.1"/><circle cx="1091.1" cy="520.9" r="1.1"/><circle cx="1.1" cy="1.1" r="1.1" transform="matrix(1 0 0 -1 892.2 522)"/><circle cx="1.1" cy="1.1" r="1.1" transform="matrix(1 0 0 -1 814.4 439.8)"/><circle cx="1.1" cy="1.1" r="1.1" transform="matrix(1 0 0 -1 650 517.5)"/><circle cx="1002.2" cy="649.7" r="1.1"/><circle cx="1031.1" cy="538.6" r="1.1"/><circle cx="1.1" cy="1.1" r="1.1" transform="matrix(1 0 0 -1 894.4 562)"/><circle cx="1.1" cy="1.1" r="1.1" transform="matrix(1 0 0 -1 816.6 479.8)"/><circle cx="1.1" cy="1.1" r="1.1" transform="matrix(1 0 0 -1 652.2 557.5)"/><circle cx="1004.4" cy="609.8" r="1.1"/><circle cx="1033.3" cy="498.7" r="1.1"/><circle cx="2.2" cy="2.2" r="2.2" transform="matrix(1 0 0 -1 832.2 544.2)"/><circle cx="2.2" cy="2.2" r="2.2" transform="matrix(1 0 0 -1 1025.5 617.5)"/><circle cx="2.2" cy="2.2" r="2.2" transform="matrix(1 0 0 -1 772.2 608.6)"/><ellipse cx="2.2" cy="1.1" rx="2.2" ry="1.1" transform="matrix(1 0 0 -1 778.9 564.2)"/><ellipse cx="2.2" cy="1.1" rx="2.2" ry="1.1" transform="matrix(1 0 0 -1 972.2 433.1)"/><ellipse cx="2.2" cy="1.1" rx="2.2" ry="1.1" transform="matrix(1 0 0 -1 781 497.5)"/><ellipse cx="2.2" cy="1.1" rx="2.2" ry="1.1" transform="matrix(1 0 0 -1 890 588.6)"/><path d="m818.9 610.9 1.6-11.8 11.7-1.6-11.7-1.6-1.6-11.7-1.6 11.7-11.8 1.6 11.8 1.6 1.6 11.8Z"/><path d="m901 510.9 1.6-5.1 5.1-1.6-5-1.5-1.6-5.2-1.6 5.2-5 1.5 5 1.6 1.6 5Z"/><circle cx="4.4" cy="4.4" r="4.4" transform="matrix(1 0 0 -1 747.8 750.7)"/><circle cx="2.2" cy="2.2" r="2.2" transform="matrix(1 0 0 -1 925.5 784)"/><circle cx="1.1" cy="1.1" r="1.1" transform="matrix(1 0 0 -1 954.4 868.4)"/><circle cx="1.1" cy="1.1" r="1.1" transform="matrix(1 0 0 -1 876.6 786.2)"/><circle cx="1.1" cy="1.1" r="1.1" transform="matrix(1 0 0 -1 712.2 864)"/><circle cx="1064.4" cy="765.1" r="1.1"/><circle cx="1093.3" cy="654" r="1.1"/><circle cx="1.1" cy="1.1" r="1.1" transform="matrix(1 0 0 -1 998.8 759.6)"/><circle cx="1.1" cy="1.1" r="1.1" transform="matrix(1 0 0 -1 921 677.4)"/><circle cx="1.1" cy="1.1" r="1.1" transform="matrix(1 0 0 -1 756.7 755.1)"/><circle cx="1108.8" cy="874" r="1.1"/><circle cx="1137.7" cy="762.9" r="1.1"/><circle cx="1.1" cy="1.1" r="1.1" transform="matrix(1 0 0 -1 894.4 837.3)"/><circle cx="1.1" cy="1.1" r="1.1" transform="matrix(1 0 0 -1 816.6 755.1)"/><circle cx="1.1" cy="1.1" r="1.1" transform="matrix(1 0 0 -1 652.2 832.9)"/><circle cx="1004.4" cy="796.2" r="1.1"/><circle cx="1033.3" cy="685.1" r="1.1"/><circle cx="1.1" cy="1.1" r="1.1" transform="matrix(1 0 0 -1 996.6 830.7)"/><circle cx="1.1" cy="1.1" r="1.1" transform="matrix(1 0 0 -1 918.9 748.5)"/><circle cx="1.1" cy="1.1" r="1.1" transform="matrix(1 0 0 -1 754.4 826.2)"/><circle cx="1106.6" cy="802.9" r="1.1"/><circle cx="1135.5" cy="691.8" r="1.1"/><circle cx="1.1" cy="1.1" r="1.1" transform="matrix(1 0 0 -1 1036.6 797.3)"/><circle cx="1.1" cy="1.1" r="1.1" transform="matrix(1 0 0 -1 958.9 715.1)"/><circle cx="1.1" cy="1.1" r="1.1" transform="matrix(1 0 0 -1 794.4 792.9)"/><circle cx="1146.6" cy="836.2" r="1.1"/><circle cx="1175.5" cy="725.1" r="1.1"/><circle cx="1.1" cy="1.1" r="1.1" transform="matrix(1 0 0 -1 952.2 770.7)"/><circle cx="1.1" cy="1.1" r="1.1" transform="matrix(1 0 0 -1 874.4 688.5)"/><circle cx="1.1" cy="1.1" r="1.1" transform="matrix(1 0 0 -1 710 766.2)"/><circle cx="1062.2" cy="862.9" r="1.1"/><circle cx="1091.1" cy="751.8" r="1.1"/><circle cx="1.1" cy="1.1" r="1.1" transform="matrix(1 0 0 -1 892.2 752.9)"/><circle cx="1.1" cy="1.1" r="1.1" transform="matrix(1 0 0 -1 814.4 670.7)"/><circle cx="1.1" cy="1.1" r="1.1" transform="matrix(1 0 0 -1 650 748.5)"/><circle cx="1002.2" cy="880.7" r="1.1"/><circle cx="1031.1" cy="769.6" r="1.1"/><circle cx="1.1" cy="1.1" r="1.1" transform="matrix(1 0 0 -1 894.4 792.9)"/><circle cx="1.1" cy="1.1" r="1.1" transform="matrix(1 0 0 -1 816.6 710.7)"/><circle cx="1.1" cy="1.1" r="1.1" transform="matrix(1 0 0 -1 652.2 788.5)"/><circle cx="1004.4" cy="840.7" r="1.1"/><circle cx="1033.3" cy="729.6" r="1.1"/><circle cx="2.2" cy="2.2" r="2.2" transform="matrix(1 0 0 -1 832.2 775.1)"/><circle cx="2.2" cy="2.2" r="2.2" transform="matrix(1 0 0 -1 1025.5 848.4)"/><circle cx="2.2" cy="2.2" r="2.2" transform="matrix(1 0 0 -1 772.2 839.6)"/><ellipse cx="2.2" cy="1.1" rx="2.2" ry="1.1" transform="matrix(1 0 0 -1 778.9 795.1)"/><ellipse cx="2.2" cy="1.1" rx="2.2" ry="1.1" transform="matrix(1 0 0 -1 972.2 664)"/><ellipse cx="2.2" cy="1.1" rx="2.2" ry="1.1" transform="matrix(1 0 0 -1 781 728.5)"/><ellipse cx="2.2" cy="1.1" rx="2.2" ry="1.1" transform="matrix(1 0 0 -1 890 819.6)"/><path d="m1014.4 710.7 1.6-11.7 11.7-1.6-11.7-1.7-1.6-11.7-1.6 11.7-11.7 1.7 11.7 1.6 1.6 11.7Z"/><path d="m901 741.8 1.6-5.1 5.1-1.6-5-1.5-1.6-5.1-1.6 5-5 1.6 5 1.6 1.6 5Z"/><circle cx="6.7" cy="6.7" r="6.7" transform="matrix(1 0 0 -1 865.5 1052.7)"/><circle cx="2.2" cy="2.2" r="2.2" transform="matrix(1 0 0 -1 925.5 1015)"/><circle cx="1.1" cy="1.1" r="1.1" transform="matrix(1 0 0 -1 954.4 1099.4)"/><circle cx="1.1" cy="1.1" r="1.1" transform="matrix(1 0 0 -1 876.6 1017.1)"/><circle cx="1.1" cy="1.1" r="1.1" transform="matrix(1 0 0 -1 712.2 1095)"/><circle cx="1064.4" cy="996" r="1.1"/><circle cx="1093.3" cy="884.9" r="1.1"/><circle cx="1.1" cy="1.1" r="1.1" transform="matrix(1 0 0 -1 998.8 990.5)"/><circle cx="1.1" cy="1.1" r="1.1" transform="matrix(1 0 0 -1 921 908.3)"/><circle cx="1.1" cy="1.1" r="1.1" transform="matrix(1 0 0 -1 756.7 986)"/><circle cx="1108.8" cy="1104.9" r="1.1"/><circle cx="1137.7" cy="993.8" r="1.1"/><circle cx="1.1" cy="1.1" r="1.1" transform="matrix(1 0 0 -1 894.4 1068.3)"/><circle cx="1.1" cy="1.1" r="1.1" transform="matrix(1 0 0 -1 816.6 986)"/><circle cx="1.1" cy="1.1" r="1.1" transform="matrix(1 0 0 -1 652.2 1063.8)"/><circle cx="1004.4" cy="1027.1" r="1.1"/><circle cx="1033.3" cy="916" r="1.1"/><circle cx="1.1" cy="1.1" r="1.1" transform="matrix(1 0 0 -1 996.6 1061.6)"/><circle cx="1.1" cy="1.1" r="1.1" transform="matrix(1 0 0 -1 918.9 979.4)"/><circle cx="1.1" cy="1.1" r="1.1" transform="matrix(1 0 0 -1 754.4 1057.1)"/><circle cx="1106.6" cy="1033.8" r="1.1"/><circle cx="1135.5" cy="922.7" r="1.1"/><circle cx="1.1" cy="1.1" r="1.1" transform="matrix(1 0 0 -1 1036.6 1028.3)"/><circle cx="1.1" cy="1.1" r="1.1" transform="matrix(1 0 0 -1 958.9 946)"/><circle cx="1.1" cy="1.1" r="1.1" transform="matrix(1 0 0 -1 794.4 1023.8)"/><circle cx="1146.6" cy="1067.1" r="1.1"/><circle cx="1175.5" cy="956" r="1.1"/><circle cx="1.1" cy="1.1" r="1.1" transform="matrix(1 0 0 -1 952.2 1001.6)"/><circle cx="1.1" cy="1.1" r="1.1" transform="matrix(1 0 0 -1 874.4 919.4)"/><circle cx="1.1" cy="1.1" r="1.1" transform="matrix(1 0 0 -1 710 997.1)"/><circle cx="1062.2" cy="1093.8" r="1.1"/><circle cx="1091.1" cy="982.7" r="1.1"/><circle cx="1.1" cy="1.1" r="1.1" transform="matrix(1 0 0 -1 892.2 983.8)"/><circle cx="1.1" cy="1.1" r="1.1" transform="matrix(1 0 0 -1 814.4 901.6)"/><circle cx="1.1" cy="1.1" r="1.1" transform="matrix(1 0 0 -1 650 979.4)"/><circle cx="1002.2" cy="1111.6" r="1.1"/><circle cx="1031.1" cy="1000.5" r="1.1"/><circle cx="1.1" cy="1.1" r="1.1" transform="matrix(1 0 0 -1 894.4 1023.8)"/><circle cx="1.1" cy="1.1" r="1.1" transform="matrix(1 0 0 -1 816.6 941.6)"/><circle cx="1.1" cy="1.1" r="1.1" transform="matrix(1 0 0 -1 652.2 1019.4)"/><circle cx="1004.4" cy="1071.6" r="1.1"/><circle cx="1033.3" cy="960.5" r="1.1"/><circle cx="2.2" cy="2.2" r="2.2" transform="matrix(1 0 0 -1 832.2 1006)"/><circle cx="2.2" cy="2.2" r="2.2" transform="matrix(1 0 0 -1 1025.5 1079.4)"/><circle cx="2.2" cy="2.2" r="2.2" transform="matrix(1 0 0 -1 772.2 1070.5)"/><ellipse cx="2.2" cy="1.1" rx="2.2" ry="1.1" transform="matrix(1 0 0 -1 778.9 1026)"/><ellipse cx="2.2" cy="1.1" rx="2.2" ry="1.1" transform="matrix(1 0 0 -1 972.2 895)"/><ellipse cx="2.2" cy="1.1" rx="2.2" ry="1.1" transform="matrix(1 0 0 -1 781 959.4)"/><ellipse cx="2.2" cy="1.1" rx="2.2" ry="1.1" transform="matrix(1 0 0 -1 890 1050.5)"/><path d="m1014.4 941.6 1.6-11.7 11.7-1.6-11.7-1.6-1.6-11.8-1.6 11.8-11.7 1.6 11.7 1.6 1.6 11.7Z"/><path d="m901 972.7 1.6-5.1 5.1-1.6-5-1.5-1.6-5.1-1.6 5-5 1.6 5 1.6 1.6 5.1Z"/></g></g></svg>